M48
; DRILL file {KiCad 9.0.6} date 2026-01-28T10:41:50+0100
; FORMAT={-:-/ absolute / metric / decimal}
; #@! TF.CreationDate,2026-01-28T10:41:50+01:00
; #@! TF.GenerationSoftware,Kicad,Pcbnew,9.0.6
; #@! TF.FileFunction,Plated,1,2,PTH
FMAT,2
METRIC
; #@! TA.AperFunction,Plated,PTH,ViaDrill
T1C0.300
; #@! TA.AperFunction,Plated,PTH,ComponentDrill
T2C1.000
%
G90
G05
T1
X197.0Y-82.6
X197.4Y-78.0
X198.6Y-91.0
X201.6Y-76.8
X202.8Y-71.0
X203.2Y-91.2
X203.8Y-86.8
X204.8Y-86.0
X205.6Y-89.8
X206.8Y-88.8
T2
X212.0Y-80.0
X212.0Y-82.54
X212.0Y-85.08
X217.96Y-110.16
X217.96Y-112.7
X218.06Y-65.16
X218.06Y-67.7
X220.5Y-110.16
X220.5Y-112.7
X220.6Y-65.16
X220.6Y-67.7
T2
G00X201.0Y-106.6
M15
G01X201.0Y-108.6
M16
G05
G00X203.0Y-112.3
M15
G01X205.0Y-112.3
M16
G05
G00X207.0Y-106.6
M15
G01X207.0Y-108.6
M16
G05
M30
