%TF.GenerationSoftware,KiCad,Pcbnew,9.0.6*%
%TF.CreationDate,2026-01-28T10:40:45+01:00*%
%TF.ProjectId,BreadBoard_Supply,42726561-6442-46f6-9172-645f53757070,rev?*%
%TF.SameCoordinates,Original*%
%TF.FileFunction,Legend,Top*%
%TF.FilePolarity,Positive*%
%FSLAX46Y46*%
G04 Gerber Fmt 4.6, Leading zero omitted, Abs format (unit mm)*
G04 Created by KiCad (PCBNEW 9.0.6) date 2026-01-28 10:40:45*
%MOMM*%
%LPD*%
G01*
G04 APERTURE LIST*
%ADD10C,0.150000*%
%ADD11C,0.120000*%
G04 APERTURE END LIST*
D10*
X214936779Y-109688866D02*
X215698684Y-109688866D01*
X214936779Y-112888866D02*
X215698684Y-112888866D01*
X215317731Y-113269819D02*
X215317731Y-112507914D01*
X215136779Y-64688866D02*
X215898684Y-64688866D01*
X215136779Y-67888866D02*
X215898684Y-67888866D01*
X215517731Y-68269819D02*
X215517731Y-67507914D01*
X193641541Y-75269819D02*
X194260588Y-75269819D01*
X194260588Y-75269819D02*
X193927255Y-75650771D01*
X193927255Y-75650771D02*
X194070112Y-75650771D01*
X194070112Y-75650771D02*
X194165350Y-75698390D01*
X194165350Y-75698390D02*
X194212969Y-75746009D01*
X194212969Y-75746009D02*
X194260588Y-75841247D01*
X194260588Y-75841247D02*
X194260588Y-76079342D01*
X194260588Y-76079342D02*
X194212969Y-76174580D01*
X194212969Y-76174580D02*
X194165350Y-76222200D01*
X194165350Y-76222200D02*
X194070112Y-76269819D01*
X194070112Y-76269819D02*
X193784398Y-76269819D01*
X193784398Y-76269819D02*
X193689160Y-76222200D01*
X193689160Y-76222200D02*
X193641541Y-76174580D01*
X194689160Y-76174580D02*
X194736779Y-76222200D01*
X194736779Y-76222200D02*
X194689160Y-76269819D01*
X194689160Y-76269819D02*
X194641541Y-76222200D01*
X194641541Y-76222200D02*
X194689160Y-76174580D01*
X194689160Y-76174580D02*
X194689160Y-76269819D01*
X195070112Y-75269819D02*
X195689159Y-75269819D01*
X195689159Y-75269819D02*
X195355826Y-75650771D01*
X195355826Y-75650771D02*
X195498683Y-75650771D01*
X195498683Y-75650771D02*
X195593921Y-75698390D01*
X195593921Y-75698390D02*
X195641540Y-75746009D01*
X195641540Y-75746009D02*
X195689159Y-75841247D01*
X195689159Y-75841247D02*
X195689159Y-76079342D01*
X195689159Y-76079342D02*
X195641540Y-76174580D01*
X195641540Y-76174580D02*
X195593921Y-76222200D01*
X195593921Y-76222200D02*
X195498683Y-76269819D01*
X195498683Y-76269819D02*
X195212969Y-76269819D01*
X195212969Y-76269819D02*
X195117731Y-76222200D01*
X195117731Y-76222200D02*
X195070112Y-76174580D01*
X195974874Y-75269819D02*
X196308207Y-76269819D01*
X196308207Y-76269819D02*
X196641540Y-75269819D01*
X194812969Y-88469819D02*
X194336779Y-88469819D01*
X194336779Y-88469819D02*
X194289160Y-88946009D01*
X194289160Y-88946009D02*
X194336779Y-88898390D01*
X194336779Y-88898390D02*
X194432017Y-88850771D01*
X194432017Y-88850771D02*
X194670112Y-88850771D01*
X194670112Y-88850771D02*
X194765350Y-88898390D01*
X194765350Y-88898390D02*
X194812969Y-88946009D01*
X194812969Y-88946009D02*
X194860588Y-89041247D01*
X194860588Y-89041247D02*
X194860588Y-89279342D01*
X194860588Y-89279342D02*
X194812969Y-89374580D01*
X194812969Y-89374580D02*
X194765350Y-89422200D01*
X194765350Y-89422200D02*
X194670112Y-89469819D01*
X194670112Y-89469819D02*
X194432017Y-89469819D01*
X194432017Y-89469819D02*
X194336779Y-89422200D01*
X194336779Y-89422200D02*
X194289160Y-89374580D01*
X195146303Y-88469819D02*
X195479636Y-89469819D01*
X195479636Y-89469819D02*
X195812969Y-88469819D01*
X193736779Y-102669819D02*
X193736779Y-101669819D01*
X193736779Y-101669819D02*
X194117731Y-101669819D01*
X194117731Y-101669819D02*
X194212969Y-101717438D01*
X194212969Y-101717438D02*
X194260588Y-101765057D01*
X194260588Y-101765057D02*
X194308207Y-101860295D01*
X194308207Y-101860295D02*
X194308207Y-102003152D01*
X194308207Y-102003152D02*
X194260588Y-102098390D01*
X194260588Y-102098390D02*
X194212969Y-102146009D01*
X194212969Y-102146009D02*
X194117731Y-102193628D01*
X194117731Y-102193628D02*
X193736779Y-102193628D01*
X194641541Y-101669819D02*
X194879636Y-102669819D01*
X194879636Y-102669819D02*
X195070112Y-101955533D01*
X195070112Y-101955533D02*
X195260588Y-102669819D01*
X195260588Y-102669819D02*
X195498684Y-101669819D01*
X196451064Y-102669819D02*
X196117731Y-102193628D01*
X195879636Y-102669819D02*
X195879636Y-101669819D01*
X195879636Y-101669819D02*
X196260588Y-101669819D01*
X196260588Y-101669819D02*
X196355826Y-101717438D01*
X196355826Y-101717438D02*
X196403445Y-101765057D01*
X196403445Y-101765057D02*
X196451064Y-101860295D01*
X196451064Y-101860295D02*
X196451064Y-102003152D01*
X196451064Y-102003152D02*
X196403445Y-102098390D01*
X196403445Y-102098390D02*
X196355826Y-102146009D01*
X196355826Y-102146009D02*
X196260588Y-102193628D01*
X196260588Y-102193628D02*
X195879636Y-102193628D01*
X209012969Y-84869819D02*
X208536779Y-84869819D01*
X208536779Y-84869819D02*
X208489160Y-85346009D01*
X208489160Y-85346009D02*
X208536779Y-85298390D01*
X208536779Y-85298390D02*
X208632017Y-85250771D01*
X208632017Y-85250771D02*
X208870112Y-85250771D01*
X208870112Y-85250771D02*
X208965350Y-85298390D01*
X208965350Y-85298390D02*
X209012969Y-85346009D01*
X209012969Y-85346009D02*
X209060588Y-85441247D01*
X209060588Y-85441247D02*
X209060588Y-85679342D01*
X209060588Y-85679342D02*
X209012969Y-85774580D01*
X209012969Y-85774580D02*
X208965350Y-85822200D01*
X208965350Y-85822200D02*
X208870112Y-85869819D01*
X208870112Y-85869819D02*
X208632017Y-85869819D01*
X208632017Y-85869819D02*
X208536779Y-85822200D01*
X208536779Y-85822200D02*
X208489160Y-85774580D01*
X209346303Y-84869819D02*
X209679636Y-85869819D01*
X209679636Y-85869819D02*
X210012969Y-84869819D01*
X205727255Y-82069819D02*
X206060588Y-83069819D01*
X206060588Y-83069819D02*
X206393921Y-82069819D01*
X206489160Y-83165057D02*
X207251064Y-83165057D01*
X207679636Y-82069819D02*
X207870112Y-82069819D01*
X207870112Y-82069819D02*
X207965350Y-82117438D01*
X207965350Y-82117438D02*
X208060588Y-82212676D01*
X208060588Y-82212676D02*
X208108207Y-82403152D01*
X208108207Y-82403152D02*
X208108207Y-82736485D01*
X208108207Y-82736485D02*
X208060588Y-82926961D01*
X208060588Y-82926961D02*
X207965350Y-83022200D01*
X207965350Y-83022200D02*
X207870112Y-83069819D01*
X207870112Y-83069819D02*
X207679636Y-83069819D01*
X207679636Y-83069819D02*
X207584398Y-83022200D01*
X207584398Y-83022200D02*
X207489160Y-82926961D01*
X207489160Y-82926961D02*
X207441541Y-82736485D01*
X207441541Y-82736485D02*
X207441541Y-82403152D01*
X207441541Y-82403152D02*
X207489160Y-82212676D01*
X207489160Y-82212676D02*
X207584398Y-82117438D01*
X207584398Y-82117438D02*
X207679636Y-82069819D01*
X208536779Y-82069819D02*
X208536779Y-82879342D01*
X208536779Y-82879342D02*
X208584398Y-82974580D01*
X208584398Y-82974580D02*
X208632017Y-83022200D01*
X208632017Y-83022200D02*
X208727255Y-83069819D01*
X208727255Y-83069819D02*
X208917731Y-83069819D01*
X208917731Y-83069819D02*
X209012969Y-83022200D01*
X209012969Y-83022200D02*
X209060588Y-82974580D01*
X209060588Y-82974580D02*
X209108207Y-82879342D01*
X209108207Y-82879342D02*
X209108207Y-82069819D01*
X209441541Y-82069819D02*
X210012969Y-82069819D01*
X209727255Y-83069819D02*
X209727255Y-82069819D01*
X207012970Y-79669819D02*
X207632017Y-79669819D01*
X207632017Y-79669819D02*
X207298684Y-80050771D01*
X207298684Y-80050771D02*
X207441541Y-80050771D01*
X207441541Y-80050771D02*
X207536779Y-80098390D01*
X207536779Y-80098390D02*
X207584398Y-80146009D01*
X207584398Y-80146009D02*
X207632017Y-80241247D01*
X207632017Y-80241247D02*
X207632017Y-80479342D01*
X207632017Y-80479342D02*
X207584398Y-80574580D01*
X207584398Y-80574580D02*
X207536779Y-80622200D01*
X207536779Y-80622200D02*
X207441541Y-80669819D01*
X207441541Y-80669819D02*
X207155827Y-80669819D01*
X207155827Y-80669819D02*
X207060589Y-80622200D01*
X207060589Y-80622200D02*
X207012970Y-80574580D01*
X208060589Y-80574580D02*
X208108208Y-80622200D01*
X208108208Y-80622200D02*
X208060589Y-80669819D01*
X208060589Y-80669819D02*
X208012970Y-80622200D01*
X208012970Y-80622200D02*
X208060589Y-80574580D01*
X208060589Y-80574580D02*
X208060589Y-80669819D01*
X208441541Y-79669819D02*
X209060588Y-79669819D01*
X209060588Y-79669819D02*
X208727255Y-80050771D01*
X208727255Y-80050771D02*
X208870112Y-80050771D01*
X208870112Y-80050771D02*
X208965350Y-80098390D01*
X208965350Y-80098390D02*
X209012969Y-80146009D01*
X209012969Y-80146009D02*
X209060588Y-80241247D01*
X209060588Y-80241247D02*
X209060588Y-80479342D01*
X209060588Y-80479342D02*
X209012969Y-80574580D01*
X209012969Y-80574580D02*
X208965350Y-80622200D01*
X208965350Y-80622200D02*
X208870112Y-80669819D01*
X208870112Y-80669819D02*
X208584398Y-80669819D01*
X208584398Y-80669819D02*
X208489160Y-80622200D01*
X208489160Y-80622200D02*
X208441541Y-80574580D01*
X209346303Y-79669819D02*
X209679636Y-80669819D01*
X209679636Y-80669819D02*
X210012969Y-79669819D01*
X201688095Y-68054819D02*
X201688095Y-68864342D01*
X201688095Y-68864342D02*
X201735714Y-68959580D01*
X201735714Y-68959580D02*
X201783333Y-69007200D01*
X201783333Y-69007200D02*
X201878571Y-69054819D01*
X201878571Y-69054819D02*
X202069047Y-69054819D01*
X202069047Y-69054819D02*
X202164285Y-69007200D01*
X202164285Y-69007200D02*
X202211904Y-68959580D01*
X202211904Y-68959580D02*
X202259523Y-68864342D01*
X202259523Y-68864342D02*
X202259523Y-68054819D01*
X202688095Y-68150057D02*
X202735714Y-68102438D01*
X202735714Y-68102438D02*
X202830952Y-68054819D01*
X202830952Y-68054819D02*
X203069047Y-68054819D01*
X203069047Y-68054819D02*
X203164285Y-68102438D01*
X203164285Y-68102438D02*
X203211904Y-68150057D01*
X203211904Y-68150057D02*
X203259523Y-68245295D01*
X203259523Y-68245295D02*
X203259523Y-68340533D01*
X203259523Y-68340533D02*
X203211904Y-68483390D01*
X203211904Y-68483390D02*
X202640476Y-69054819D01*
X202640476Y-69054819D02*
X203259523Y-69054819D01*
X201538095Y-99054819D02*
X201538095Y-99864342D01*
X201538095Y-99864342D02*
X201585714Y-99959580D01*
X201585714Y-99959580D02*
X201633333Y-100007200D01*
X201633333Y-100007200D02*
X201728571Y-100054819D01*
X201728571Y-100054819D02*
X201919047Y-100054819D01*
X201919047Y-100054819D02*
X202014285Y-100007200D01*
X202014285Y-100007200D02*
X202061904Y-99959580D01*
X202061904Y-99959580D02*
X202109523Y-99864342D01*
X202109523Y-99864342D02*
X202109523Y-99054819D01*
X203109523Y-100054819D02*
X202538095Y-100054819D01*
X202823809Y-100054819D02*
X202823809Y-99054819D01*
X202823809Y-99054819D02*
X202728571Y-99197676D01*
X202728571Y-99197676D02*
X202633333Y-99292914D01*
X202633333Y-99292914D02*
X202538095Y-99340533D01*
X197454819Y-65966666D02*
X196978628Y-66299999D01*
X197454819Y-66538094D02*
X196454819Y-66538094D01*
X196454819Y-66538094D02*
X196454819Y-66157142D01*
X196454819Y-66157142D02*
X196502438Y-66061904D01*
X196502438Y-66061904D02*
X196550057Y-66014285D01*
X196550057Y-66014285D02*
X196645295Y-65966666D01*
X196645295Y-65966666D02*
X196788152Y-65966666D01*
X196788152Y-65966666D02*
X196883390Y-66014285D01*
X196883390Y-66014285D02*
X196931009Y-66061904D01*
X196931009Y-66061904D02*
X196978628Y-66157142D01*
X196978628Y-66157142D02*
X196978628Y-66538094D01*
X196454819Y-65633332D02*
X196454819Y-65014285D01*
X196454819Y-65014285D02*
X196835771Y-65347618D01*
X196835771Y-65347618D02*
X196835771Y-65204761D01*
X196835771Y-65204761D02*
X196883390Y-65109523D01*
X196883390Y-65109523D02*
X196931009Y-65061904D01*
X196931009Y-65061904D02*
X197026247Y-65014285D01*
X197026247Y-65014285D02*
X197264342Y-65014285D01*
X197264342Y-65014285D02*
X197359580Y-65061904D01*
X197359580Y-65061904D02*
X197407200Y-65109523D01*
X197407200Y-65109523D02*
X197454819Y-65204761D01*
X197454819Y-65204761D02*
X197454819Y-65490475D01*
X197454819Y-65490475D02*
X197407200Y-65585713D01*
X197407200Y-65585713D02*
X197359580Y-65633332D01*
X197454819Y-79220666D02*
X196978628Y-79553999D01*
X197454819Y-79792094D02*
X196454819Y-79792094D01*
X196454819Y-79792094D02*
X196454819Y-79411142D01*
X196454819Y-79411142D02*
X196502438Y-79315904D01*
X196502438Y-79315904D02*
X196550057Y-79268285D01*
X196550057Y-79268285D02*
X196645295Y-79220666D01*
X196645295Y-79220666D02*
X196788152Y-79220666D01*
X196788152Y-79220666D02*
X196883390Y-79268285D01*
X196883390Y-79268285D02*
X196931009Y-79315904D01*
X196931009Y-79315904D02*
X196978628Y-79411142D01*
X196978628Y-79411142D02*
X196978628Y-79792094D01*
X196550057Y-78839713D02*
X196502438Y-78792094D01*
X196502438Y-78792094D02*
X196454819Y-78696856D01*
X196454819Y-78696856D02*
X196454819Y-78458761D01*
X196454819Y-78458761D02*
X196502438Y-78363523D01*
X196502438Y-78363523D02*
X196550057Y-78315904D01*
X196550057Y-78315904D02*
X196645295Y-78268285D01*
X196645295Y-78268285D02*
X196740533Y-78268285D01*
X196740533Y-78268285D02*
X196883390Y-78315904D01*
X196883390Y-78315904D02*
X197454819Y-78887332D01*
X197454819Y-78887332D02*
X197454819Y-78268285D01*
X197359819Y-92474666D02*
X196883628Y-92807999D01*
X197359819Y-93046094D02*
X196359819Y-93046094D01*
X196359819Y-93046094D02*
X196359819Y-92665142D01*
X196359819Y-92665142D02*
X196407438Y-92569904D01*
X196407438Y-92569904D02*
X196455057Y-92522285D01*
X196455057Y-92522285D02*
X196550295Y-92474666D01*
X196550295Y-92474666D02*
X196693152Y-92474666D01*
X196693152Y-92474666D02*
X196788390Y-92522285D01*
X196788390Y-92522285D02*
X196836009Y-92569904D01*
X196836009Y-92569904D02*
X196883628Y-92665142D01*
X196883628Y-92665142D02*
X196883628Y-93046094D01*
X197359819Y-91522285D02*
X197359819Y-92093713D01*
X197359819Y-91807999D02*
X196359819Y-91807999D01*
X196359819Y-91807999D02*
X196502676Y-91903237D01*
X196502676Y-91903237D02*
X196597914Y-91998475D01*
X196597914Y-91998475D02*
X196645533Y-92093713D01*
X214866666Y-110454819D02*
X214866666Y-111169104D01*
X214866666Y-111169104D02*
X214819047Y-111311961D01*
X214819047Y-111311961D02*
X214723809Y-111407200D01*
X214723809Y-111407200D02*
X214580952Y-111454819D01*
X214580952Y-111454819D02*
X214485714Y-111454819D01*
X215771428Y-110788152D02*
X215771428Y-111454819D01*
X215533333Y-110407200D02*
X215295238Y-111121485D01*
X215295238Y-111121485D02*
X215914285Y-111121485D01*
X215066666Y-65454819D02*
X215066666Y-66169104D01*
X215066666Y-66169104D02*
X215019047Y-66311961D01*
X215019047Y-66311961D02*
X214923809Y-66407200D01*
X214923809Y-66407200D02*
X214780952Y-66454819D01*
X214780952Y-66454819D02*
X214685714Y-66454819D01*
X215447619Y-65454819D02*
X216066666Y-65454819D01*
X216066666Y-65454819D02*
X215733333Y-65835771D01*
X215733333Y-65835771D02*
X215876190Y-65835771D01*
X215876190Y-65835771D02*
X215971428Y-65883390D01*
X215971428Y-65883390D02*
X216019047Y-65931009D01*
X216019047Y-65931009D02*
X216066666Y-66026247D01*
X216066666Y-66026247D02*
X216066666Y-66264342D01*
X216066666Y-66264342D02*
X216019047Y-66359580D01*
X216019047Y-66359580D02*
X215971428Y-66407200D01*
X215971428Y-66407200D02*
X215876190Y-66454819D01*
X215876190Y-66454819D02*
X215590476Y-66454819D01*
X215590476Y-66454819D02*
X215495238Y-66407200D01*
X215495238Y-66407200D02*
X215447619Y-66359580D01*
X212666666Y-77054819D02*
X212666666Y-77769104D01*
X212666666Y-77769104D02*
X212619047Y-77911961D01*
X212619047Y-77911961D02*
X212523809Y-78007200D01*
X212523809Y-78007200D02*
X212380952Y-78054819D01*
X212380952Y-78054819D02*
X212285714Y-78054819D01*
X213095238Y-77150057D02*
X213142857Y-77102438D01*
X213142857Y-77102438D02*
X213238095Y-77054819D01*
X213238095Y-77054819D02*
X213476190Y-77054819D01*
X213476190Y-77054819D02*
X213571428Y-77102438D01*
X213571428Y-77102438D02*
X213619047Y-77150057D01*
X213619047Y-77150057D02*
X213666666Y-77245295D01*
X213666666Y-77245295D02*
X213666666Y-77340533D01*
X213666666Y-77340533D02*
X213619047Y-77483390D01*
X213619047Y-77483390D02*
X213047619Y-78054819D01*
X213047619Y-78054819D02*
X213666666Y-78054819D01*
X198216666Y-112804819D02*
X198216666Y-113519104D01*
X198216666Y-113519104D02*
X198169047Y-113661961D01*
X198169047Y-113661961D02*
X198073809Y-113757200D01*
X198073809Y-113757200D02*
X197930952Y-113804819D01*
X197930952Y-113804819D02*
X197835714Y-113804819D01*
X199216666Y-113804819D02*
X198645238Y-113804819D01*
X198930952Y-113804819D02*
X198930952Y-112804819D01*
X198930952Y-112804819D02*
X198835714Y-112947676D01*
X198835714Y-112947676D02*
X198740476Y-113042914D01*
X198740476Y-113042914D02*
X198645238Y-113090533D01*
X209301009Y-103333333D02*
X209301009Y-103666666D01*
X209824819Y-103666666D02*
X208824819Y-103666666D01*
X208824819Y-103666666D02*
X208824819Y-103190476D01*
X209824819Y-102285714D02*
X209824819Y-102857142D01*
X209824819Y-102571428D02*
X208824819Y-102571428D01*
X208824819Y-102571428D02*
X208967676Y-102666666D01*
X208967676Y-102666666D02*
X209062914Y-102761904D01*
X209062914Y-102761904D02*
X209110533Y-102857142D01*
X197454819Y-73138094D02*
X196454819Y-73138094D01*
X196454819Y-73138094D02*
X196454819Y-72899999D01*
X196454819Y-72899999D02*
X196502438Y-72757142D01*
X196502438Y-72757142D02*
X196597676Y-72661904D01*
X196597676Y-72661904D02*
X196692914Y-72614285D01*
X196692914Y-72614285D02*
X196883390Y-72566666D01*
X196883390Y-72566666D02*
X197026247Y-72566666D01*
X197026247Y-72566666D02*
X197216723Y-72614285D01*
X197216723Y-72614285D02*
X197311961Y-72661904D01*
X197311961Y-72661904D02*
X197407200Y-72757142D01*
X197407200Y-72757142D02*
X197454819Y-72899999D01*
X197454819Y-72899999D02*
X197454819Y-73138094D01*
X196454819Y-72233332D02*
X196454819Y-71614285D01*
X196454819Y-71614285D02*
X196835771Y-71947618D01*
X196835771Y-71947618D02*
X196835771Y-71804761D01*
X196835771Y-71804761D02*
X196883390Y-71709523D01*
X196883390Y-71709523D02*
X196931009Y-71661904D01*
X196931009Y-71661904D02*
X197026247Y-71614285D01*
X197026247Y-71614285D02*
X197264342Y-71614285D01*
X197264342Y-71614285D02*
X197359580Y-71661904D01*
X197359580Y-71661904D02*
X197407200Y-71709523D01*
X197407200Y-71709523D02*
X197454819Y-71804761D01*
X197454819Y-71804761D02*
X197454819Y-72090475D01*
X197454819Y-72090475D02*
X197407200Y-72185713D01*
X197407200Y-72185713D02*
X197359580Y-72233332D01*
X197454819Y-86396594D02*
X196454819Y-86396594D01*
X196454819Y-86396594D02*
X196454819Y-86158499D01*
X196454819Y-86158499D02*
X196502438Y-86015642D01*
X196502438Y-86015642D02*
X196597676Y-85920404D01*
X196597676Y-85920404D02*
X196692914Y-85872785D01*
X196692914Y-85872785D02*
X196883390Y-85825166D01*
X196883390Y-85825166D02*
X197026247Y-85825166D01*
X197026247Y-85825166D02*
X197216723Y-85872785D01*
X197216723Y-85872785D02*
X197311961Y-85920404D01*
X197311961Y-85920404D02*
X197407200Y-86015642D01*
X197407200Y-86015642D02*
X197454819Y-86158499D01*
X197454819Y-86158499D02*
X197454819Y-86396594D01*
X196550057Y-85444213D02*
X196502438Y-85396594D01*
X196502438Y-85396594D02*
X196454819Y-85301356D01*
X196454819Y-85301356D02*
X196454819Y-85063261D01*
X196454819Y-85063261D02*
X196502438Y-84968023D01*
X196502438Y-84968023D02*
X196550057Y-84920404D01*
X196550057Y-84920404D02*
X196645295Y-84872785D01*
X196645295Y-84872785D02*
X196740533Y-84872785D01*
X196740533Y-84872785D02*
X196883390Y-84920404D01*
X196883390Y-84920404D02*
X197454819Y-85491832D01*
X197454819Y-85491832D02*
X197454819Y-84872785D01*
X197454819Y-99650594D02*
X196454819Y-99650594D01*
X196454819Y-99650594D02*
X196454819Y-99412499D01*
X196454819Y-99412499D02*
X196502438Y-99269642D01*
X196502438Y-99269642D02*
X196597676Y-99174404D01*
X196597676Y-99174404D02*
X196692914Y-99126785D01*
X196692914Y-99126785D02*
X196883390Y-99079166D01*
X196883390Y-99079166D02*
X197026247Y-99079166D01*
X197026247Y-99079166D02*
X197216723Y-99126785D01*
X197216723Y-99126785D02*
X197311961Y-99174404D01*
X197311961Y-99174404D02*
X197407200Y-99269642D01*
X197407200Y-99269642D02*
X197454819Y-99412499D01*
X197454819Y-99412499D02*
X197454819Y-99650594D01*
X197454819Y-98126785D02*
X197454819Y-98698213D01*
X197454819Y-98412499D02*
X196454819Y-98412499D01*
X196454819Y-98412499D02*
X196597676Y-98507737D01*
X196597676Y-98507737D02*
X196692914Y-98602975D01*
X196692914Y-98602975D02*
X196740533Y-98698213D01*
X202633333Y-64109580D02*
X202585714Y-64157200D01*
X202585714Y-64157200D02*
X202442857Y-64204819D01*
X202442857Y-64204819D02*
X202347619Y-64204819D01*
X202347619Y-64204819D02*
X202204762Y-64157200D01*
X202204762Y-64157200D02*
X202109524Y-64061961D01*
X202109524Y-64061961D02*
X202061905Y-63966723D01*
X202061905Y-63966723D02*
X202014286Y-63776247D01*
X202014286Y-63776247D02*
X202014286Y-63633390D01*
X202014286Y-63633390D02*
X202061905Y-63442914D01*
X202061905Y-63442914D02*
X202109524Y-63347676D01*
X202109524Y-63347676D02*
X202204762Y-63252438D01*
X202204762Y-63252438D02*
X202347619Y-63204819D01*
X202347619Y-63204819D02*
X202442857Y-63204819D01*
X202442857Y-63204819D02*
X202585714Y-63252438D01*
X202585714Y-63252438D02*
X202633333Y-63300057D01*
X203490476Y-63204819D02*
X203300000Y-63204819D01*
X203300000Y-63204819D02*
X203204762Y-63252438D01*
X203204762Y-63252438D02*
X203157143Y-63300057D01*
X203157143Y-63300057D02*
X203061905Y-63442914D01*
X203061905Y-63442914D02*
X203014286Y-63633390D01*
X203014286Y-63633390D02*
X203014286Y-64014342D01*
X203014286Y-64014342D02*
X203061905Y-64109580D01*
X203061905Y-64109580D02*
X203109524Y-64157200D01*
X203109524Y-64157200D02*
X203204762Y-64204819D01*
X203204762Y-64204819D02*
X203395238Y-64204819D01*
X203395238Y-64204819D02*
X203490476Y-64157200D01*
X203490476Y-64157200D02*
X203538095Y-64109580D01*
X203538095Y-64109580D02*
X203585714Y-64014342D01*
X203585714Y-64014342D02*
X203585714Y-63776247D01*
X203585714Y-63776247D02*
X203538095Y-63681009D01*
X203538095Y-63681009D02*
X203490476Y-63633390D01*
X203490476Y-63633390D02*
X203395238Y-63585771D01*
X203395238Y-63585771D02*
X203204762Y-63585771D01*
X203204762Y-63585771D02*
X203109524Y-63633390D01*
X203109524Y-63633390D02*
X203061905Y-63681009D01*
X203061905Y-63681009D02*
X203014286Y-63776247D01*
X215259580Y-73766666D02*
X215307200Y-73814285D01*
X215307200Y-73814285D02*
X215354819Y-73957142D01*
X215354819Y-73957142D02*
X215354819Y-74052380D01*
X215354819Y-74052380D02*
X215307200Y-74195237D01*
X215307200Y-74195237D02*
X215211961Y-74290475D01*
X215211961Y-74290475D02*
X215116723Y-74338094D01*
X215116723Y-74338094D02*
X214926247Y-74385713D01*
X214926247Y-74385713D02*
X214783390Y-74385713D01*
X214783390Y-74385713D02*
X214592914Y-74338094D01*
X214592914Y-74338094D02*
X214497676Y-74290475D01*
X214497676Y-74290475D02*
X214402438Y-74195237D01*
X214402438Y-74195237D02*
X214354819Y-74052380D01*
X214354819Y-74052380D02*
X214354819Y-73957142D01*
X214354819Y-73957142D02*
X214402438Y-73814285D01*
X214402438Y-73814285D02*
X214450057Y-73766666D01*
X214354819Y-72861904D02*
X214354819Y-73338094D01*
X214354819Y-73338094D02*
X214831009Y-73385713D01*
X214831009Y-73385713D02*
X214783390Y-73338094D01*
X214783390Y-73338094D02*
X214735771Y-73242856D01*
X214735771Y-73242856D02*
X214735771Y-73004761D01*
X214735771Y-73004761D02*
X214783390Y-72909523D01*
X214783390Y-72909523D02*
X214831009Y-72861904D01*
X214831009Y-72861904D02*
X214926247Y-72814285D01*
X214926247Y-72814285D02*
X215164342Y-72814285D01*
X215164342Y-72814285D02*
X215259580Y-72861904D01*
X215259580Y-72861904D02*
X215307200Y-72909523D01*
X215307200Y-72909523D02*
X215354819Y-73004761D01*
X215354819Y-73004761D02*
X215354819Y-73242856D01*
X215354819Y-73242856D02*
X215307200Y-73338094D01*
X215307200Y-73338094D02*
X215259580Y-73385713D01*
X199309580Y-87366666D02*
X199357200Y-87414285D01*
X199357200Y-87414285D02*
X199404819Y-87557142D01*
X199404819Y-87557142D02*
X199404819Y-87652380D01*
X199404819Y-87652380D02*
X199357200Y-87795237D01*
X199357200Y-87795237D02*
X199261961Y-87890475D01*
X199261961Y-87890475D02*
X199166723Y-87938094D01*
X199166723Y-87938094D02*
X198976247Y-87985713D01*
X198976247Y-87985713D02*
X198833390Y-87985713D01*
X198833390Y-87985713D02*
X198642914Y-87938094D01*
X198642914Y-87938094D02*
X198547676Y-87890475D01*
X198547676Y-87890475D02*
X198452438Y-87795237D01*
X198452438Y-87795237D02*
X198404819Y-87652380D01*
X198404819Y-87652380D02*
X198404819Y-87557142D01*
X198404819Y-87557142D02*
X198452438Y-87414285D01*
X198452438Y-87414285D02*
X198500057Y-87366666D01*
X198738152Y-86509523D02*
X199404819Y-86509523D01*
X198357200Y-86747618D02*
X199071485Y-86985713D01*
X199071485Y-86985713D02*
X199071485Y-86366666D01*
X201733333Y-77759580D02*
X201685714Y-77807200D01*
X201685714Y-77807200D02*
X201542857Y-77854819D01*
X201542857Y-77854819D02*
X201447619Y-77854819D01*
X201447619Y-77854819D02*
X201304762Y-77807200D01*
X201304762Y-77807200D02*
X201209524Y-77711961D01*
X201209524Y-77711961D02*
X201161905Y-77616723D01*
X201161905Y-77616723D02*
X201114286Y-77426247D01*
X201114286Y-77426247D02*
X201114286Y-77283390D01*
X201114286Y-77283390D02*
X201161905Y-77092914D01*
X201161905Y-77092914D02*
X201209524Y-76997676D01*
X201209524Y-76997676D02*
X201304762Y-76902438D01*
X201304762Y-76902438D02*
X201447619Y-76854819D01*
X201447619Y-76854819D02*
X201542857Y-76854819D01*
X201542857Y-76854819D02*
X201685714Y-76902438D01*
X201685714Y-76902438D02*
X201733333Y-76950057D01*
X202066667Y-76854819D02*
X202685714Y-76854819D01*
X202685714Y-76854819D02*
X202352381Y-77235771D01*
X202352381Y-77235771D02*
X202495238Y-77235771D01*
X202495238Y-77235771D02*
X202590476Y-77283390D01*
X202590476Y-77283390D02*
X202638095Y-77331009D01*
X202638095Y-77331009D02*
X202685714Y-77426247D01*
X202685714Y-77426247D02*
X202685714Y-77664342D01*
X202685714Y-77664342D02*
X202638095Y-77759580D01*
X202638095Y-77759580D02*
X202590476Y-77807200D01*
X202590476Y-77807200D02*
X202495238Y-77854819D01*
X202495238Y-77854819D02*
X202209524Y-77854819D01*
X202209524Y-77854819D02*
X202114286Y-77807200D01*
X202114286Y-77807200D02*
X202066667Y-77759580D01*
X209870833Y-88809580D02*
X209823214Y-88857200D01*
X209823214Y-88857200D02*
X209680357Y-88904819D01*
X209680357Y-88904819D02*
X209585119Y-88904819D01*
X209585119Y-88904819D02*
X209442262Y-88857200D01*
X209442262Y-88857200D02*
X209347024Y-88761961D01*
X209347024Y-88761961D02*
X209299405Y-88666723D01*
X209299405Y-88666723D02*
X209251786Y-88476247D01*
X209251786Y-88476247D02*
X209251786Y-88333390D01*
X209251786Y-88333390D02*
X209299405Y-88142914D01*
X209299405Y-88142914D02*
X209347024Y-88047676D01*
X209347024Y-88047676D02*
X209442262Y-87952438D01*
X209442262Y-87952438D02*
X209585119Y-87904819D01*
X209585119Y-87904819D02*
X209680357Y-87904819D01*
X209680357Y-87904819D02*
X209823214Y-87952438D01*
X209823214Y-87952438D02*
X209870833Y-88000057D01*
X210251786Y-88000057D02*
X210299405Y-87952438D01*
X210299405Y-87952438D02*
X210394643Y-87904819D01*
X210394643Y-87904819D02*
X210632738Y-87904819D01*
X210632738Y-87904819D02*
X210727976Y-87952438D01*
X210727976Y-87952438D02*
X210775595Y-88000057D01*
X210775595Y-88000057D02*
X210823214Y-88095295D01*
X210823214Y-88095295D02*
X210823214Y-88190533D01*
X210823214Y-88190533D02*
X210775595Y-88333390D01*
X210775595Y-88333390D02*
X210204167Y-88904819D01*
X210204167Y-88904819D02*
X210823214Y-88904819D01*
X208959580Y-99766666D02*
X209007200Y-99814285D01*
X209007200Y-99814285D02*
X209054819Y-99957142D01*
X209054819Y-99957142D02*
X209054819Y-100052380D01*
X209054819Y-100052380D02*
X209007200Y-100195237D01*
X209007200Y-100195237D02*
X208911961Y-100290475D01*
X208911961Y-100290475D02*
X208816723Y-100338094D01*
X208816723Y-100338094D02*
X208626247Y-100385713D01*
X208626247Y-100385713D02*
X208483390Y-100385713D01*
X208483390Y-100385713D02*
X208292914Y-100338094D01*
X208292914Y-100338094D02*
X208197676Y-100290475D01*
X208197676Y-100290475D02*
X208102438Y-100195237D01*
X208102438Y-100195237D02*
X208054819Y-100052380D01*
X208054819Y-100052380D02*
X208054819Y-99957142D01*
X208054819Y-99957142D02*
X208102438Y-99814285D01*
X208102438Y-99814285D02*
X208150057Y-99766666D01*
X209054819Y-98814285D02*
X209054819Y-99385713D01*
X209054819Y-99099999D02*
X208054819Y-99099999D01*
X208054819Y-99099999D02*
X208197676Y-99195237D01*
X208197676Y-99195237D02*
X208292914Y-99290475D01*
X208292914Y-99290475D02*
X208340533Y-99385713D01*
D11*
%TO.C,U2*%
X204300000Y-76310000D02*
X200540000Y-76310000D01*
X204300000Y-69490000D02*
X200540000Y-69490000D01*
X200540000Y-76310000D02*
X200540000Y-75050000D01*
X200540000Y-69490000D02*
X200540000Y-70750000D01*
X205820000Y-76540000D02*
X205340000Y-76540000D01*
X205580000Y-76210000D01*
X205820000Y-76540000D01*
G36*
X205820000Y-76540000D02*
G01*
X205340000Y-76540000D01*
X205580000Y-76210000D01*
X205820000Y-76540000D01*
G37*
%TO.C,U1*%
X204150000Y-98510000D02*
X200390000Y-98510000D01*
X204150000Y-91690000D02*
X200390000Y-91690000D01*
X200390000Y-98510000D02*
X200390000Y-97250000D01*
X200390000Y-91690000D02*
X200390000Y-92950000D01*
X205670000Y-98740000D02*
X205190000Y-98740000D01*
X205430000Y-98410000D01*
X205670000Y-98740000D01*
G36*
X205670000Y-98740000D02*
G01*
X205190000Y-98740000D01*
X205430000Y-98410000D01*
X205670000Y-98740000D01*
G37*
%TO.C,R3*%
X193857000Y-68276500D02*
X196143000Y-68276500D01*
X193857000Y-63323500D02*
X193857000Y-68276500D01*
X196143000Y-63323500D02*
X193857000Y-63323500D01*
X196143000Y-68276500D02*
X196143000Y-63323500D01*
%TO.C,R2*%
X196143000Y-76577500D02*
X193857000Y-76577500D01*
X196143000Y-81530500D02*
X196143000Y-76577500D01*
X193857000Y-81530500D02*
X196143000Y-81530500D01*
X193857000Y-76577500D02*
X193857000Y-81530500D01*
%TO.C,R1*%
X193857000Y-94784500D02*
X196143000Y-94784500D01*
X193857000Y-89831500D02*
X193857000Y-94784500D01*
X196143000Y-89831500D02*
X193857000Y-89831500D01*
X196143000Y-94784500D02*
X196143000Y-89831500D01*
%TO.C,J2*%
X210620000Y-78620000D02*
X212000000Y-78620000D01*
X210620000Y-80000000D02*
X210620000Y-78620000D01*
X210620000Y-81270000D02*
X210620000Y-86460000D01*
X210620000Y-81270000D02*
X213380000Y-81270000D01*
X210620000Y-86460000D02*
X213380000Y-86460000D01*
X213380000Y-81270000D02*
X213380000Y-86460000D01*
%TO.C,J1*%
X193200000Y-103000000D02*
X207900000Y-103000000D01*
X193200000Y-112200000D02*
X193200000Y-103000000D01*
X202000000Y-112200000D02*
X193200000Y-112200000D01*
X207050000Y-102800000D02*
X208100000Y-102800000D01*
X207900000Y-103000000D02*
X207900000Y-105600000D01*
X207900000Y-109500000D02*
X207900000Y-112200000D01*
X207900000Y-112200000D02*
X206000000Y-112200000D01*
X208100000Y-103850000D02*
X208100000Y-102800000D01*
%TO.C,F1*%
X210290000Y-103602064D02*
X210290000Y-102397936D01*
X212110000Y-103602064D02*
X212110000Y-102397936D01*
%TO.C,D3*%
X193865000Y-74864500D02*
X196135000Y-74864500D01*
X196135000Y-74864500D02*
X196135000Y-70804500D01*
X193865000Y-70804500D02*
X193865000Y-74864500D01*
%TO.C,D2*%
X193865000Y-88118500D02*
X196135000Y-88118500D01*
X196135000Y-88118500D02*
X196135000Y-84058500D01*
X193865000Y-84058500D02*
X193865000Y-88118500D01*
%TO.C,D1*%
X193865000Y-101372500D02*
X196135000Y-101372500D01*
X196135000Y-101372500D02*
X196135000Y-97312500D01*
X193865000Y-97312500D02*
X193865000Y-101372500D01*
%TO.C,C6*%
X202088748Y-64690000D02*
X203511252Y-64690000D01*
X202088748Y-66510000D02*
X203511252Y-66510000D01*
%TO.C,C5*%
X212885000Y-69975000D02*
X212885000Y-70600000D01*
X213197500Y-70287500D02*
X212572500Y-70287500D01*
X212895563Y-70840000D02*
X212260000Y-70840000D01*
X212895563Y-70840000D02*
X213960000Y-71904437D01*
X209504437Y-70840000D02*
X210140000Y-70840000D01*
X209504437Y-70840000D02*
X208440000Y-71904437D01*
X213960000Y-71904437D02*
X213960000Y-76360000D01*
X208440000Y-71904437D02*
X208440000Y-76360000D01*
X213960000Y-76360000D02*
X212260000Y-76360000D01*
X208440000Y-76360000D02*
X210140000Y-76360000D01*
%TO.C,C4*%
X199890000Y-87911252D02*
X199890000Y-86488748D01*
X201710000Y-87911252D02*
X201710000Y-86488748D01*
%TO.C,C3*%
X198275000Y-79415000D02*
X198900000Y-79415000D01*
X198587500Y-79102500D02*
X198587500Y-79727500D01*
X199140000Y-79404437D02*
X199140000Y-80040000D01*
X199140000Y-79404437D02*
X200204437Y-78340000D01*
X199140000Y-82795563D02*
X199140000Y-82160000D01*
X199140000Y-82795563D02*
X200204437Y-83860000D01*
X200204437Y-78340000D02*
X204660000Y-78340000D01*
X200204437Y-83860000D02*
X204660000Y-83860000D01*
X204660000Y-78340000D02*
X204660000Y-80040000D01*
X204660000Y-83860000D02*
X204660000Y-82160000D01*
%TO.C,C2*%
X209326248Y-89390000D02*
X210748752Y-89390000D01*
X209326248Y-91210000D02*
X210748752Y-91210000D01*
%TO.C,C1*%
X212985000Y-92275000D02*
X212985000Y-92900000D01*
X213297500Y-92587500D02*
X212672500Y-92587500D01*
X212995563Y-93140000D02*
X212360000Y-93140000D01*
X212995563Y-93140000D02*
X214060000Y-94204437D01*
X209604437Y-93140000D02*
X210240000Y-93140000D01*
X209604437Y-93140000D02*
X208540000Y-94204437D01*
X214060000Y-94204437D02*
X214060000Y-98660000D01*
X208540000Y-94204437D02*
X208540000Y-98660000D01*
X214060000Y-98660000D02*
X212360000Y-98660000D01*
X208540000Y-98660000D02*
X210240000Y-98660000D01*
%TD*%
M02*
