%TF.GenerationSoftware,KiCad,Pcbnew,9.0.6*%
%TF.CreationDate,2026-01-28T10:40:45+01:00*%
%TF.ProjectId,BreadBoard_Supply,42726561-6442-46f6-9172-645f53757070,rev?*%
%TF.SameCoordinates,Original*%
%TF.FileFunction,Legend,Bot*%
%TF.FilePolarity,Positive*%
%FSLAX46Y46*%
G04 Gerber Fmt 4.6, Leading zero omitted, Abs format (unit mm)*
G04 Created by KiCad (PCBNEW 9.0.6) date 2026-01-28 10:40:45*
%MOMM*%
%LPD*%
G01*
G04 APERTURE LIST*
%ADD10C,0.010000*%
%ADD11C,0.120000*%
G04 APERTURE END LIST*
D10*
%TO.C,REF\u002A\u002A*%
X201255406Y-68674949D02*
X201281127Y-68690647D01*
X201307778Y-68712227D01*
X201307778Y-69359684D01*
X201281127Y-69381264D01*
X201249767Y-69398739D01*
X201213966Y-69399575D01*
X201182528Y-69379082D01*
X201178652Y-69374416D01*
X201173186Y-69364949D01*
X201168979Y-69351267D01*
X201165867Y-69330748D01*
X201163687Y-69300768D01*
X201162276Y-69258704D01*
X201161471Y-69201932D01*
X201161107Y-69127830D01*
X201161022Y-69033773D01*
X201161022Y-68712227D01*
X201187673Y-68690647D01*
X201211386Y-68675877D01*
X201234400Y-68669067D01*
X201255406Y-68674949D01*
G36*
X201255406Y-68674949D02*
G01*
X201281127Y-68690647D01*
X201307778Y-68712227D01*
X201307778Y-69359684D01*
X201281127Y-69381264D01*
X201249767Y-69398739D01*
X201213966Y-69399575D01*
X201182528Y-69379082D01*
X201178652Y-69374416D01*
X201173186Y-69364949D01*
X201168979Y-69351267D01*
X201165867Y-69330748D01*
X201163687Y-69300768D01*
X201162276Y-69258704D01*
X201161471Y-69201932D01*
X201161107Y-69127830D01*
X201161022Y-69033773D01*
X201161022Y-68712227D01*
X201187673Y-68690647D01*
X201211386Y-68675877D01*
X201234400Y-68669067D01*
X201255406Y-68674949D01*
G37*
X208386137Y-68673463D02*
X208420291Y-68696776D01*
X208448000Y-68724485D01*
X208448000Y-69037537D01*
X208447959Y-69121567D01*
X208447701Y-69195789D01*
X208447030Y-69252541D01*
X208445752Y-69294512D01*
X208443673Y-69324389D01*
X208440599Y-69344861D01*
X208436334Y-69358614D01*
X208430684Y-69368337D01*
X208423455Y-69376717D01*
X208391991Y-69398181D01*
X208356826Y-69399947D01*
X208323822Y-69380267D01*
X208318516Y-69374398D01*
X208313066Y-69365314D01*
X208308900Y-69351973D01*
X208305846Y-69331757D01*
X208303732Y-69302049D01*
X208302386Y-69260232D01*
X208301638Y-69203689D01*
X208301314Y-69129802D01*
X208301245Y-69035956D01*
X208301284Y-68960294D01*
X208301539Y-68882385D01*
X208302183Y-68822375D01*
X208303387Y-68777648D01*
X208305324Y-68745585D01*
X208308164Y-68723571D01*
X208312079Y-68708987D01*
X208317242Y-68699218D01*
X208323822Y-68691645D01*
X208353006Y-68672623D01*
X208386137Y-68673463D01*
G36*
X208386137Y-68673463D02*
G01*
X208420291Y-68696776D01*
X208448000Y-68724485D01*
X208448000Y-69037537D01*
X208447959Y-69121567D01*
X208447701Y-69195789D01*
X208447030Y-69252541D01*
X208445752Y-69294512D01*
X208443673Y-69324389D01*
X208440599Y-69344861D01*
X208436334Y-69358614D01*
X208430684Y-69368337D01*
X208423455Y-69376717D01*
X208391991Y-69398181D01*
X208356826Y-69399947D01*
X208323822Y-69380267D01*
X208318516Y-69374398D01*
X208313066Y-69365314D01*
X208308900Y-69351973D01*
X208305846Y-69331757D01*
X208303732Y-69302049D01*
X208302386Y-69260232D01*
X208301638Y-69203689D01*
X208301314Y-69129802D01*
X208301245Y-69035956D01*
X208301284Y-68960294D01*
X208301539Y-68882385D01*
X208302183Y-68822375D01*
X208303387Y-68777648D01*
X208305324Y-68745585D01*
X208308164Y-68723571D01*
X208312079Y-68708987D01*
X208317242Y-68699218D01*
X208323822Y-68691645D01*
X208353006Y-68672623D01*
X208386137Y-68673463D01*
G37*
X207854562Y-63432850D02*
X207937313Y-63460053D01*
X208012406Y-63505484D01*
X208084298Y-63571302D01*
X208122846Y-63615567D01*
X208162256Y-63673961D01*
X208187446Y-63734586D01*
X208200861Y-63803865D01*
X208204948Y-63888222D01*
X208204669Y-63934307D01*
X208202460Y-63975450D01*
X208196894Y-64007582D01*
X208186586Y-64038122D01*
X208170148Y-64074489D01*
X208156200Y-64101728D01*
X208097665Y-64187429D01*
X208025619Y-64256617D01*
X207941947Y-64307741D01*
X207848531Y-64339250D01*
X207815434Y-64346225D01*
X207774960Y-64353094D01*
X207741999Y-64354919D01*
X207707698Y-64351947D01*
X207663200Y-64344426D01*
X207611934Y-64332002D01*
X207521434Y-64294112D01*
X207442345Y-64239836D01*
X207376528Y-64171770D01*
X207325840Y-64092511D01*
X207292140Y-64004654D01*
X207277286Y-63910795D01*
X207283136Y-63813530D01*
X207309399Y-63717220D01*
X207354418Y-63628494D01*
X207415373Y-63553419D01*
X207490184Y-63493641D01*
X207576768Y-63450809D01*
X207673043Y-63426571D01*
X207776928Y-63422576D01*
X207854562Y-63432850D01*
G36*
X207854562Y-63432850D02*
G01*
X207937313Y-63460053D01*
X208012406Y-63505484D01*
X208084298Y-63571302D01*
X208122846Y-63615567D01*
X208162256Y-63673961D01*
X208187446Y-63734586D01*
X208200861Y-63803865D01*
X208204948Y-63888222D01*
X208204669Y-63934307D01*
X208202460Y-63975450D01*
X208196894Y-64007582D01*
X208186586Y-64038122D01*
X208170148Y-64074489D01*
X208156200Y-64101728D01*
X208097665Y-64187429D01*
X208025619Y-64256617D01*
X207941947Y-64307741D01*
X207848531Y-64339250D01*
X207815434Y-64346225D01*
X207774960Y-64353094D01*
X207741999Y-64354919D01*
X207707698Y-64351947D01*
X207663200Y-64344426D01*
X207611934Y-64332002D01*
X207521434Y-64294112D01*
X207442345Y-64239836D01*
X207376528Y-64171770D01*
X207325840Y-64092511D01*
X207292140Y-64004654D01*
X207277286Y-63910795D01*
X207283136Y-63813530D01*
X207309399Y-63717220D01*
X207354418Y-63628494D01*
X207415373Y-63553419D01*
X207490184Y-63493641D01*
X207576768Y-63450809D01*
X207673043Y-63426571D01*
X207776928Y-63422576D01*
X207854562Y-63432850D01*
G37*
X200555767Y-68669068D02*
X200649890Y-68669158D01*
X200724405Y-68669498D01*
X200781811Y-68670239D01*
X200824611Y-68671535D01*
X200855304Y-68673537D01*
X200876391Y-68676396D01*
X200890373Y-68680266D01*
X200899750Y-68685298D01*
X200907022Y-68691645D01*
X200925828Y-68724362D01*
X200927275Y-68761939D01*
X200910917Y-68795178D01*
X200909557Y-68796631D01*
X200898354Y-68804992D01*
X200881252Y-68810547D01*
X200854082Y-68813840D01*
X200812678Y-68815418D01*
X200752873Y-68815822D01*
X200613511Y-68815822D01*
X200613511Y-69079589D01*
X200613436Y-69155417D01*
X200613028Y-69222083D01*
X200612046Y-69271867D01*
X200610250Y-69307784D01*
X200607399Y-69332850D01*
X200603253Y-69350081D01*
X200597571Y-69362492D01*
X200590114Y-69373100D01*
X200587824Y-69375906D01*
X200556646Y-69398548D01*
X200522266Y-69400112D01*
X200489334Y-69380267D01*
X200482355Y-69372191D01*
X200476883Y-69361593D01*
X200472863Y-69345749D01*
X200470072Y-69321773D01*
X200468288Y-69286774D01*
X200467289Y-69237864D01*
X200466852Y-69172154D01*
X200466756Y-69086756D01*
X200466756Y-68815822D01*
X200320820Y-68815822D01*
X200309720Y-68815821D01*
X200253202Y-68815596D01*
X200214358Y-68814457D01*
X200188965Y-68811657D01*
X200172804Y-68806450D01*
X200161652Y-68798089D01*
X200151289Y-68785826D01*
X200135441Y-68755138D01*
X200138543Y-68721358D01*
X200164187Y-68688822D01*
X200169129Y-68685105D01*
X200179338Y-68680269D01*
X200194764Y-68676506D01*
X200217886Y-68673683D01*
X200251183Y-68671670D01*
X200297137Y-68670333D01*
X200358228Y-68669542D01*
X200436935Y-68669163D01*
X200535740Y-68669067D01*
X200555767Y-68669068D01*
G36*
X200555767Y-68669068D02*
G01*
X200649890Y-68669158D01*
X200724405Y-68669498D01*
X200781811Y-68670239D01*
X200824611Y-68671535D01*
X200855304Y-68673537D01*
X200876391Y-68676396D01*
X200890373Y-68680266D01*
X200899750Y-68685298D01*
X200907022Y-68691645D01*
X200925828Y-68724362D01*
X200927275Y-68761939D01*
X200910917Y-68795178D01*
X200909557Y-68796631D01*
X200898354Y-68804992D01*
X200881252Y-68810547D01*
X200854082Y-68813840D01*
X200812678Y-68815418D01*
X200752873Y-68815822D01*
X200613511Y-68815822D01*
X200613511Y-69079589D01*
X200613436Y-69155417D01*
X200613028Y-69222083D01*
X200612046Y-69271867D01*
X200610250Y-69307784D01*
X200607399Y-69332850D01*
X200603253Y-69350081D01*
X200597571Y-69362492D01*
X200590114Y-69373100D01*
X200587824Y-69375906D01*
X200556646Y-69398548D01*
X200522266Y-69400112D01*
X200489334Y-69380267D01*
X200482355Y-69372191D01*
X200476883Y-69361593D01*
X200472863Y-69345749D01*
X200470072Y-69321773D01*
X200468288Y-69286774D01*
X200467289Y-69237864D01*
X200466852Y-69172154D01*
X200466756Y-69086756D01*
X200466756Y-68815822D01*
X200320820Y-68815822D01*
X200309720Y-68815821D01*
X200253202Y-68815596D01*
X200214358Y-68814457D01*
X200188965Y-68811657D01*
X200172804Y-68806450D01*
X200161652Y-68798089D01*
X200151289Y-68785826D01*
X200135441Y-68755138D01*
X200138543Y-68721358D01*
X200164187Y-68688822D01*
X200169129Y-68685105D01*
X200179338Y-68680269D01*
X200194764Y-68676506D01*
X200217886Y-68673683D01*
X200251183Y-68671670D01*
X200297137Y-68670333D01*
X200358228Y-68669542D01*
X200436935Y-68669163D01*
X200535740Y-68669067D01*
X200555767Y-68669068D01*
G37*
X199879734Y-68691645D02*
X199885366Y-68697835D01*
X199890456Y-68706041D01*
X199894543Y-68717817D01*
X199897721Y-68735276D01*
X199900087Y-68760530D01*
X199901738Y-68795690D01*
X199902769Y-68842869D01*
X199903277Y-68904177D01*
X199903359Y-68981727D01*
X199903109Y-69077631D01*
X199902625Y-69194000D01*
X199902557Y-69208175D01*
X199901971Y-69269937D01*
X199900648Y-69313620D01*
X199898103Y-69343001D01*
X199893848Y-69361855D01*
X199887396Y-69373959D01*
X199878262Y-69383089D01*
X199844804Y-69400506D01*
X199809856Y-69397604D01*
X199778953Y-69373100D01*
X199769944Y-69359897D01*
X199762492Y-69341361D01*
X199758124Y-69315333D01*
X199756069Y-69276787D01*
X199755556Y-69220700D01*
X199755556Y-69098045D01*
X199258845Y-69098045D01*
X199258845Y-69232871D01*
X199258772Y-69268662D01*
X199258009Y-69314992D01*
X199255833Y-69345526D01*
X199251536Y-69364557D01*
X199244412Y-69376374D01*
X199233755Y-69385271D01*
X199201504Y-69400341D01*
X199166217Y-69397673D01*
X199135486Y-69373100D01*
X199130831Y-69366845D01*
X199124895Y-69356321D01*
X199120364Y-69342391D01*
X199117048Y-69322317D01*
X199114759Y-69293360D01*
X199113308Y-69252780D01*
X199112505Y-69197840D01*
X199112162Y-69125799D01*
X199112089Y-69033920D01*
X199112089Y-68724485D01*
X199139798Y-68696776D01*
X199171177Y-68674533D01*
X199204406Y-68671844D01*
X199236267Y-68691645D01*
X199244553Y-68701415D01*
X199251965Y-68717307D01*
X199256302Y-68741275D01*
X199258338Y-68778148D01*
X199258845Y-68832756D01*
X199258845Y-68951289D01*
X199755556Y-68951289D01*
X199755556Y-68835776D01*
X199755994Y-68784078D01*
X199757958Y-68749554D01*
X199762474Y-68726978D01*
X199770567Y-68711126D01*
X199783265Y-68696776D01*
X199814643Y-68674533D01*
X199847872Y-68671844D01*
X199879734Y-68691645D01*
G36*
X199879734Y-68691645D02*
G01*
X199885366Y-68697835D01*
X199890456Y-68706041D01*
X199894543Y-68717817D01*
X199897721Y-68735276D01*
X199900087Y-68760530D01*
X199901738Y-68795690D01*
X199902769Y-68842869D01*
X199903277Y-68904177D01*
X199903359Y-68981727D01*
X199903109Y-69077631D01*
X199902625Y-69194000D01*
X199902557Y-69208175D01*
X199901971Y-69269937D01*
X199900648Y-69313620D01*
X199898103Y-69343001D01*
X199893848Y-69361855D01*
X199887396Y-69373959D01*
X199878262Y-69383089D01*
X199844804Y-69400506D01*
X199809856Y-69397604D01*
X199778953Y-69373100D01*
X199769944Y-69359897D01*
X199762492Y-69341361D01*
X199758124Y-69315333D01*
X199756069Y-69276787D01*
X199755556Y-69220700D01*
X199755556Y-69098045D01*
X199258845Y-69098045D01*
X199258845Y-69232871D01*
X199258772Y-69268662D01*
X199258009Y-69314992D01*
X199255833Y-69345526D01*
X199251536Y-69364557D01*
X199244412Y-69376374D01*
X199233755Y-69385271D01*
X199201504Y-69400341D01*
X199166217Y-69397673D01*
X199135486Y-69373100D01*
X199130831Y-69366845D01*
X199124895Y-69356321D01*
X199120364Y-69342391D01*
X199117048Y-69322317D01*
X199114759Y-69293360D01*
X199113308Y-69252780D01*
X199112505Y-69197840D01*
X199112162Y-69125799D01*
X199112089Y-69033920D01*
X199112089Y-68724485D01*
X199139798Y-68696776D01*
X199171177Y-68674533D01*
X199204406Y-68671844D01*
X199236267Y-68691645D01*
X199244553Y-68701415D01*
X199251965Y-68717307D01*
X199256302Y-68741275D01*
X199258338Y-68778148D01*
X199258845Y-68832756D01*
X199258845Y-68951289D01*
X199755556Y-68951289D01*
X199755556Y-68835776D01*
X199755994Y-68784078D01*
X199757958Y-68749554D01*
X199762474Y-68726978D01*
X199770567Y-68711126D01*
X199783265Y-68696776D01*
X199814643Y-68674533D01*
X199847872Y-68671844D01*
X199879734Y-68691645D01*
G37*
X204585133Y-69280396D02*
X204583163Y-69313175D01*
X204580235Y-69336095D01*
X204576158Y-69351897D01*
X204570743Y-69363319D01*
X204563803Y-69373100D01*
X204540406Y-69402845D01*
X204374714Y-69402251D01*
X204339918Y-69401953D01*
X204241435Y-69398522D01*
X204160473Y-69390839D01*
X204093379Y-69378282D01*
X204036496Y-69360227D01*
X203986169Y-69336052D01*
X203982810Y-69334135D01*
X203924998Y-69297417D01*
X203882644Y-69260451D01*
X203849828Y-69216966D01*
X203820628Y-69160689D01*
X203816346Y-69151073D01*
X203793769Y-69087887D01*
X203788034Y-69042333D01*
X203937279Y-69042333D01*
X203942892Y-69067061D01*
X203948618Y-69082939D01*
X203981548Y-69142847D01*
X204028886Y-69188600D01*
X204092652Y-69221736D01*
X204174861Y-69243790D01*
X204177655Y-69244292D01*
X204223940Y-69250255D01*
X204280336Y-69254483D01*
X204335274Y-69256089D01*
X204429156Y-69256089D01*
X204429156Y-68815822D01*
X204341667Y-68816270D01*
X204274747Y-68818746D01*
X204182349Y-68829998D01*
X204103034Y-68849537D01*
X204041060Y-68876511D01*
X204010120Y-68897240D01*
X203982000Y-68927006D01*
X203958660Y-68969434D01*
X203951533Y-68985400D01*
X203939709Y-69017902D01*
X203937279Y-69042333D01*
X203788034Y-69042333D01*
X203786797Y-69032509D01*
X203795399Y-68977483D01*
X203819541Y-68915351D01*
X203820337Y-68913658D01*
X203860788Y-68844236D01*
X203911473Y-68787638D01*
X203974198Y-68743070D01*
X204050774Y-68709741D01*
X204143009Y-68686861D01*
X204252712Y-68673636D01*
X204381691Y-68669275D01*
X204385263Y-68669270D01*
X204445283Y-68669410D01*
X204487214Y-68670446D01*
X204515328Y-68673040D01*
X204533897Y-68677853D01*
X204547194Y-68685544D01*
X204559491Y-68696776D01*
X204587200Y-68724485D01*
X204587200Y-69033920D01*
X204587175Y-69095526D01*
X204586950Y-69174311D01*
X204586332Y-69235021D01*
X204585775Y-69256089D01*
X204585133Y-69280396D01*
G36*
X204585133Y-69280396D02*
G01*
X204583163Y-69313175D01*
X204580235Y-69336095D01*
X204576158Y-69351897D01*
X204570743Y-69363319D01*
X204563803Y-69373100D01*
X204540406Y-69402845D01*
X204374714Y-69402251D01*
X204339918Y-69401953D01*
X204241435Y-69398522D01*
X204160473Y-69390839D01*
X204093379Y-69378282D01*
X204036496Y-69360227D01*
X203986169Y-69336052D01*
X203982810Y-69334135D01*
X203924998Y-69297417D01*
X203882644Y-69260451D01*
X203849828Y-69216966D01*
X203820628Y-69160689D01*
X203816346Y-69151073D01*
X203793769Y-69087887D01*
X203788034Y-69042333D01*
X203937279Y-69042333D01*
X203942892Y-69067061D01*
X203948618Y-69082939D01*
X203981548Y-69142847D01*
X204028886Y-69188600D01*
X204092652Y-69221736D01*
X204174861Y-69243790D01*
X204177655Y-69244292D01*
X204223940Y-69250255D01*
X204280336Y-69254483D01*
X204335274Y-69256089D01*
X204429156Y-69256089D01*
X204429156Y-68815822D01*
X204341667Y-68816270D01*
X204274747Y-68818746D01*
X204182349Y-68829998D01*
X204103034Y-68849537D01*
X204041060Y-68876511D01*
X204010120Y-68897240D01*
X203982000Y-68927006D01*
X203958660Y-68969434D01*
X203951533Y-68985400D01*
X203939709Y-69017902D01*
X203937279Y-69042333D01*
X203788034Y-69042333D01*
X203786797Y-69032509D01*
X203795399Y-68977483D01*
X203819541Y-68915351D01*
X203820337Y-68913658D01*
X203860788Y-68844236D01*
X203911473Y-68787638D01*
X203974198Y-68743070D01*
X204050774Y-68709741D01*
X204143009Y-68686861D01*
X204252712Y-68673636D01*
X204381691Y-68669275D01*
X204385263Y-68669270D01*
X204445283Y-68669410D01*
X204487214Y-68670446D01*
X204515328Y-68673040D01*
X204533897Y-68677853D01*
X204547194Y-68685544D01*
X204559491Y-68696776D01*
X204587200Y-68724485D01*
X204587200Y-69033920D01*
X204587175Y-69095526D01*
X204586950Y-69174311D01*
X204586332Y-69235021D01*
X204585775Y-69256089D01*
X204585133Y-69280396D01*
G37*
X211676817Y-68854427D02*
X211676870Y-68935041D01*
X211676622Y-69035956D01*
X211676583Y-69111617D01*
X211676328Y-69189526D01*
X211675684Y-69249536D01*
X211674480Y-69294264D01*
X211672543Y-69326326D01*
X211669703Y-69348340D01*
X211665788Y-69362924D01*
X211660626Y-69372694D01*
X211654045Y-69380267D01*
X211647077Y-69386501D01*
X211634079Y-69393801D01*
X211614931Y-69398554D01*
X211585528Y-69401292D01*
X211541762Y-69402545D01*
X211479528Y-69402845D01*
X211430582Y-69402469D01*
X211323722Y-69398041D01*
X211234494Y-69387953D01*
X211159696Y-69371365D01*
X211096125Y-69347435D01*
X211040579Y-69315321D01*
X210989854Y-69274182D01*
X210983866Y-69268330D01*
X210946999Y-69219821D01*
X210915899Y-69159013D01*
X210894417Y-69094769D01*
X210889136Y-69056026D01*
X211036353Y-69056026D01*
X211054635Y-69106961D01*
X211084305Y-69152878D01*
X211131002Y-69195287D01*
X211192392Y-69225090D01*
X211271538Y-69244226D01*
X211273028Y-69244464D01*
X211321999Y-69250256D01*
X211380693Y-69254396D01*
X211436734Y-69256004D01*
X211529867Y-69256089D01*
X211529867Y-68815822D01*
X211453667Y-68815808D01*
X211450639Y-68815817D01*
X211399519Y-68817782D01*
X211339416Y-68822507D01*
X211282708Y-68829035D01*
X211232750Y-68838331D01*
X211157998Y-68864600D01*
X211100489Y-68903899D01*
X211058988Y-68956933D01*
X211037771Y-69008200D01*
X211036353Y-69056026D01*
X210889136Y-69056026D01*
X210886400Y-69035956D01*
X210887679Y-69014739D01*
X210899991Y-68957323D01*
X210922520Y-68897413D01*
X210951750Y-68843363D01*
X210984167Y-68803532D01*
X211003708Y-68786510D01*
X211058420Y-68747322D01*
X211118723Y-68717193D01*
X211187919Y-68695232D01*
X211269311Y-68680550D01*
X211366200Y-68672259D01*
X211481889Y-68669467D01*
X211521371Y-68669066D01*
X211567082Y-68668653D01*
X211602883Y-68670457D01*
X211629974Y-68676739D01*
X211649556Y-68689759D01*
X211662830Y-68711778D01*
X211670998Y-68745055D01*
X211675260Y-68791851D01*
X211675857Y-68815822D01*
X211676817Y-68854427D01*
G36*
X211676817Y-68854427D02*
G01*
X211676870Y-68935041D01*
X211676622Y-69035956D01*
X211676583Y-69111617D01*
X211676328Y-69189526D01*
X211675684Y-69249536D01*
X211674480Y-69294264D01*
X211672543Y-69326326D01*
X211669703Y-69348340D01*
X211665788Y-69362924D01*
X211660626Y-69372694D01*
X211654045Y-69380267D01*
X211647077Y-69386501D01*
X211634079Y-69393801D01*
X211614931Y-69398554D01*
X211585528Y-69401292D01*
X211541762Y-69402545D01*
X211479528Y-69402845D01*
X211430582Y-69402469D01*
X211323722Y-69398041D01*
X211234494Y-69387953D01*
X211159696Y-69371365D01*
X211096125Y-69347435D01*
X211040579Y-69315321D01*
X210989854Y-69274182D01*
X210983866Y-69268330D01*
X210946999Y-69219821D01*
X210915899Y-69159013D01*
X210894417Y-69094769D01*
X210889136Y-69056026D01*
X211036353Y-69056026D01*
X211054635Y-69106961D01*
X211084305Y-69152878D01*
X211131002Y-69195287D01*
X211192392Y-69225090D01*
X211271538Y-69244226D01*
X211273028Y-69244464D01*
X211321999Y-69250256D01*
X211380693Y-69254396D01*
X211436734Y-69256004D01*
X211529867Y-69256089D01*
X211529867Y-68815822D01*
X211453667Y-68815808D01*
X211450639Y-68815817D01*
X211399519Y-68817782D01*
X211339416Y-68822507D01*
X211282708Y-68829035D01*
X211232750Y-68838331D01*
X211157998Y-68864600D01*
X211100489Y-68903899D01*
X211058988Y-68956933D01*
X211037771Y-69008200D01*
X211036353Y-69056026D01*
X210889136Y-69056026D01*
X210886400Y-69035956D01*
X210887679Y-69014739D01*
X210899991Y-68957323D01*
X210922520Y-68897413D01*
X210951750Y-68843363D01*
X210984167Y-68803532D01*
X211003708Y-68786510D01*
X211058420Y-68747322D01*
X211118723Y-68717193D01*
X211187919Y-68695232D01*
X211269311Y-68680550D01*
X211366200Y-68672259D01*
X211481889Y-68669467D01*
X211521371Y-68669066D01*
X211567082Y-68668653D01*
X211602883Y-68670457D01*
X211629974Y-68676739D01*
X211649556Y-68689759D01*
X211662830Y-68711778D01*
X211670998Y-68745055D01*
X211675260Y-68791851D01*
X211675857Y-68815822D01*
X211676817Y-68854427D01*
G37*
X206731893Y-68667892D02*
X206743301Y-68674029D01*
X206753850Y-68684691D01*
X206765136Y-68698811D01*
X206769589Y-68704772D01*
X206775588Y-68715268D01*
X206780167Y-68729093D01*
X206783519Y-68748998D01*
X206785833Y-68777732D01*
X206787301Y-68818045D01*
X206788113Y-68872687D01*
X206788460Y-68944407D01*
X206788534Y-69035956D01*
X206788511Y-69094486D01*
X206788292Y-69173573D01*
X206787683Y-69234516D01*
X206786492Y-69280062D01*
X206784529Y-69312963D01*
X206781603Y-69335968D01*
X206777523Y-69351826D01*
X206772097Y-69363286D01*
X206765136Y-69373100D01*
X206734708Y-69397493D01*
X206699765Y-69400372D01*
X206662784Y-69381282D01*
X206658600Y-69377807D01*
X206650424Y-69369279D01*
X206644364Y-69357728D01*
X206639981Y-69339896D01*
X206636839Y-69312524D01*
X206634502Y-69272354D01*
X206632531Y-69216128D01*
X206630489Y-69140589D01*
X206624845Y-68921458D01*
X206359556Y-69162099D01*
X206285722Y-69228875D01*
X206220542Y-69286991D01*
X206168348Y-69331949D01*
X206127273Y-69364871D01*
X206095455Y-69386879D01*
X206071026Y-69399094D01*
X206052124Y-69402639D01*
X206036883Y-69398636D01*
X206023439Y-69388207D01*
X206009927Y-69372474D01*
X206003682Y-69363991D01*
X205998050Y-69353413D01*
X205993839Y-69339255D01*
X205990887Y-69318803D01*
X205989032Y-69289342D01*
X205988113Y-69248161D01*
X205987968Y-69192544D01*
X205988435Y-69119779D01*
X205989352Y-69027151D01*
X205992667Y-68712199D01*
X206019318Y-68690633D01*
X206045383Y-68674441D01*
X206078241Y-68671670D01*
X206112772Y-68690623D01*
X206117084Y-68694208D01*
X206125216Y-68702737D01*
X206131245Y-68714329D01*
X206135606Y-68732235D01*
X206138734Y-68759706D01*
X206141063Y-68799994D01*
X206143029Y-68856351D01*
X206145067Y-68932029D01*
X206150711Y-69151878D01*
X206331334Y-68988084D01*
X206418072Y-68909451D01*
X206493843Y-68841058D01*
X206555980Y-68785708D01*
X206606078Y-68742338D01*
X206645735Y-68709881D01*
X206676548Y-68687273D01*
X206700114Y-68673448D01*
X206718030Y-68667343D01*
X206731893Y-68667892D01*
G36*
X206731893Y-68667892D02*
G01*
X206743301Y-68674029D01*
X206753850Y-68684691D01*
X206765136Y-68698811D01*
X206769589Y-68704772D01*
X206775588Y-68715268D01*
X206780167Y-68729093D01*
X206783519Y-68748998D01*
X206785833Y-68777732D01*
X206787301Y-68818045D01*
X206788113Y-68872687D01*
X206788460Y-68944407D01*
X206788534Y-69035956D01*
X206788511Y-69094486D01*
X206788292Y-69173573D01*
X206787683Y-69234516D01*
X206786492Y-69280062D01*
X206784529Y-69312963D01*
X206781603Y-69335968D01*
X206777523Y-69351826D01*
X206772097Y-69363286D01*
X206765136Y-69373100D01*
X206734708Y-69397493D01*
X206699765Y-69400372D01*
X206662784Y-69381282D01*
X206658600Y-69377807D01*
X206650424Y-69369279D01*
X206644364Y-69357728D01*
X206639981Y-69339896D01*
X206636839Y-69312524D01*
X206634502Y-69272354D01*
X206632531Y-69216128D01*
X206630489Y-69140589D01*
X206624845Y-68921458D01*
X206359556Y-69162099D01*
X206285722Y-69228875D01*
X206220542Y-69286991D01*
X206168348Y-69331949D01*
X206127273Y-69364871D01*
X206095455Y-69386879D01*
X206071026Y-69399094D01*
X206052124Y-69402639D01*
X206036883Y-69398636D01*
X206023439Y-69388207D01*
X206009927Y-69372474D01*
X206003682Y-69363991D01*
X205998050Y-69353413D01*
X205993839Y-69339255D01*
X205990887Y-69318803D01*
X205989032Y-69289342D01*
X205988113Y-69248161D01*
X205987968Y-69192544D01*
X205988435Y-69119779D01*
X205989352Y-69027151D01*
X205992667Y-68712199D01*
X206019318Y-68690633D01*
X206045383Y-68674441D01*
X206078241Y-68671670D01*
X206112772Y-68690623D01*
X206117084Y-68694208D01*
X206125216Y-68702737D01*
X206131245Y-68714329D01*
X206135606Y-68732235D01*
X206138734Y-68759706D01*
X206141063Y-68799994D01*
X206143029Y-68856351D01*
X206145067Y-68932029D01*
X206150711Y-69151878D01*
X206331334Y-68988084D01*
X206418072Y-68909451D01*
X206493843Y-68841058D01*
X206555980Y-68785708D01*
X206606078Y-68742338D01*
X206645735Y-68709881D01*
X206676548Y-68687273D01*
X206700114Y-68673448D01*
X206718030Y-68667343D01*
X206731893Y-68667892D01*
G37*
X207529150Y-68674179D02*
X207635157Y-68690494D01*
X207728969Y-68718545D01*
X207807765Y-68757452D01*
X207868719Y-68806334D01*
X207894789Y-68839195D01*
X207924297Y-68888394D01*
X207949568Y-68942252D01*
X207967218Y-68993419D01*
X207973858Y-69034544D01*
X207972298Y-69054259D01*
X207959357Y-69105592D01*
X207936194Y-69162118D01*
X207906302Y-69216035D01*
X207873173Y-69259539D01*
X207862977Y-69269887D01*
X207795892Y-69321662D01*
X207715766Y-69361554D01*
X207629556Y-69385956D01*
X207574592Y-69394068D01*
X207481139Y-69400673D01*
X207391358Y-69398586D01*
X207308869Y-69388340D01*
X207237286Y-69370470D01*
X207180228Y-69345508D01*
X207141311Y-69313988D01*
X207139936Y-69312012D01*
X207132848Y-69286786D01*
X207128609Y-69239535D01*
X207127200Y-69170071D01*
X207128060Y-69107838D01*
X207132780Y-69060456D01*
X207144470Y-69028353D01*
X207166239Y-69008800D01*
X207201198Y-68999070D01*
X207252456Y-68996433D01*
X207323123Y-68998161D01*
X207371743Y-69001173D01*
X207421939Y-69009366D01*
X207454433Y-69023419D01*
X207471892Y-69044654D01*
X207476983Y-69074394D01*
X207476877Y-69078936D01*
X207468175Y-69113730D01*
X207444165Y-69137147D01*
X207402900Y-69150347D01*
X207342431Y-69154489D01*
X207273956Y-69154489D01*
X207273956Y-69192841D01*
X207274006Y-69201976D01*
X207276227Y-69219227D01*
X207285494Y-69229521D01*
X207306875Y-69236459D01*
X207345436Y-69243641D01*
X207350910Y-69244575D01*
X207447860Y-69254478D01*
X207537852Y-69251559D01*
X207618760Y-69236829D01*
X207688459Y-69211299D01*
X207744824Y-69175978D01*
X207785729Y-69131879D01*
X207809051Y-69080012D01*
X207812663Y-69021388D01*
X207807145Y-68992494D01*
X207780461Y-68936604D01*
X207734273Y-68890945D01*
X207669291Y-68856108D01*
X207586229Y-68832690D01*
X207561555Y-68828241D01*
X207472226Y-68817742D01*
X207392419Y-68818971D01*
X207314326Y-68831906D01*
X207279183Y-68838696D01*
X207233745Y-68839713D01*
X207202430Y-68827182D01*
X207182277Y-68800395D01*
X207175893Y-68772148D01*
X207185379Y-68740924D01*
X207194708Y-68727499D01*
X207228943Y-68703967D01*
X207281565Y-68686095D01*
X207350081Y-68674599D01*
X207432000Y-68670192D01*
X207529150Y-68674179D01*
G36*
X207529150Y-68674179D02*
G01*
X207635157Y-68690494D01*
X207728969Y-68718545D01*
X207807765Y-68757452D01*
X207868719Y-68806334D01*
X207894789Y-68839195D01*
X207924297Y-68888394D01*
X207949568Y-68942252D01*
X207967218Y-68993419D01*
X207973858Y-69034544D01*
X207972298Y-69054259D01*
X207959357Y-69105592D01*
X207936194Y-69162118D01*
X207906302Y-69216035D01*
X207873173Y-69259539D01*
X207862977Y-69269887D01*
X207795892Y-69321662D01*
X207715766Y-69361554D01*
X207629556Y-69385956D01*
X207574592Y-69394068D01*
X207481139Y-69400673D01*
X207391358Y-69398586D01*
X207308869Y-69388340D01*
X207237286Y-69370470D01*
X207180228Y-69345508D01*
X207141311Y-69313988D01*
X207139936Y-69312012D01*
X207132848Y-69286786D01*
X207128609Y-69239535D01*
X207127200Y-69170071D01*
X207128060Y-69107838D01*
X207132780Y-69060456D01*
X207144470Y-69028353D01*
X207166239Y-69008800D01*
X207201198Y-68999070D01*
X207252456Y-68996433D01*
X207323123Y-68998161D01*
X207371743Y-69001173D01*
X207421939Y-69009366D01*
X207454433Y-69023419D01*
X207471892Y-69044654D01*
X207476983Y-69074394D01*
X207476877Y-69078936D01*
X207468175Y-69113730D01*
X207444165Y-69137147D01*
X207402900Y-69150347D01*
X207342431Y-69154489D01*
X207273956Y-69154489D01*
X207273956Y-69192841D01*
X207274006Y-69201976D01*
X207276227Y-69219227D01*
X207285494Y-69229521D01*
X207306875Y-69236459D01*
X207345436Y-69243641D01*
X207350910Y-69244575D01*
X207447860Y-69254478D01*
X207537852Y-69251559D01*
X207618760Y-69236829D01*
X207688459Y-69211299D01*
X207744824Y-69175978D01*
X207785729Y-69131879D01*
X207809051Y-69080012D01*
X207812663Y-69021388D01*
X207807145Y-68992494D01*
X207780461Y-68936604D01*
X207734273Y-68890945D01*
X207669291Y-68856108D01*
X207586229Y-68832690D01*
X207561555Y-68828241D01*
X207472226Y-68817742D01*
X207392419Y-68818971D01*
X207314326Y-68831906D01*
X207279183Y-68838696D01*
X207233745Y-68839713D01*
X207202430Y-68827182D01*
X207182277Y-68800395D01*
X207175893Y-68772148D01*
X207185379Y-68740924D01*
X207194708Y-68727499D01*
X207228943Y-68703967D01*
X207281565Y-68686095D01*
X207350081Y-68674599D01*
X207432000Y-68670192D01*
X207529150Y-68674179D01*
G37*
X205579803Y-68698811D02*
X205584752Y-68705495D01*
X205590596Y-68716066D01*
X205595057Y-68730153D01*
X205598321Y-68750478D01*
X205600574Y-68779765D01*
X205602002Y-68820737D01*
X205602792Y-68876117D01*
X205603129Y-68948628D01*
X205603200Y-69040994D01*
X205603171Y-69106911D01*
X205602939Y-69185228D01*
X205602319Y-69245496D01*
X205601126Y-69290393D01*
X205599179Y-69322602D01*
X205596294Y-69344800D01*
X205592288Y-69359669D01*
X205586979Y-69369889D01*
X205580183Y-69378138D01*
X205575668Y-69382795D01*
X205567438Y-69389282D01*
X205556078Y-69394194D01*
X205538810Y-69397749D01*
X205512855Y-69400167D01*
X205475436Y-69401667D01*
X205423773Y-69402467D01*
X205355089Y-69402787D01*
X205266606Y-69402845D01*
X205246931Y-69402838D01*
X205159906Y-69402572D01*
X205092254Y-69401806D01*
X205041299Y-69400392D01*
X205004367Y-69398180D01*
X204978783Y-69395022D01*
X204961871Y-69390769D01*
X204950957Y-69385271D01*
X204940464Y-69375285D01*
X204927203Y-69344168D01*
X204928386Y-69308280D01*
X204944550Y-69276733D01*
X204946739Y-69274457D01*
X204955427Y-69268189D01*
X204968769Y-69263523D01*
X204989752Y-69260227D01*
X205021363Y-69258068D01*
X205066590Y-69256814D01*
X205128420Y-69256231D01*
X205209839Y-69256089D01*
X205456445Y-69256089D01*
X205456445Y-69098045D01*
X205294006Y-69098045D01*
X205258338Y-69097964D01*
X205202568Y-69097167D01*
X205163430Y-69095162D01*
X205136976Y-69091521D01*
X205119259Y-69085812D01*
X205106329Y-69077607D01*
X205102686Y-69074423D01*
X205084278Y-69043448D01*
X205083644Y-69007112D01*
X205101183Y-68973493D01*
X205101245Y-68973424D01*
X205110916Y-68964798D01*
X205124209Y-68958742D01*
X205144917Y-68954811D01*
X205176828Y-68952556D01*
X205223734Y-68951531D01*
X205289424Y-68951289D01*
X205457571Y-68951289D01*
X205454186Y-68886378D01*
X205450800Y-68821467D01*
X205208723Y-68818414D01*
X205183707Y-68818086D01*
X205102087Y-68816606D01*
X205039768Y-68814222D01*
X204994154Y-68810227D01*
X204962652Y-68803913D01*
X204942667Y-68794574D01*
X204931604Y-68781503D01*
X204926869Y-68763992D01*
X204925867Y-68741335D01*
X204925873Y-68738970D01*
X204927027Y-68718939D01*
X204931824Y-68703146D01*
X204942632Y-68691090D01*
X204961817Y-68682267D01*
X204991745Y-68676175D01*
X205034783Y-68672311D01*
X205093299Y-68670174D01*
X205169657Y-68669260D01*
X205266226Y-68669067D01*
X205556406Y-68669067D01*
X205579803Y-68698811D01*
G36*
X205579803Y-68698811D02*
G01*
X205584752Y-68705495D01*
X205590596Y-68716066D01*
X205595057Y-68730153D01*
X205598321Y-68750478D01*
X205600574Y-68779765D01*
X205602002Y-68820737D01*
X205602792Y-68876117D01*
X205603129Y-68948628D01*
X205603200Y-69040994D01*
X205603171Y-69106911D01*
X205602939Y-69185228D01*
X205602319Y-69245496D01*
X205601126Y-69290393D01*
X205599179Y-69322602D01*
X205596294Y-69344800D01*
X205592288Y-69359669D01*
X205586979Y-69369889D01*
X205580183Y-69378138D01*
X205575668Y-69382795D01*
X205567438Y-69389282D01*
X205556078Y-69394194D01*
X205538810Y-69397749D01*
X205512855Y-69400167D01*
X205475436Y-69401667D01*
X205423773Y-69402467D01*
X205355089Y-69402787D01*
X205266606Y-69402845D01*
X205246931Y-69402838D01*
X205159906Y-69402572D01*
X205092254Y-69401806D01*
X205041299Y-69400392D01*
X205004367Y-69398180D01*
X204978783Y-69395022D01*
X204961871Y-69390769D01*
X204950957Y-69385271D01*
X204940464Y-69375285D01*
X204927203Y-69344168D01*
X204928386Y-69308280D01*
X204944550Y-69276733D01*
X204946739Y-69274457D01*
X204955427Y-69268189D01*
X204968769Y-69263523D01*
X204989752Y-69260227D01*
X205021363Y-69258068D01*
X205066590Y-69256814D01*
X205128420Y-69256231D01*
X205209839Y-69256089D01*
X205456445Y-69256089D01*
X205456445Y-69098045D01*
X205294006Y-69098045D01*
X205258338Y-69097964D01*
X205202568Y-69097167D01*
X205163430Y-69095162D01*
X205136976Y-69091521D01*
X205119259Y-69085812D01*
X205106329Y-69077607D01*
X205102686Y-69074423D01*
X205084278Y-69043448D01*
X205083644Y-69007112D01*
X205101183Y-68973493D01*
X205101245Y-68973424D01*
X205110916Y-68964798D01*
X205124209Y-68958742D01*
X205144917Y-68954811D01*
X205176828Y-68952556D01*
X205223734Y-68951531D01*
X205289424Y-68951289D01*
X205457571Y-68951289D01*
X205454186Y-68886378D01*
X205450800Y-68821467D01*
X205208723Y-68818414D01*
X205183707Y-68818086D01*
X205102087Y-68816606D01*
X205039768Y-68814222D01*
X204994154Y-68810227D01*
X204962652Y-68803913D01*
X204942667Y-68794574D01*
X204931604Y-68781503D01*
X204926869Y-68763992D01*
X204925867Y-68741335D01*
X204925873Y-68738970D01*
X204927027Y-68718939D01*
X204931824Y-68703146D01*
X204942632Y-68691090D01*
X204961817Y-68682267D01*
X204991745Y-68676175D01*
X205034783Y-68672311D01*
X205093299Y-68670174D01*
X205169657Y-68669260D01*
X205266226Y-68669067D01*
X205556406Y-68669067D01*
X205579803Y-68698811D01*
G37*
X210256734Y-68669083D02*
X210333831Y-68669275D01*
X210392777Y-68669860D01*
X210436364Y-68671051D01*
X210467383Y-68673064D01*
X210488625Y-68676112D01*
X210502882Y-68680409D01*
X210512945Y-68686172D01*
X210521606Y-68693612D01*
X210523391Y-68695293D01*
X210530635Y-68702832D01*
X210536277Y-68711850D01*
X210540517Y-68724984D01*
X210543556Y-68744872D01*
X210545594Y-68774151D01*
X210546830Y-68815458D01*
X210547465Y-68871431D01*
X210547700Y-68944707D01*
X210547734Y-69037923D01*
X210547697Y-69110713D01*
X210547448Y-69188889D01*
X210546812Y-69249103D01*
X210545615Y-69293982D01*
X210543684Y-69326152D01*
X210540846Y-69348239D01*
X210536927Y-69362870D01*
X210531755Y-69372670D01*
X210525156Y-69380267D01*
X210521822Y-69383444D01*
X210513300Y-69389554D01*
X210501298Y-69394229D01*
X210483087Y-69397659D01*
X210455940Y-69400036D01*
X210417129Y-69401552D01*
X210363924Y-69402398D01*
X210293598Y-69402765D01*
X210203422Y-69402845D01*
X210161314Y-69402833D01*
X210080167Y-69402651D01*
X210017675Y-69402098D01*
X209971109Y-69400982D01*
X209937741Y-69399113D01*
X209914844Y-69396298D01*
X209899688Y-69392346D01*
X209889546Y-69387066D01*
X209881689Y-69380267D01*
X209866963Y-69358667D01*
X209859111Y-69329467D01*
X209864610Y-69305560D01*
X209881689Y-69278667D01*
X209886668Y-69274059D01*
X209896443Y-69267772D01*
X209910559Y-69263146D01*
X209932054Y-69259930D01*
X209963968Y-69257870D01*
X210009342Y-69256712D01*
X210071213Y-69256202D01*
X210152622Y-69256089D01*
X210400978Y-69256089D01*
X210400978Y-69098045D01*
X210239801Y-69098045D01*
X210203983Y-69097899D01*
X210138359Y-69096176D01*
X210091118Y-69091741D01*
X210059383Y-69083637D01*
X210040277Y-69070906D01*
X210030923Y-69052592D01*
X210028445Y-69027738D01*
X210029242Y-69007482D01*
X210034494Y-68985656D01*
X210047288Y-68970304D01*
X210070628Y-68960309D01*
X210107517Y-68954553D01*
X210160959Y-68951919D01*
X210233958Y-68951289D01*
X210402105Y-68951289D01*
X210398719Y-68886378D01*
X210395334Y-68821467D01*
X210147617Y-68818418D01*
X210085026Y-68817539D01*
X210016565Y-68816095D01*
X209965661Y-68814164D01*
X209929408Y-68811514D01*
X209904901Y-68807910D01*
X209889235Y-68803121D01*
X209879506Y-68796913D01*
X209873491Y-68790510D01*
X209860482Y-68758828D01*
X209864043Y-68723142D01*
X209883818Y-68692084D01*
X209887069Y-68689161D01*
X209896049Y-68682810D01*
X209908153Y-68677957D01*
X209926159Y-68674403D01*
X209952847Y-68671946D01*
X209990997Y-68670385D01*
X210043386Y-68669518D01*
X210112794Y-68669146D01*
X210202001Y-68669067D01*
X210256734Y-68669083D01*
G36*
X210256734Y-68669083D02*
G01*
X210333831Y-68669275D01*
X210392777Y-68669860D01*
X210436364Y-68671051D01*
X210467383Y-68673064D01*
X210488625Y-68676112D01*
X210502882Y-68680409D01*
X210512945Y-68686172D01*
X210521606Y-68693612D01*
X210523391Y-68695293D01*
X210530635Y-68702832D01*
X210536277Y-68711850D01*
X210540517Y-68724984D01*
X210543556Y-68744872D01*
X210545594Y-68774151D01*
X210546830Y-68815458D01*
X210547465Y-68871431D01*
X210547700Y-68944707D01*
X210547734Y-69037923D01*
X210547697Y-69110713D01*
X210547448Y-69188889D01*
X210546812Y-69249103D01*
X210545615Y-69293982D01*
X210543684Y-69326152D01*
X210540846Y-69348239D01*
X210536927Y-69362870D01*
X210531755Y-69372670D01*
X210525156Y-69380267D01*
X210521822Y-69383444D01*
X210513300Y-69389554D01*
X210501298Y-69394229D01*
X210483087Y-69397659D01*
X210455940Y-69400036D01*
X210417129Y-69401552D01*
X210363924Y-69402398D01*
X210293598Y-69402765D01*
X210203422Y-69402845D01*
X210161314Y-69402833D01*
X210080167Y-69402651D01*
X210017675Y-69402098D01*
X209971109Y-69400982D01*
X209937741Y-69399113D01*
X209914844Y-69396298D01*
X209899688Y-69392346D01*
X209889546Y-69387066D01*
X209881689Y-69380267D01*
X209866963Y-69358667D01*
X209859111Y-69329467D01*
X209864610Y-69305560D01*
X209881689Y-69278667D01*
X209886668Y-69274059D01*
X209896443Y-69267772D01*
X209910559Y-69263146D01*
X209932054Y-69259930D01*
X209963968Y-69257870D01*
X210009342Y-69256712D01*
X210071213Y-69256202D01*
X210152622Y-69256089D01*
X210400978Y-69256089D01*
X210400978Y-69098045D01*
X210239801Y-69098045D01*
X210203983Y-69097899D01*
X210138359Y-69096176D01*
X210091118Y-69091741D01*
X210059383Y-69083637D01*
X210040277Y-69070906D01*
X210030923Y-69052592D01*
X210028445Y-69027738D01*
X210029242Y-69007482D01*
X210034494Y-68985656D01*
X210047288Y-68970304D01*
X210070628Y-68960309D01*
X210107517Y-68954553D01*
X210160959Y-68951919D01*
X210233958Y-68951289D01*
X210402105Y-68951289D01*
X210398719Y-68886378D01*
X210395334Y-68821467D01*
X210147617Y-68818418D01*
X210085026Y-68817539D01*
X210016565Y-68816095D01*
X209965661Y-68814164D01*
X209929408Y-68811514D01*
X209904901Y-68807910D01*
X209889235Y-68803121D01*
X209879506Y-68796913D01*
X209873491Y-68790510D01*
X209860482Y-68758828D01*
X209864043Y-68723142D01*
X209883818Y-68692084D01*
X209887069Y-68689161D01*
X209896049Y-68682810D01*
X209908153Y-68677957D01*
X209926159Y-68674403D01*
X209952847Y-68671946D01*
X209990997Y-68670385D01*
X210043386Y-68669518D01*
X210112794Y-68669146D01*
X210202001Y-68669067D01*
X210256734Y-68669083D01*
G37*
X201689702Y-68678478D02*
X201707663Y-68696989D01*
X201728263Y-68728071D01*
X201753095Y-68773756D01*
X201783750Y-68836078D01*
X201821820Y-68917071D01*
X201836454Y-68948454D01*
X201866203Y-69011638D01*
X201892297Y-69066244D01*
X201913292Y-69109290D01*
X201927739Y-69137793D01*
X201934191Y-69148770D01*
X201935550Y-69148189D01*
X201945542Y-69134242D01*
X201962833Y-69104704D01*
X201985430Y-69063087D01*
X202011338Y-69012903D01*
X202027311Y-68981414D01*
X202056261Y-68926061D01*
X202078749Y-68887044D01*
X202096965Y-68861566D01*
X202113096Y-68846831D01*
X202129330Y-68840042D01*
X202147857Y-68838400D01*
X202158360Y-68838875D01*
X202174476Y-68843082D01*
X202189790Y-68853946D01*
X202206388Y-68874219D01*
X202226357Y-68906654D01*
X202251783Y-68954004D01*
X202284752Y-69019022D01*
X202294485Y-69038277D01*
X202318943Y-69084946D01*
X202339178Y-69121109D01*
X202353311Y-69143497D01*
X202359460Y-69148845D01*
X202360827Y-69145573D01*
X202370202Y-69124664D01*
X202387062Y-69087725D01*
X202409979Y-69037874D01*
X202437520Y-68978226D01*
X202468255Y-68911898D01*
X202494970Y-68854677D01*
X202524593Y-68792688D01*
X202547664Y-68746949D01*
X202565643Y-68714908D01*
X202579990Y-68694014D01*
X202592166Y-68681718D01*
X202603632Y-68675466D01*
X202613042Y-68672574D01*
X202638147Y-68672425D01*
X202665290Y-68687768D01*
X202666590Y-68688753D01*
X202688674Y-68711388D01*
X202699723Y-68733613D01*
X202699769Y-68734253D01*
X202695228Y-68751915D01*
X202682364Y-68786481D01*
X202662605Y-68834826D01*
X202637381Y-68893825D01*
X202608119Y-68960355D01*
X202576250Y-69031291D01*
X202543201Y-69103507D01*
X202510401Y-69173880D01*
X202479280Y-69239285D01*
X202451265Y-69296597D01*
X202427786Y-69342692D01*
X202410272Y-69374446D01*
X202400151Y-69388733D01*
X202365743Y-69402102D01*
X202324046Y-69395741D01*
X202318681Y-69391044D01*
X202302852Y-69368893D01*
X202280650Y-69332132D01*
X202254233Y-69284415D01*
X202225760Y-69229393D01*
X202145986Y-69070150D01*
X202072799Y-69216742D01*
X202063103Y-69236032D01*
X202036125Y-69288380D01*
X202012096Y-69333170D01*
X201993332Y-69366154D01*
X201982146Y-69383089D01*
X201981000Y-69384332D01*
X201952879Y-69399619D01*
X201917817Y-69401302D01*
X201886776Y-69388733D01*
X201884350Y-69385884D01*
X201872090Y-69365259D01*
X201852352Y-69327708D01*
X201826448Y-69275880D01*
X201795685Y-69212423D01*
X201761375Y-69139985D01*
X201724825Y-69061216D01*
X201704585Y-69017093D01*
X201667812Y-68936365D01*
X201639355Y-68872687D01*
X201618331Y-68823752D01*
X201603854Y-68787257D01*
X201595039Y-68760895D01*
X201591004Y-68742361D01*
X201590862Y-68729352D01*
X201593730Y-68719561D01*
X201608387Y-68698678D01*
X201634990Y-68678377D01*
X201635745Y-68678035D01*
X201655335Y-68671034D01*
X201672790Y-68670504D01*
X201689702Y-68678478D01*
G36*
X201689702Y-68678478D02*
G01*
X201707663Y-68696989D01*
X201728263Y-68728071D01*
X201753095Y-68773756D01*
X201783750Y-68836078D01*
X201821820Y-68917071D01*
X201836454Y-68948454D01*
X201866203Y-69011638D01*
X201892297Y-69066244D01*
X201913292Y-69109290D01*
X201927739Y-69137793D01*
X201934191Y-69148770D01*
X201935550Y-69148189D01*
X201945542Y-69134242D01*
X201962833Y-69104704D01*
X201985430Y-69063087D01*
X202011338Y-69012903D01*
X202027311Y-68981414D01*
X202056261Y-68926061D01*
X202078749Y-68887044D01*
X202096965Y-68861566D01*
X202113096Y-68846831D01*
X202129330Y-68840042D01*
X202147857Y-68838400D01*
X202158360Y-68838875D01*
X202174476Y-68843082D01*
X202189790Y-68853946D01*
X202206388Y-68874219D01*
X202226357Y-68906654D01*
X202251783Y-68954004D01*
X202284752Y-69019022D01*
X202294485Y-69038277D01*
X202318943Y-69084946D01*
X202339178Y-69121109D01*
X202353311Y-69143497D01*
X202359460Y-69148845D01*
X202360827Y-69145573D01*
X202370202Y-69124664D01*
X202387062Y-69087725D01*
X202409979Y-69037874D01*
X202437520Y-68978226D01*
X202468255Y-68911898D01*
X202494970Y-68854677D01*
X202524593Y-68792688D01*
X202547664Y-68746949D01*
X202565643Y-68714908D01*
X202579990Y-68694014D01*
X202592166Y-68681718D01*
X202603632Y-68675466D01*
X202613042Y-68672574D01*
X202638147Y-68672425D01*
X202665290Y-68687768D01*
X202666590Y-68688753D01*
X202688674Y-68711388D01*
X202699723Y-68733613D01*
X202699769Y-68734253D01*
X202695228Y-68751915D01*
X202682364Y-68786481D01*
X202662605Y-68834826D01*
X202637381Y-68893825D01*
X202608119Y-68960355D01*
X202576250Y-69031291D01*
X202543201Y-69103507D01*
X202510401Y-69173880D01*
X202479280Y-69239285D01*
X202451265Y-69296597D01*
X202427786Y-69342692D01*
X202410272Y-69374446D01*
X202400151Y-69388733D01*
X202365743Y-69402102D01*
X202324046Y-69395741D01*
X202318681Y-69391044D01*
X202302852Y-69368893D01*
X202280650Y-69332132D01*
X202254233Y-69284415D01*
X202225760Y-69229393D01*
X202145986Y-69070150D01*
X202072799Y-69216742D01*
X202063103Y-69236032D01*
X202036125Y-69288380D01*
X202012096Y-69333170D01*
X201993332Y-69366154D01*
X201982146Y-69383089D01*
X201981000Y-69384332D01*
X201952879Y-69399619D01*
X201917817Y-69401302D01*
X201886776Y-69388733D01*
X201884350Y-69385884D01*
X201872090Y-69365259D01*
X201852352Y-69327708D01*
X201826448Y-69275880D01*
X201795685Y-69212423D01*
X201761375Y-69139985D01*
X201724825Y-69061216D01*
X201704585Y-69017093D01*
X201667812Y-68936365D01*
X201639355Y-68872687D01*
X201618331Y-68823752D01*
X201603854Y-68787257D01*
X201595039Y-68760895D01*
X201591004Y-68742361D01*
X201590862Y-68729352D01*
X201593730Y-68719561D01*
X201608387Y-68698678D01*
X201634990Y-68678377D01*
X201635745Y-68678035D01*
X201655335Y-68671034D01*
X201672790Y-68670504D01*
X201689702Y-68678478D01*
G37*
X209240853Y-68669936D02*
X209307100Y-68675366D01*
X209362400Y-68684964D01*
X209413283Y-68699825D01*
X209484595Y-68732958D01*
X209535752Y-68775640D01*
X209566575Y-68827705D01*
X209576889Y-68888983D01*
X209575952Y-68920232D01*
X209570160Y-68945029D01*
X209555353Y-68966699D01*
X209527380Y-68994049D01*
X209519402Y-69001378D01*
X209495692Y-69022281D01*
X209473298Y-69039251D01*
X209449265Y-69053205D01*
X209420637Y-69065056D01*
X209384460Y-69075720D01*
X209337780Y-69086111D01*
X209277641Y-69097146D01*
X209201090Y-69109738D01*
X209105171Y-69124804D01*
X209086808Y-69127838D01*
X209024478Y-69141458D01*
X208979260Y-69157192D01*
X208952976Y-69174263D01*
X208947447Y-69191897D01*
X208950068Y-69196168D01*
X208968000Y-69211233D01*
X208996126Y-69227867D01*
X209008926Y-69233857D01*
X209030224Y-69241050D01*
X209056610Y-69245827D01*
X209092454Y-69248646D01*
X209142128Y-69249964D01*
X209210000Y-69250237D01*
X209227785Y-69250164D01*
X209295406Y-69249053D01*
X209360345Y-69246828D01*
X209415970Y-69243762D01*
X209455651Y-69240127D01*
X209491162Y-69236059D01*
X209520415Y-69235276D01*
X209539315Y-69239876D01*
X209554429Y-69250551D01*
X209558085Y-69254144D01*
X209574427Y-69285918D01*
X209573107Y-69321572D01*
X209554150Y-69352190D01*
X209533780Y-69363796D01*
X209497796Y-69376491D01*
X209455372Y-69386541D01*
X209451922Y-69387140D01*
X209409252Y-69392356D01*
X209351866Y-69396730D01*
X209286849Y-69399818D01*
X209221289Y-69401177D01*
X209205057Y-69401218D01*
X209106744Y-69398741D01*
X209026692Y-69390735D01*
X208961513Y-69376203D01*
X208907817Y-69354149D01*
X208862216Y-69323576D01*
X208821323Y-69283486D01*
X208801202Y-69257259D01*
X208789576Y-69227712D01*
X208786667Y-69187995D01*
X208786808Y-69176026D01*
X208790681Y-69143345D01*
X208803065Y-69116819D01*
X208828230Y-69085971D01*
X208849442Y-69063831D01*
X208875838Y-69041285D01*
X208905555Y-69022917D01*
X208941785Y-69007661D01*
X208987717Y-68994449D01*
X209046544Y-68982214D01*
X209121456Y-68969889D01*
X209215645Y-68956406D01*
X209260957Y-68949396D01*
X209328911Y-68934837D01*
X209378047Y-68918337D01*
X209407614Y-68900439D01*
X209416864Y-68881685D01*
X209405048Y-68862615D01*
X209371416Y-68843771D01*
X209368370Y-68842557D01*
X209322011Y-68830479D01*
X209259361Y-68822279D01*
X209185927Y-68818119D01*
X209107217Y-68818161D01*
X209028739Y-68822569D01*
X208956000Y-68831505D01*
X208952073Y-68832154D01*
X208903257Y-68839861D01*
X208871005Y-68843473D01*
X208850008Y-68842876D01*
X208834954Y-68837954D01*
X208820534Y-68828596D01*
X208819364Y-68827725D01*
X208794847Y-68797351D01*
X208790054Y-68761850D01*
X208805860Y-68727269D01*
X208810406Y-68722813D01*
X208840020Y-68707673D01*
X208887002Y-68694550D01*
X208947306Y-68683750D01*
X209016888Y-68675581D01*
X209091703Y-68670351D01*
X209167706Y-68668367D01*
X209240853Y-68669936D01*
G36*
X209240853Y-68669936D02*
G01*
X209307100Y-68675366D01*
X209362400Y-68684964D01*
X209413283Y-68699825D01*
X209484595Y-68732958D01*
X209535752Y-68775640D01*
X209566575Y-68827705D01*
X209576889Y-68888983D01*
X209575952Y-68920232D01*
X209570160Y-68945029D01*
X209555353Y-68966699D01*
X209527380Y-68994049D01*
X209519402Y-69001378D01*
X209495692Y-69022281D01*
X209473298Y-69039251D01*
X209449265Y-69053205D01*
X209420637Y-69065056D01*
X209384460Y-69075720D01*
X209337780Y-69086111D01*
X209277641Y-69097146D01*
X209201090Y-69109738D01*
X209105171Y-69124804D01*
X209086808Y-69127838D01*
X209024478Y-69141458D01*
X208979260Y-69157192D01*
X208952976Y-69174263D01*
X208947447Y-69191897D01*
X208950068Y-69196168D01*
X208968000Y-69211233D01*
X208996126Y-69227867D01*
X209008926Y-69233857D01*
X209030224Y-69241050D01*
X209056610Y-69245827D01*
X209092454Y-69248646D01*
X209142128Y-69249964D01*
X209210000Y-69250237D01*
X209227785Y-69250164D01*
X209295406Y-69249053D01*
X209360345Y-69246828D01*
X209415970Y-69243762D01*
X209455651Y-69240127D01*
X209491162Y-69236059D01*
X209520415Y-69235276D01*
X209539315Y-69239876D01*
X209554429Y-69250551D01*
X209558085Y-69254144D01*
X209574427Y-69285918D01*
X209573107Y-69321572D01*
X209554150Y-69352190D01*
X209533780Y-69363796D01*
X209497796Y-69376491D01*
X209455372Y-69386541D01*
X209451922Y-69387140D01*
X209409252Y-69392356D01*
X209351866Y-69396730D01*
X209286849Y-69399818D01*
X209221289Y-69401177D01*
X209205057Y-69401218D01*
X209106744Y-69398741D01*
X209026692Y-69390735D01*
X208961513Y-69376203D01*
X208907817Y-69354149D01*
X208862216Y-69323576D01*
X208821323Y-69283486D01*
X208801202Y-69257259D01*
X208789576Y-69227712D01*
X208786667Y-69187995D01*
X208786808Y-69176026D01*
X208790681Y-69143345D01*
X208803065Y-69116819D01*
X208828230Y-69085971D01*
X208849442Y-69063831D01*
X208875838Y-69041285D01*
X208905555Y-69022917D01*
X208941785Y-69007661D01*
X208987717Y-68994449D01*
X209046544Y-68982214D01*
X209121456Y-68969889D01*
X209215645Y-68956406D01*
X209260957Y-68949396D01*
X209328911Y-68934837D01*
X209378047Y-68918337D01*
X209407614Y-68900439D01*
X209416864Y-68881685D01*
X209405048Y-68862615D01*
X209371416Y-68843771D01*
X209368370Y-68842557D01*
X209322011Y-68830479D01*
X209259361Y-68822279D01*
X209185927Y-68818119D01*
X209107217Y-68818161D01*
X209028739Y-68822569D01*
X208956000Y-68831505D01*
X208952073Y-68832154D01*
X208903257Y-68839861D01*
X208871005Y-68843473D01*
X208850008Y-68842876D01*
X208834954Y-68837954D01*
X208820534Y-68828596D01*
X208819364Y-68827725D01*
X208794847Y-68797351D01*
X208790054Y-68761850D01*
X208805860Y-68727269D01*
X208810406Y-68722813D01*
X208840020Y-68707673D01*
X208887002Y-68694550D01*
X208947306Y-68683750D01*
X209016888Y-68675581D01*
X209091703Y-68670351D01*
X209167706Y-68668367D01*
X209240853Y-68669936D01*
G37*
X205388711Y-64362033D02*
X205484268Y-64379523D01*
X205648558Y-64424564D01*
X205802589Y-64487656D01*
X205948509Y-64569915D01*
X206088466Y-64672457D01*
X206224608Y-64796399D01*
X206268473Y-64841661D01*
X206380758Y-64973865D01*
X206473972Y-65111832D01*
X206550719Y-65259750D01*
X206613603Y-65421803D01*
X206617420Y-65433391D01*
X206667507Y-65619392D01*
X206700899Y-65815521D01*
X206717584Y-66017568D01*
X206717551Y-66221325D01*
X206700791Y-66422581D01*
X206667292Y-66617128D01*
X206617044Y-66800756D01*
X206573190Y-66918053D01*
X206495348Y-67080951D01*
X206401828Y-67234866D01*
X206294822Y-67376671D01*
X206176519Y-67503239D01*
X206049111Y-67611441D01*
X205971606Y-67664120D01*
X205844725Y-67733750D01*
X205707243Y-67792468D01*
X205565716Y-67837587D01*
X205426702Y-67866422D01*
X205412597Y-67868106D01*
X205369153Y-67871434D01*
X205311723Y-67874275D01*
X205246122Y-67876373D01*
X205178167Y-67877468D01*
X205051378Y-67875140D01*
X204903673Y-67862136D01*
X204765779Y-67837133D01*
X204632014Y-67799318D01*
X204608562Y-67790889D01*
X204560612Y-67771408D01*
X204504140Y-67746473D01*
X204442379Y-67717722D01*
X204378563Y-67686790D01*
X204315926Y-67655315D01*
X204257703Y-67624934D01*
X204207127Y-67597283D01*
X204167433Y-67573999D01*
X204141854Y-67556718D01*
X204133625Y-67547079D01*
X204135076Y-67543984D01*
X204146250Y-67524079D01*
X204167134Y-67488420D01*
X204196265Y-67439459D01*
X204232181Y-67379646D01*
X204273420Y-67311433D01*
X204318517Y-67237271D01*
X204499785Y-66940008D01*
X204546315Y-66984539D01*
X204637723Y-67062865D01*
X204751334Y-67137439D01*
X204869122Y-67191474D01*
X204989559Y-67224290D01*
X205111117Y-67235211D01*
X205152585Y-67233868D01*
X205270080Y-67215612D01*
X205380089Y-67176617D01*
X205481430Y-67117670D01*
X205572921Y-67039557D01*
X205653380Y-66943064D01*
X205721627Y-66828978D01*
X205737908Y-66794724D01*
X205783982Y-66671240D01*
X205819106Y-66532918D01*
X205843197Y-66383561D01*
X205856173Y-66226973D01*
X205857949Y-66066956D01*
X205848443Y-65907314D01*
X205827572Y-65751850D01*
X205795252Y-65604366D01*
X205751399Y-65468667D01*
X205713982Y-65382076D01*
X205649185Y-65268688D01*
X205573772Y-65175070D01*
X205487418Y-65100959D01*
X205389795Y-65046094D01*
X205280577Y-65010212D01*
X205159439Y-64993051D01*
X205090038Y-64991880D01*
X204967168Y-65006141D01*
X204851664Y-65041241D01*
X204744953Y-65096682D01*
X204648464Y-65171964D01*
X204632720Y-65186440D01*
X204602150Y-65212962D01*
X204579809Y-65230138D01*
X204569691Y-65234787D01*
X204567706Y-65232597D01*
X204553241Y-65213721D01*
X204529400Y-65180397D01*
X204498029Y-65135380D01*
X204460974Y-65081425D01*
X204420083Y-65021285D01*
X204377202Y-64957718D01*
X204334178Y-64893476D01*
X204292857Y-64831315D01*
X204255086Y-64773991D01*
X204222712Y-64724257D01*
X204197582Y-64684868D01*
X204181542Y-64658580D01*
X204176439Y-64648147D01*
X204181050Y-64643941D01*
X204200267Y-64638933D01*
X204209838Y-64636386D01*
X204237809Y-64625249D01*
X204279448Y-64606802D01*
X204330995Y-64582725D01*
X204388690Y-64554699D01*
X204399957Y-64549154D01*
X204577687Y-64469889D01*
X204747490Y-64410385D01*
X204911430Y-64370245D01*
X205071571Y-64349071D01*
X205229977Y-64346466D01*
X205388711Y-64362033D01*
G36*
X205388711Y-64362033D02*
G01*
X205484268Y-64379523D01*
X205648558Y-64424564D01*
X205802589Y-64487656D01*
X205948509Y-64569915D01*
X206088466Y-64672457D01*
X206224608Y-64796399D01*
X206268473Y-64841661D01*
X206380758Y-64973865D01*
X206473972Y-65111832D01*
X206550719Y-65259750D01*
X206613603Y-65421803D01*
X206617420Y-65433391D01*
X206667507Y-65619392D01*
X206700899Y-65815521D01*
X206717584Y-66017568D01*
X206717551Y-66221325D01*
X206700791Y-66422581D01*
X206667292Y-66617128D01*
X206617044Y-66800756D01*
X206573190Y-66918053D01*
X206495348Y-67080951D01*
X206401828Y-67234866D01*
X206294822Y-67376671D01*
X206176519Y-67503239D01*
X206049111Y-67611441D01*
X205971606Y-67664120D01*
X205844725Y-67733750D01*
X205707243Y-67792468D01*
X205565716Y-67837587D01*
X205426702Y-67866422D01*
X205412597Y-67868106D01*
X205369153Y-67871434D01*
X205311723Y-67874275D01*
X205246122Y-67876373D01*
X205178167Y-67877468D01*
X205051378Y-67875140D01*
X204903673Y-67862136D01*
X204765779Y-67837133D01*
X204632014Y-67799318D01*
X204608562Y-67790889D01*
X204560612Y-67771408D01*
X204504140Y-67746473D01*
X204442379Y-67717722D01*
X204378563Y-67686790D01*
X204315926Y-67655315D01*
X204257703Y-67624934D01*
X204207127Y-67597283D01*
X204167433Y-67573999D01*
X204141854Y-67556718D01*
X204133625Y-67547079D01*
X204135076Y-67543984D01*
X204146250Y-67524079D01*
X204167134Y-67488420D01*
X204196265Y-67439459D01*
X204232181Y-67379646D01*
X204273420Y-67311433D01*
X204318517Y-67237271D01*
X204499785Y-66940008D01*
X204546315Y-66984539D01*
X204637723Y-67062865D01*
X204751334Y-67137439D01*
X204869122Y-67191474D01*
X204989559Y-67224290D01*
X205111117Y-67235211D01*
X205152585Y-67233868D01*
X205270080Y-67215612D01*
X205380089Y-67176617D01*
X205481430Y-67117670D01*
X205572921Y-67039557D01*
X205653380Y-66943064D01*
X205721627Y-66828978D01*
X205737908Y-66794724D01*
X205783982Y-66671240D01*
X205819106Y-66532918D01*
X205843197Y-66383561D01*
X205856173Y-66226973D01*
X205857949Y-66066956D01*
X205848443Y-65907314D01*
X205827572Y-65751850D01*
X205795252Y-65604366D01*
X205751399Y-65468667D01*
X205713982Y-65382076D01*
X205649185Y-65268688D01*
X205573772Y-65175070D01*
X205487418Y-65100959D01*
X205389795Y-65046094D01*
X205280577Y-65010212D01*
X205159439Y-64993051D01*
X205090038Y-64991880D01*
X204967168Y-65006141D01*
X204851664Y-65041241D01*
X204744953Y-65096682D01*
X204648464Y-65171964D01*
X204632720Y-65186440D01*
X204602150Y-65212962D01*
X204579809Y-65230138D01*
X204569691Y-65234787D01*
X204567706Y-65232597D01*
X204553241Y-65213721D01*
X204529400Y-65180397D01*
X204498029Y-65135380D01*
X204460974Y-65081425D01*
X204420083Y-65021285D01*
X204377202Y-64957718D01*
X204334178Y-64893476D01*
X204292857Y-64831315D01*
X204255086Y-64773991D01*
X204222712Y-64724257D01*
X204197582Y-64684868D01*
X204181542Y-64658580D01*
X204176439Y-64648147D01*
X204181050Y-64643941D01*
X204200267Y-64638933D01*
X204209838Y-64636386D01*
X204237809Y-64625249D01*
X204279448Y-64606802D01*
X204330995Y-64582725D01*
X204388690Y-64554699D01*
X204399957Y-64549154D01*
X204577687Y-64469889D01*
X204747490Y-64410385D01*
X204911430Y-64370245D01*
X205071571Y-64349071D01*
X205229977Y-64346466D01*
X205388711Y-64362033D01*
G37*
X201585994Y-66642711D02*
X201585268Y-66720158D01*
X201576689Y-66871594D01*
X201557833Y-67008283D01*
X201527837Y-67134276D01*
X201485836Y-67253625D01*
X201430969Y-67370381D01*
X201364167Y-67481179D01*
X201273363Y-67594739D01*
X201169708Y-67690211D01*
X201053887Y-67767073D01*
X200926586Y-67824797D01*
X200788489Y-67862858D01*
X200750793Y-67868666D01*
X200671752Y-67874396D01*
X200583629Y-67874583D01*
X200494236Y-67869539D01*
X200411384Y-67859578D01*
X200342887Y-67845012D01*
X200312035Y-67835364D01*
X200234730Y-67805123D01*
X200157679Y-67767617D01*
X200088200Y-67726614D01*
X200033615Y-67685879D01*
X200010916Y-67666505D01*
X199988201Y-67648662D01*
X199976779Y-67641778D01*
X199975537Y-67643424D01*
X199972728Y-67661205D01*
X199970776Y-67694370D01*
X199970045Y-67737733D01*
X199970045Y-67833689D01*
X199111896Y-67833689D01*
X199146161Y-67772974D01*
X199151355Y-67763868D01*
X199159715Y-67749249D01*
X199167288Y-67735173D01*
X199174112Y-67720540D01*
X199180227Y-67704249D01*
X199185673Y-67685198D01*
X199190487Y-67662286D01*
X199194708Y-67634413D01*
X199198377Y-67600478D01*
X199201531Y-67559379D01*
X199204211Y-67510015D01*
X199206454Y-67451286D01*
X199208299Y-67382090D01*
X199209787Y-67301326D01*
X199210955Y-67207894D01*
X199211844Y-67100692D01*
X199212491Y-66978620D01*
X199212936Y-66840576D01*
X199213218Y-66685459D01*
X199213375Y-66512168D01*
X199213448Y-66319603D01*
X199213474Y-66106662D01*
X199213485Y-65970530D01*
X200015200Y-65970530D01*
X200015200Y-67120721D01*
X200085756Y-67167089D01*
X200126417Y-67190791D01*
X200180546Y-67216639D01*
X200229689Y-67234829D01*
X200293165Y-67250551D01*
X200389331Y-67261541D01*
X200473900Y-67253365D01*
X200547219Y-67225805D01*
X200609637Y-67178642D01*
X200661502Y-67111658D01*
X200703160Y-67024633D01*
X200734962Y-66917350D01*
X200737545Y-66905009D01*
X200746000Y-66843772D01*
X200751663Y-66766692D01*
X200754576Y-66679002D01*
X200754783Y-66585934D01*
X200752330Y-66492720D01*
X200747261Y-66404594D01*
X200739619Y-66326788D01*
X200729448Y-66264533D01*
X200728167Y-66258666D01*
X200699126Y-66148121D01*
X200664610Y-66057575D01*
X200623456Y-65984953D01*
X200574499Y-65928181D01*
X200516574Y-65885184D01*
X200484620Y-65869615D01*
X200411784Y-65850722D01*
X200330443Y-65847465D01*
X200245319Y-65859389D01*
X200161133Y-65886040D01*
X200082608Y-65926962D01*
X200015200Y-65970530D01*
X199213485Y-65970530D01*
X199213493Y-65872245D01*
X199213689Y-64187378D01*
X200119017Y-64187378D01*
X200094585Y-64224067D01*
X200088318Y-64233647D01*
X200062208Y-64279981D01*
X200044469Y-64327102D01*
X200032908Y-64382251D01*
X200025331Y-64452667D01*
X200024839Y-64459650D01*
X200023062Y-64497641D01*
X200021444Y-64551576D01*
X200019999Y-64618703D01*
X200018740Y-64696271D01*
X200017680Y-64781528D01*
X200016829Y-64871724D01*
X200016203Y-64964107D01*
X200015812Y-65055925D01*
X200015670Y-65144427D01*
X200015790Y-65226862D01*
X200016183Y-65300479D01*
X200016862Y-65362526D01*
X200017841Y-65410251D01*
X200019132Y-65440904D01*
X200020747Y-65451733D01*
X200028957Y-65447333D01*
X200050647Y-65432362D01*
X200080014Y-65410448D01*
X200128879Y-65376236D01*
X200217125Y-65329714D01*
X200315916Y-65296046D01*
X200428510Y-65274231D01*
X200558164Y-65263265D01*
X200650670Y-65262219D01*
X200772011Y-65272014D01*
X200882099Y-65296174D01*
X200985389Y-65335785D01*
X201086338Y-65391932D01*
X201131503Y-65422883D01*
X201236911Y-65514115D01*
X201328538Y-65623106D01*
X201406332Y-65749726D01*
X201470241Y-65893845D01*
X201520214Y-66055332D01*
X201556198Y-66234059D01*
X201578143Y-66429895D01*
X201583900Y-66585934D01*
X201585994Y-66642711D01*
G36*
X201585994Y-66642711D02*
G01*
X201585268Y-66720158D01*
X201576689Y-66871594D01*
X201557833Y-67008283D01*
X201527837Y-67134276D01*
X201485836Y-67253625D01*
X201430969Y-67370381D01*
X201364167Y-67481179D01*
X201273363Y-67594739D01*
X201169708Y-67690211D01*
X201053887Y-67767073D01*
X200926586Y-67824797D01*
X200788489Y-67862858D01*
X200750793Y-67868666D01*
X200671752Y-67874396D01*
X200583629Y-67874583D01*
X200494236Y-67869539D01*
X200411384Y-67859578D01*
X200342887Y-67845012D01*
X200312035Y-67835364D01*
X200234730Y-67805123D01*
X200157679Y-67767617D01*
X200088200Y-67726614D01*
X200033615Y-67685879D01*
X200010916Y-67666505D01*
X199988201Y-67648662D01*
X199976779Y-67641778D01*
X199975537Y-67643424D01*
X199972728Y-67661205D01*
X199970776Y-67694370D01*
X199970045Y-67737733D01*
X199970045Y-67833689D01*
X199111896Y-67833689D01*
X199146161Y-67772974D01*
X199151355Y-67763868D01*
X199159715Y-67749249D01*
X199167288Y-67735173D01*
X199174112Y-67720540D01*
X199180227Y-67704249D01*
X199185673Y-67685198D01*
X199190487Y-67662286D01*
X199194708Y-67634413D01*
X199198377Y-67600478D01*
X199201531Y-67559379D01*
X199204211Y-67510015D01*
X199206454Y-67451286D01*
X199208299Y-67382090D01*
X199209787Y-67301326D01*
X199210955Y-67207894D01*
X199211844Y-67100692D01*
X199212491Y-66978620D01*
X199212936Y-66840576D01*
X199213218Y-66685459D01*
X199213375Y-66512168D01*
X199213448Y-66319603D01*
X199213474Y-66106662D01*
X199213485Y-65970530D01*
X200015200Y-65970530D01*
X200015200Y-67120721D01*
X200085756Y-67167089D01*
X200126417Y-67190791D01*
X200180546Y-67216639D01*
X200229689Y-67234829D01*
X200293165Y-67250551D01*
X200389331Y-67261541D01*
X200473900Y-67253365D01*
X200547219Y-67225805D01*
X200609637Y-67178642D01*
X200661502Y-67111658D01*
X200703160Y-67024633D01*
X200734962Y-66917350D01*
X200737545Y-66905009D01*
X200746000Y-66843772D01*
X200751663Y-66766692D01*
X200754576Y-66679002D01*
X200754783Y-66585934D01*
X200752330Y-66492720D01*
X200747261Y-66404594D01*
X200739619Y-66326788D01*
X200729448Y-66264533D01*
X200728167Y-66258666D01*
X200699126Y-66148121D01*
X200664610Y-66057575D01*
X200623456Y-65984953D01*
X200574499Y-65928181D01*
X200516574Y-65885184D01*
X200484620Y-65869615D01*
X200411784Y-65850722D01*
X200330443Y-65847465D01*
X200245319Y-65859389D01*
X200161133Y-65886040D01*
X200082608Y-65926962D01*
X200015200Y-65970530D01*
X199213485Y-65970530D01*
X199213493Y-65872245D01*
X199213689Y-64187378D01*
X200119017Y-64187378D01*
X200094585Y-64224067D01*
X200088318Y-64233647D01*
X200062208Y-64279981D01*
X200044469Y-64327102D01*
X200032908Y-64382251D01*
X200025331Y-64452667D01*
X200024839Y-64459650D01*
X200023062Y-64497641D01*
X200021444Y-64551576D01*
X200019999Y-64618703D01*
X200018740Y-64696271D01*
X200017680Y-64781528D01*
X200016829Y-64871724D01*
X200016203Y-64964107D01*
X200015812Y-65055925D01*
X200015670Y-65144427D01*
X200015790Y-65226862D01*
X200016183Y-65300479D01*
X200016862Y-65362526D01*
X200017841Y-65410251D01*
X200019132Y-65440904D01*
X200020747Y-65451733D01*
X200028957Y-65447333D01*
X200050647Y-65432362D01*
X200080014Y-65410448D01*
X200128879Y-65376236D01*
X200217125Y-65329714D01*
X200315916Y-65296046D01*
X200428510Y-65274231D01*
X200558164Y-65263265D01*
X200650670Y-65262219D01*
X200772011Y-65272014D01*
X200882099Y-65296174D01*
X200985389Y-65335785D01*
X201086338Y-65391932D01*
X201131503Y-65422883D01*
X201236911Y-65514115D01*
X201328538Y-65623106D01*
X201406332Y-65749726D01*
X201470241Y-65893845D01*
X201520214Y-66055332D01*
X201556198Y-66234059D01*
X201578143Y-66429895D01*
X201583900Y-66585934D01*
X201585994Y-66642711D01*
G37*
X204127755Y-67043467D02*
X204127261Y-67077363D01*
X204123632Y-67152202D01*
X204116022Y-67214401D01*
X204103688Y-67270984D01*
X204059313Y-67397076D01*
X203996400Y-67511679D01*
X203916238Y-67612568D01*
X203819740Y-67698924D01*
X203707822Y-67769932D01*
X203581397Y-67824776D01*
X203441378Y-67862638D01*
X203405149Y-67868351D01*
X203326155Y-67874313D01*
X203237841Y-67874646D01*
X203148075Y-67869659D01*
X203064722Y-67859666D01*
X202995651Y-67844978D01*
X202909187Y-67814749D01*
X202799286Y-67760057D01*
X202701956Y-67692543D01*
X202639867Y-67641556D01*
X202636605Y-67737622D01*
X202633343Y-67833689D01*
X202210450Y-67833689D01*
X202199543Y-67833686D01*
X202105056Y-67833380D01*
X202018331Y-67832616D01*
X201941837Y-67831451D01*
X201878043Y-67829942D01*
X201829418Y-67828147D01*
X201798433Y-67826121D01*
X201787556Y-67823922D01*
X201787578Y-67823463D01*
X201794614Y-67807910D01*
X201810434Y-67785071D01*
X201814734Y-67779638D01*
X201825777Y-67765606D01*
X201835311Y-67752186D01*
X201843461Y-67737722D01*
X201850352Y-67720556D01*
X201856111Y-67699034D01*
X201860862Y-67671498D01*
X201864731Y-67636292D01*
X201867844Y-67591760D01*
X201870325Y-67536246D01*
X201872300Y-67468093D01*
X201873894Y-67385645D01*
X201875234Y-67287246D01*
X201876444Y-67171239D01*
X201877649Y-67035968D01*
X201878595Y-66924586D01*
X202679378Y-66924586D01*
X202679378Y-67120462D01*
X202724048Y-67176973D01*
X202736785Y-67192212D01*
X202783604Y-67234844D01*
X202844255Y-67270672D01*
X202854897Y-67275850D01*
X202893676Y-67292745D01*
X202928692Y-67302909D01*
X202968722Y-67308325D01*
X203022541Y-67310978D01*
X203040648Y-67311383D01*
X203116011Y-67308540D01*
X203176743Y-67296620D01*
X203228452Y-67274037D01*
X203276746Y-67239211D01*
X203281803Y-67234798D01*
X203330272Y-67179160D01*
X203358459Y-67115333D01*
X203367752Y-67040282D01*
X203360520Y-66968693D01*
X203335796Y-66905645D01*
X203291249Y-66847758D01*
X203236319Y-66800808D01*
X203163894Y-66760961D01*
X203077340Y-66733263D01*
X202974670Y-66717096D01*
X202853894Y-66711842D01*
X202845007Y-66711857D01*
X202789660Y-66712655D01*
X202742736Y-66714488D01*
X202708953Y-66717111D01*
X202693028Y-66720274D01*
X202688943Y-66726741D01*
X202684572Y-66748875D01*
X202681604Y-66787988D01*
X202679914Y-66845939D01*
X202679378Y-66924586D01*
X201878595Y-66924586D01*
X201878975Y-66879778D01*
X201880228Y-66737012D01*
X201881651Y-66591942D01*
X201883176Y-66466027D01*
X201884933Y-66357436D01*
X201887051Y-66264334D01*
X201889660Y-66184891D01*
X201892890Y-66117273D01*
X201896869Y-66059649D01*
X201901728Y-66010185D01*
X201907597Y-65967050D01*
X201914604Y-65928410D01*
X201922880Y-65892434D01*
X201932554Y-65857289D01*
X201943756Y-65821142D01*
X201956616Y-65782161D01*
X201972090Y-65739091D01*
X202014994Y-65646871D01*
X202068735Y-65567099D01*
X202137576Y-65492965D01*
X202215185Y-65429405D01*
X202319761Y-65367725D01*
X202439244Y-65320202D01*
X202574508Y-65286567D01*
X202726426Y-65266552D01*
X202895872Y-65259889D01*
X202953890Y-65260287D01*
X203019398Y-65262335D01*
X203080693Y-65266704D01*
X203142097Y-65274035D01*
X203207932Y-65284969D01*
X203282520Y-65300147D01*
X203370184Y-65320209D01*
X203475245Y-65345797D01*
X203503806Y-65352820D01*
X203579054Y-65370776D01*
X203649388Y-65386820D01*
X203710567Y-65400028D01*
X203758354Y-65409474D01*
X203788511Y-65414231D01*
X203816783Y-65417910D01*
X203843060Y-65423187D01*
X203853059Y-65427942D01*
X203849952Y-65436781D01*
X203839194Y-65464072D01*
X203821864Y-65506906D01*
X203799126Y-65562425D01*
X203772147Y-65627772D01*
X203742090Y-65700089D01*
X203735493Y-65715879D01*
X203696907Y-65806484D01*
X203665768Y-65876217D01*
X203641917Y-65925405D01*
X203625198Y-65954374D01*
X203615454Y-65963452D01*
X203607766Y-65961405D01*
X203581415Y-65951760D01*
X203542982Y-65936190D01*
X203497822Y-65916815D01*
X203403293Y-65878814D01*
X203266480Y-65837780D01*
X203125289Y-65812612D01*
X203087314Y-65808611D01*
X202984059Y-65806447D01*
X202896952Y-65819622D01*
X202825129Y-65848756D01*
X202767731Y-65894466D01*
X202723896Y-65957372D01*
X202692762Y-66038092D01*
X202673470Y-66137245D01*
X202666050Y-66196224D01*
X202827936Y-66189445D01*
X202954495Y-66187813D01*
X203105951Y-66194194D01*
X203254396Y-66208777D01*
X203390578Y-66230882D01*
X203455245Y-66245821D01*
X203587490Y-66288741D01*
X203709762Y-66345340D01*
X203819685Y-66414017D01*
X203914883Y-66493170D01*
X203992980Y-66581196D01*
X204051599Y-66676493D01*
X204075595Y-66728864D01*
X204101232Y-66799590D01*
X204117478Y-66870812D01*
X204125822Y-66949712D01*
X204127690Y-67040282D01*
X204127755Y-67043467D01*
G36*
X204127755Y-67043467D02*
G01*
X204127261Y-67077363D01*
X204123632Y-67152202D01*
X204116022Y-67214401D01*
X204103688Y-67270984D01*
X204059313Y-67397076D01*
X203996400Y-67511679D01*
X203916238Y-67612568D01*
X203819740Y-67698924D01*
X203707822Y-67769932D01*
X203581397Y-67824776D01*
X203441378Y-67862638D01*
X203405149Y-67868351D01*
X203326155Y-67874313D01*
X203237841Y-67874646D01*
X203148075Y-67869659D01*
X203064722Y-67859666D01*
X202995651Y-67844978D01*
X202909187Y-67814749D01*
X202799286Y-67760057D01*
X202701956Y-67692543D01*
X202639867Y-67641556D01*
X202636605Y-67737622D01*
X202633343Y-67833689D01*
X202210450Y-67833689D01*
X202199543Y-67833686D01*
X202105056Y-67833380D01*
X202018331Y-67832616D01*
X201941837Y-67831451D01*
X201878043Y-67829942D01*
X201829418Y-67828147D01*
X201798433Y-67826121D01*
X201787556Y-67823922D01*
X201787578Y-67823463D01*
X201794614Y-67807910D01*
X201810434Y-67785071D01*
X201814734Y-67779638D01*
X201825777Y-67765606D01*
X201835311Y-67752186D01*
X201843461Y-67737722D01*
X201850352Y-67720556D01*
X201856111Y-67699034D01*
X201860862Y-67671498D01*
X201864731Y-67636292D01*
X201867844Y-67591760D01*
X201870325Y-67536246D01*
X201872300Y-67468093D01*
X201873894Y-67385645D01*
X201875234Y-67287246D01*
X201876444Y-67171239D01*
X201877649Y-67035968D01*
X201878595Y-66924586D01*
X202679378Y-66924586D01*
X202679378Y-67120462D01*
X202724048Y-67176973D01*
X202736785Y-67192212D01*
X202783604Y-67234844D01*
X202844255Y-67270672D01*
X202854897Y-67275850D01*
X202893676Y-67292745D01*
X202928692Y-67302909D01*
X202968722Y-67308325D01*
X203022541Y-67310978D01*
X203040648Y-67311383D01*
X203116011Y-67308540D01*
X203176743Y-67296620D01*
X203228452Y-67274037D01*
X203276746Y-67239211D01*
X203281803Y-67234798D01*
X203330272Y-67179160D01*
X203358459Y-67115333D01*
X203367752Y-67040282D01*
X203360520Y-66968693D01*
X203335796Y-66905645D01*
X203291249Y-66847758D01*
X203236319Y-66800808D01*
X203163894Y-66760961D01*
X203077340Y-66733263D01*
X202974670Y-66717096D01*
X202853894Y-66711842D01*
X202845007Y-66711857D01*
X202789660Y-66712655D01*
X202742736Y-66714488D01*
X202708953Y-66717111D01*
X202693028Y-66720274D01*
X202688943Y-66726741D01*
X202684572Y-66748875D01*
X202681604Y-66787988D01*
X202679914Y-66845939D01*
X202679378Y-66924586D01*
X201878595Y-66924586D01*
X201878975Y-66879778D01*
X201880228Y-66737012D01*
X201881651Y-66591942D01*
X201883176Y-66466027D01*
X201884933Y-66357436D01*
X201887051Y-66264334D01*
X201889660Y-66184891D01*
X201892890Y-66117273D01*
X201896869Y-66059649D01*
X201901728Y-66010185D01*
X201907597Y-65967050D01*
X201914604Y-65928410D01*
X201922880Y-65892434D01*
X201932554Y-65857289D01*
X201943756Y-65821142D01*
X201956616Y-65782161D01*
X201972090Y-65739091D01*
X202014994Y-65646871D01*
X202068735Y-65567099D01*
X202137576Y-65492965D01*
X202215185Y-65429405D01*
X202319761Y-65367725D01*
X202439244Y-65320202D01*
X202574508Y-65286567D01*
X202726426Y-65266552D01*
X202895872Y-65259889D01*
X202953890Y-65260287D01*
X203019398Y-65262335D01*
X203080693Y-65266704D01*
X203142097Y-65274035D01*
X203207932Y-65284969D01*
X203282520Y-65300147D01*
X203370184Y-65320209D01*
X203475245Y-65345797D01*
X203503806Y-65352820D01*
X203579054Y-65370776D01*
X203649388Y-65386820D01*
X203710567Y-65400028D01*
X203758354Y-65409474D01*
X203788511Y-65414231D01*
X203816783Y-65417910D01*
X203843060Y-65423187D01*
X203853059Y-65427942D01*
X203849952Y-65436781D01*
X203839194Y-65464072D01*
X203821864Y-65506906D01*
X203799126Y-65562425D01*
X203772147Y-65627772D01*
X203742090Y-65700089D01*
X203735493Y-65715879D01*
X203696907Y-65806484D01*
X203665768Y-65876217D01*
X203641917Y-65925405D01*
X203625198Y-65954374D01*
X203615454Y-65963452D01*
X203607766Y-65961405D01*
X203581415Y-65951760D01*
X203542982Y-65936190D01*
X203497822Y-65916815D01*
X203403293Y-65878814D01*
X203266480Y-65837780D01*
X203125289Y-65812612D01*
X203087314Y-65808611D01*
X202984059Y-65806447D01*
X202896952Y-65819622D01*
X202825129Y-65848756D01*
X202767731Y-65894466D01*
X202723896Y-65957372D01*
X202692762Y-66038092D01*
X202673470Y-66137245D01*
X202666050Y-66196224D01*
X202827936Y-66189445D01*
X202954495Y-66187813D01*
X203105951Y-66194194D01*
X203254396Y-66208777D01*
X203390578Y-66230882D01*
X203455245Y-66245821D01*
X203587490Y-66288741D01*
X203709762Y-66345340D01*
X203819685Y-66414017D01*
X203914883Y-66493170D01*
X203992980Y-66581196D01*
X204051599Y-66676493D01*
X204075595Y-66728864D01*
X204101232Y-66799590D01*
X204117478Y-66870812D01*
X204125822Y-66949712D01*
X204127690Y-67040282D01*
X204127755Y-67043467D01*
G37*
X211675614Y-64511792D02*
X211676059Y-64643011D01*
X211676362Y-64790216D01*
X211676548Y-64954349D01*
X211676642Y-65136352D01*
X211676671Y-65337165D01*
X211676661Y-65557732D01*
X211676636Y-65798992D01*
X211676622Y-66061889D01*
X211676622Y-66104040D01*
X211676646Y-66364668D01*
X211676685Y-66603796D01*
X211676708Y-66822360D01*
X211676687Y-67021295D01*
X211676593Y-67201535D01*
X211676395Y-67364015D01*
X211676063Y-67509670D01*
X211675569Y-67639434D01*
X211674883Y-67754243D01*
X211673976Y-67855030D01*
X211672817Y-67942730D01*
X211671378Y-68018279D01*
X211669629Y-68082611D01*
X211667540Y-68136661D01*
X211665083Y-68181363D01*
X211662227Y-68217652D01*
X211658943Y-68246463D01*
X211655202Y-68268731D01*
X211650974Y-68285390D01*
X211646229Y-68297375D01*
X211640939Y-68305621D01*
X211635073Y-68311062D01*
X211628602Y-68314634D01*
X211621497Y-68317270D01*
X211613728Y-68319906D01*
X211605266Y-68323477D01*
X211600908Y-68325145D01*
X211592395Y-68327111D01*
X211579694Y-68328911D01*
X211561885Y-68330555D01*
X211538049Y-68332047D01*
X211507266Y-68333397D01*
X211468617Y-68334611D01*
X211421182Y-68335697D01*
X211364043Y-68336661D01*
X211296279Y-68337511D01*
X211216971Y-68338253D01*
X211125199Y-68338897D01*
X211020044Y-68339447D01*
X210900587Y-68339913D01*
X210765908Y-68340300D01*
X210615088Y-68340616D01*
X210447206Y-68340869D01*
X210261345Y-68341066D01*
X210056583Y-68341213D01*
X209832002Y-68341318D01*
X209586682Y-68341389D01*
X209319704Y-68341432D01*
X209281321Y-68341437D01*
X209015922Y-68341480D01*
X208772050Y-68341525D01*
X208548783Y-68341548D01*
X208345196Y-68341524D01*
X208160367Y-68341430D01*
X207993373Y-68341243D01*
X207843290Y-68340939D01*
X207709196Y-68340494D01*
X207590166Y-68339885D01*
X207485279Y-68339089D01*
X207393610Y-68338080D01*
X207314237Y-68336837D01*
X207246237Y-68335335D01*
X207188686Y-68333551D01*
X207140662Y-68331461D01*
X207101240Y-68329042D01*
X207069499Y-68326270D01*
X207044514Y-68323121D01*
X207025364Y-68319572D01*
X207011123Y-68315598D01*
X207000871Y-68311178D01*
X206993682Y-68306286D01*
X206988635Y-68300900D01*
X206984805Y-68294996D01*
X206981271Y-68288549D01*
X206977108Y-68281537D01*
X206976025Y-68279687D01*
X206973813Y-68274180D01*
X206971786Y-68265868D01*
X206969938Y-68253809D01*
X206968261Y-68237063D01*
X206966745Y-68214687D01*
X206965383Y-68185740D01*
X206964167Y-68149280D01*
X206963089Y-68104367D01*
X206962140Y-68050057D01*
X206961312Y-67985410D01*
X206960597Y-67909484D01*
X206959987Y-67821338D01*
X206959942Y-67812493D01*
X207251378Y-67812493D01*
X207255260Y-67813765D01*
X207278520Y-67815791D01*
X207320874Y-67817626D01*
X207380132Y-67819227D01*
X207454107Y-67820549D01*
X207540610Y-67821548D01*
X207637452Y-67822180D01*
X207742445Y-67822400D01*
X208440651Y-67822400D01*
X209595090Y-67822400D01*
X209594456Y-67746200D01*
X209595574Y-67704160D01*
X209601304Y-67668334D01*
X209613890Y-67630772D01*
X209635568Y-67582577D01*
X209638789Y-67575897D01*
X209664188Y-67526359D01*
X209690996Y-67478369D01*
X209713917Y-67441466D01*
X209718485Y-67434834D01*
X209740516Y-67403593D01*
X209772693Y-67358654D01*
X209813457Y-67302147D01*
X209861245Y-67236204D01*
X209914498Y-67162957D01*
X209971655Y-67084536D01*
X210031155Y-67003072D01*
X210091437Y-66920698D01*
X210150940Y-66839544D01*
X210208105Y-66761742D01*
X210261370Y-66689423D01*
X210309174Y-66624718D01*
X210349957Y-66569759D01*
X210382158Y-66526676D01*
X210404216Y-66497602D01*
X210414571Y-66484667D01*
X210419044Y-66480351D01*
X210423236Y-66478312D01*
X210426643Y-66480926D01*
X210429325Y-66489986D01*
X210431341Y-66507285D01*
X210432748Y-66534614D01*
X210433605Y-66573765D01*
X210433970Y-66626533D01*
X210433903Y-66694707D01*
X210433460Y-66780082D01*
X210432702Y-66884449D01*
X210431685Y-67009600D01*
X210431308Y-67054300D01*
X210430169Y-67175395D01*
X210428972Y-67276688D01*
X210427636Y-67360262D01*
X210426077Y-67428204D01*
X210424215Y-67482599D01*
X210421966Y-67525532D01*
X210419248Y-67559089D01*
X210415979Y-67585355D01*
X210412078Y-67606416D01*
X210407461Y-67624357D01*
X210399192Y-67650770D01*
X210375583Y-67712772D01*
X210349685Y-67765573D01*
X210324535Y-67802645D01*
X210323339Y-67804075D01*
X210321168Y-67808424D01*
X210323328Y-67812026D01*
X210331644Y-67814951D01*
X210347940Y-67817269D01*
X210374041Y-67819051D01*
X210411771Y-67820367D01*
X210462956Y-67821286D01*
X210529420Y-67821878D01*
X210612987Y-67822215D01*
X210715483Y-67822365D01*
X210838732Y-67822400D01*
X211370296Y-67822400D01*
X211331523Y-67764783D01*
X211325432Y-67755893D01*
X211314976Y-67741069D01*
X211305579Y-67727422D01*
X211297183Y-67713765D01*
X211289733Y-67698911D01*
X211283173Y-67681670D01*
X211277446Y-67660855D01*
X211272495Y-67635280D01*
X211268266Y-67603755D01*
X211264701Y-67565093D01*
X211261744Y-67518107D01*
X211259340Y-67461608D01*
X211257431Y-67394409D01*
X211255962Y-67315322D01*
X211254876Y-67223160D01*
X211254118Y-67116734D01*
X211253630Y-66994857D01*
X211253358Y-66856341D01*
X211253243Y-66699999D01*
X211253231Y-66524642D01*
X211253265Y-66329082D01*
X211253289Y-66112133D01*
X211253280Y-65989513D01*
X211253243Y-65784447D01*
X211253227Y-65600116D01*
X211253288Y-65435334D01*
X211253484Y-65288916D01*
X211253870Y-65159674D01*
X211254505Y-65046422D01*
X211255444Y-64947975D01*
X211256745Y-64863144D01*
X211258464Y-64790744D01*
X211260659Y-64729589D01*
X211263385Y-64678492D01*
X211266701Y-64636267D01*
X211270662Y-64601727D01*
X211275325Y-64573686D01*
X211280747Y-64550958D01*
X211286986Y-64532356D01*
X211294097Y-64516693D01*
X211302138Y-64502784D01*
X211311166Y-64489441D01*
X211321236Y-64475479D01*
X211332407Y-64459711D01*
X211372197Y-64401867D01*
X210312314Y-64401867D01*
X210350311Y-64464966D01*
X210364993Y-64490005D01*
X210379531Y-64517586D01*
X210391627Y-64545700D01*
X210401532Y-64576551D01*
X210409494Y-64612344D01*
X210415761Y-64655283D01*
X210420582Y-64707574D01*
X210424206Y-64771419D01*
X210426881Y-64849025D01*
X210428857Y-64942594D01*
X210430382Y-65054333D01*
X210431704Y-65186445D01*
X210432613Y-65306434D01*
X210433020Y-65423063D01*
X210432767Y-65518531D01*
X210431857Y-65592556D01*
X210430293Y-65644855D01*
X210428079Y-65675149D01*
X210425220Y-65683156D01*
X210422161Y-65679858D01*
X210404006Y-65658408D01*
X210374275Y-65621889D01*
X210334639Y-65572442D01*
X210286771Y-65512207D01*
X210232343Y-65443327D01*
X210173027Y-65367943D01*
X210110495Y-65288196D01*
X210046421Y-65206228D01*
X209982475Y-65124180D01*
X209920331Y-65044194D01*
X209861661Y-64968411D01*
X209808137Y-64898973D01*
X209761430Y-64838021D01*
X209723214Y-64787696D01*
X209695161Y-64750140D01*
X209678943Y-64727495D01*
X209633635Y-64655212D01*
X209593661Y-64575463D01*
X209572130Y-64507188D01*
X209568827Y-64449844D01*
X209574116Y-64401867D01*
X208442356Y-64402117D01*
X208481867Y-64432722D01*
X208491248Y-64440089D01*
X208554183Y-64494438D01*
X208622997Y-64562259D01*
X208699596Y-64645516D01*
X208785888Y-64746178D01*
X208803052Y-64766847D01*
X208843833Y-64816409D01*
X208893588Y-64877326D01*
X208950955Y-64947898D01*
X209014569Y-65026424D01*
X209083069Y-65111204D01*
X209155090Y-65200537D01*
X209229270Y-65292722D01*
X209244517Y-65311702D01*
X209304246Y-65386060D01*
X209378653Y-65478848D01*
X209451131Y-65569388D01*
X209520314Y-65655978D01*
X209584841Y-65736918D01*
X209643347Y-65810506D01*
X209694470Y-65875044D01*
X209736847Y-65928829D01*
X209769115Y-65970162D01*
X209789910Y-65997342D01*
X209797869Y-66008668D01*
X209796111Y-66012771D01*
X209783230Y-66033334D01*
X209758885Y-66069561D01*
X209724247Y-66119824D01*
X209680486Y-66182492D01*
X209628775Y-66255936D01*
X209570284Y-66338527D01*
X209506184Y-66428636D01*
X209437646Y-66524631D01*
X209365843Y-66624885D01*
X209291944Y-66727768D01*
X209217121Y-66831650D01*
X209142545Y-66934901D01*
X209069387Y-67035892D01*
X208998819Y-67132994D01*
X208932011Y-67224577D01*
X208870135Y-67309011D01*
X208814361Y-67384667D01*
X208765862Y-67449916D01*
X208725807Y-67503128D01*
X208695369Y-67542673D01*
X208674944Y-67568026D01*
X208628899Y-67622295D01*
X208578612Y-67678775D01*
X208531815Y-67728669D01*
X208440651Y-67822400D01*
X207742445Y-67822400D01*
X207811356Y-67822349D01*
X207909607Y-67822091D01*
X207999030Y-67821637D01*
X208077333Y-67821010D01*
X208142223Y-67820235D01*
X208191411Y-67819335D01*
X208222604Y-67818334D01*
X208233511Y-67817257D01*
X208232322Y-67814037D01*
X208222176Y-67796452D01*
X208205040Y-67770158D01*
X208196540Y-67757691D01*
X208187329Y-67743622D01*
X208179233Y-67729351D01*
X208172185Y-67713479D01*
X208166117Y-67694609D01*
X208160961Y-67671341D01*
X208156651Y-67642278D01*
X208153119Y-67606021D01*
X208150297Y-67561170D01*
X208148118Y-67506328D01*
X208146514Y-67440097D01*
X208145419Y-67361077D01*
X208144765Y-67267871D01*
X208144484Y-67159079D01*
X208144509Y-67033303D01*
X208144772Y-66889145D01*
X208145206Y-66725207D01*
X208145745Y-66540089D01*
X208146279Y-66361232D01*
X208146805Y-66202374D01*
X208147350Y-66063316D01*
X208147945Y-65942665D01*
X208148619Y-65839028D01*
X208149403Y-65751011D01*
X208150326Y-65677223D01*
X208151419Y-65616269D01*
X208152712Y-65566757D01*
X208154235Y-65527293D01*
X208156019Y-65496484D01*
X208158092Y-65472938D01*
X208160486Y-65455260D01*
X208163230Y-65442059D01*
X208166356Y-65431940D01*
X208169892Y-65423511D01*
X208173791Y-65415375D01*
X208193438Y-65378544D01*
X208212225Y-65348391D01*
X208213272Y-65346908D01*
X208227602Y-65324659D01*
X208233511Y-65311702D01*
X208232504Y-65311249D01*
X208215305Y-65309803D01*
X208178656Y-65308480D01*
X208124962Y-65307316D01*
X208056630Y-65306347D01*
X207976064Y-65305611D01*
X207885670Y-65305142D01*
X207787853Y-65304978D01*
X207342195Y-65304978D01*
X207339120Y-66481845D01*
X207336045Y-67658711D01*
X207309407Y-67717622D01*
X207297485Y-67742183D01*
X207280246Y-67772434D01*
X207267074Y-67789560D01*
X207259076Y-67797591D01*
X207251378Y-67812493D01*
X206959942Y-67812493D01*
X206959474Y-67720029D01*
X206959050Y-67604617D01*
X206958706Y-67474160D01*
X206958434Y-67327716D01*
X206958227Y-67164344D01*
X206958076Y-66983101D01*
X206957972Y-66783048D01*
X206957908Y-66563241D01*
X206957876Y-66322739D01*
X206957867Y-66060602D01*
X206957867Y-63869031D01*
X206996249Y-63830649D01*
X207023355Y-63806911D01*
X207050253Y-63795111D01*
X207086560Y-63792267D01*
X207138489Y-63792267D01*
X207138489Y-63880206D01*
X207140427Y-63930102D01*
X207159199Y-64040523D01*
X207196217Y-64141987D01*
X207249369Y-64233152D01*
X207316546Y-64312673D01*
X207395638Y-64379205D01*
X207484534Y-64431406D01*
X207581125Y-64467930D01*
X207683300Y-64487434D01*
X207788950Y-64488573D01*
X207895964Y-64470005D01*
X208002232Y-64430384D01*
X208099219Y-64372516D01*
X208184293Y-64297684D01*
X208253015Y-64209615D01*
X208303918Y-64110616D01*
X208335535Y-64002993D01*
X208346400Y-63889054D01*
X208346400Y-63792267D01*
X209966753Y-63792267D01*
X210177897Y-63792280D01*
X210382020Y-63792330D01*
X210565686Y-63792430D01*
X210729991Y-63792592D01*
X210876029Y-63792829D01*
X211004894Y-63793153D01*
X211117683Y-63793575D01*
X211215488Y-63794109D01*
X211299404Y-63794767D01*
X211370527Y-63795561D01*
X211429950Y-63796504D01*
X211478768Y-63797608D01*
X211518077Y-63798884D01*
X211548969Y-63800347D01*
X211572541Y-63802007D01*
X211589886Y-63803878D01*
X211602099Y-63805972D01*
X211610275Y-63808300D01*
X211615508Y-63810876D01*
X211621504Y-63814445D01*
X211628279Y-63817978D01*
X211634478Y-63821488D01*
X211640126Y-63825918D01*
X211645247Y-63832208D01*
X211649869Y-63841301D01*
X211654015Y-63854139D01*
X211657713Y-63871662D01*
X211660987Y-63894813D01*
X211663863Y-63924534D01*
X211666367Y-63961765D01*
X211668524Y-64007449D01*
X211670360Y-64062527D01*
X211671900Y-64127941D01*
X211673170Y-64204633D01*
X211674195Y-64293544D01*
X211675001Y-64395617D01*
X211675034Y-64401867D01*
X211675614Y-64511792D01*
G36*
X211675614Y-64511792D02*
G01*
X211676059Y-64643011D01*
X211676362Y-64790216D01*
X211676548Y-64954349D01*
X211676642Y-65136352D01*
X211676671Y-65337165D01*
X211676661Y-65557732D01*
X211676636Y-65798992D01*
X211676622Y-66061889D01*
X211676622Y-66104040D01*
X211676646Y-66364668D01*
X211676685Y-66603796D01*
X211676708Y-66822360D01*
X211676687Y-67021295D01*
X211676593Y-67201535D01*
X211676395Y-67364015D01*
X211676063Y-67509670D01*
X211675569Y-67639434D01*
X211674883Y-67754243D01*
X211673976Y-67855030D01*
X211672817Y-67942730D01*
X211671378Y-68018279D01*
X211669629Y-68082611D01*
X211667540Y-68136661D01*
X211665083Y-68181363D01*
X211662227Y-68217652D01*
X211658943Y-68246463D01*
X211655202Y-68268731D01*
X211650974Y-68285390D01*
X211646229Y-68297375D01*
X211640939Y-68305621D01*
X211635073Y-68311062D01*
X211628602Y-68314634D01*
X211621497Y-68317270D01*
X211613728Y-68319906D01*
X211605266Y-68323477D01*
X211600908Y-68325145D01*
X211592395Y-68327111D01*
X211579694Y-68328911D01*
X211561885Y-68330555D01*
X211538049Y-68332047D01*
X211507266Y-68333397D01*
X211468617Y-68334611D01*
X211421182Y-68335697D01*
X211364043Y-68336661D01*
X211296279Y-68337511D01*
X211216971Y-68338253D01*
X211125199Y-68338897D01*
X211020044Y-68339447D01*
X210900587Y-68339913D01*
X210765908Y-68340300D01*
X210615088Y-68340616D01*
X210447206Y-68340869D01*
X210261345Y-68341066D01*
X210056583Y-68341213D01*
X209832002Y-68341318D01*
X209586682Y-68341389D01*
X209319704Y-68341432D01*
X209281321Y-68341437D01*
X209015922Y-68341480D01*
X208772050Y-68341525D01*
X208548783Y-68341548D01*
X208345196Y-68341524D01*
X208160367Y-68341430D01*
X207993373Y-68341243D01*
X207843290Y-68340939D01*
X207709196Y-68340494D01*
X207590166Y-68339885D01*
X207485279Y-68339089D01*
X207393610Y-68338080D01*
X207314237Y-68336837D01*
X207246237Y-68335335D01*
X207188686Y-68333551D01*
X207140662Y-68331461D01*
X207101240Y-68329042D01*
X207069499Y-68326270D01*
X207044514Y-68323121D01*
X207025364Y-68319572D01*
X207011123Y-68315598D01*
X207000871Y-68311178D01*
X206993682Y-68306286D01*
X206988635Y-68300900D01*
X206984805Y-68294996D01*
X206981271Y-68288549D01*
X206977108Y-68281537D01*
X206976025Y-68279687D01*
X206973813Y-68274180D01*
X206971786Y-68265868D01*
X206969938Y-68253809D01*
X206968261Y-68237063D01*
X206966745Y-68214687D01*
X206965383Y-68185740D01*
X206964167Y-68149280D01*
X206963089Y-68104367D01*
X206962140Y-68050057D01*
X206961312Y-67985410D01*
X206960597Y-67909484D01*
X206959987Y-67821338D01*
X206959942Y-67812493D01*
X207251378Y-67812493D01*
X207255260Y-67813765D01*
X207278520Y-67815791D01*
X207320874Y-67817626D01*
X207380132Y-67819227D01*
X207454107Y-67820549D01*
X207540610Y-67821548D01*
X207637452Y-67822180D01*
X207742445Y-67822400D01*
X208440651Y-67822400D01*
X209595090Y-67822400D01*
X209594456Y-67746200D01*
X209595574Y-67704160D01*
X209601304Y-67668334D01*
X209613890Y-67630772D01*
X209635568Y-67582577D01*
X209638789Y-67575897D01*
X209664188Y-67526359D01*
X209690996Y-67478369D01*
X209713917Y-67441466D01*
X209718485Y-67434834D01*
X209740516Y-67403593D01*
X209772693Y-67358654D01*
X209813457Y-67302147D01*
X209861245Y-67236204D01*
X209914498Y-67162957D01*
X209971655Y-67084536D01*
X210031155Y-67003072D01*
X210091437Y-66920698D01*
X210150940Y-66839544D01*
X210208105Y-66761742D01*
X210261370Y-66689423D01*
X210309174Y-66624718D01*
X210349957Y-66569759D01*
X210382158Y-66526676D01*
X210404216Y-66497602D01*
X210414571Y-66484667D01*
X210419044Y-66480351D01*
X210423236Y-66478312D01*
X210426643Y-66480926D01*
X210429325Y-66489986D01*
X210431341Y-66507285D01*
X210432748Y-66534614D01*
X210433605Y-66573765D01*
X210433970Y-66626533D01*
X210433903Y-66694707D01*
X210433460Y-66780082D01*
X210432702Y-66884449D01*
X210431685Y-67009600D01*
X210431308Y-67054300D01*
X210430169Y-67175395D01*
X210428972Y-67276688D01*
X210427636Y-67360262D01*
X210426077Y-67428204D01*
X210424215Y-67482599D01*
X210421966Y-67525532D01*
X210419248Y-67559089D01*
X210415979Y-67585355D01*
X210412078Y-67606416D01*
X210407461Y-67624357D01*
X210399192Y-67650770D01*
X210375583Y-67712772D01*
X210349685Y-67765573D01*
X210324535Y-67802645D01*
X210323339Y-67804075D01*
X210321168Y-67808424D01*
X210323328Y-67812026D01*
X210331644Y-67814951D01*
X210347940Y-67817269D01*
X210374041Y-67819051D01*
X210411771Y-67820367D01*
X210462956Y-67821286D01*
X210529420Y-67821878D01*
X210612987Y-67822215D01*
X210715483Y-67822365D01*
X210838732Y-67822400D01*
X211370296Y-67822400D01*
X211331523Y-67764783D01*
X211325432Y-67755893D01*
X211314976Y-67741069D01*
X211305579Y-67727422D01*
X211297183Y-67713765D01*
X211289733Y-67698911D01*
X211283173Y-67681670D01*
X211277446Y-67660855D01*
X211272495Y-67635280D01*
X211268266Y-67603755D01*
X211264701Y-67565093D01*
X211261744Y-67518107D01*
X211259340Y-67461608D01*
X211257431Y-67394409D01*
X211255962Y-67315322D01*
X211254876Y-67223160D01*
X211254118Y-67116734D01*
X211253630Y-66994857D01*
X211253358Y-66856341D01*
X211253243Y-66699999D01*
X211253231Y-66524642D01*
X211253265Y-66329082D01*
X211253289Y-66112133D01*
X211253280Y-65989513D01*
X211253243Y-65784447D01*
X211253227Y-65600116D01*
X211253288Y-65435334D01*
X211253484Y-65288916D01*
X211253870Y-65159674D01*
X211254505Y-65046422D01*
X211255444Y-64947975D01*
X211256745Y-64863144D01*
X211258464Y-64790744D01*
X211260659Y-64729589D01*
X211263385Y-64678492D01*
X211266701Y-64636267D01*
X211270662Y-64601727D01*
X211275325Y-64573686D01*
X211280747Y-64550958D01*
X211286986Y-64532356D01*
X211294097Y-64516693D01*
X211302138Y-64502784D01*
X211311166Y-64489441D01*
X211321236Y-64475479D01*
X211332407Y-64459711D01*
X211372197Y-64401867D01*
X210312314Y-64401867D01*
X210350311Y-64464966D01*
X210364993Y-64490005D01*
X210379531Y-64517586D01*
X210391627Y-64545700D01*
X210401532Y-64576551D01*
X210409494Y-64612344D01*
X210415761Y-64655283D01*
X210420582Y-64707574D01*
X210424206Y-64771419D01*
X210426881Y-64849025D01*
X210428857Y-64942594D01*
X210430382Y-65054333D01*
X210431704Y-65186445D01*
X210432613Y-65306434D01*
X210433020Y-65423063D01*
X210432767Y-65518531D01*
X210431857Y-65592556D01*
X210430293Y-65644855D01*
X210428079Y-65675149D01*
X210425220Y-65683156D01*
X210422161Y-65679858D01*
X210404006Y-65658408D01*
X210374275Y-65621889D01*
X210334639Y-65572442D01*
X210286771Y-65512207D01*
X210232343Y-65443327D01*
X210173027Y-65367943D01*
X210110495Y-65288196D01*
X210046421Y-65206228D01*
X209982475Y-65124180D01*
X209920331Y-65044194D01*
X209861661Y-64968411D01*
X209808137Y-64898973D01*
X209761430Y-64838021D01*
X209723214Y-64787696D01*
X209695161Y-64750140D01*
X209678943Y-64727495D01*
X209633635Y-64655212D01*
X209593661Y-64575463D01*
X209572130Y-64507188D01*
X209568827Y-64449844D01*
X209574116Y-64401867D01*
X208442356Y-64402117D01*
X208481867Y-64432722D01*
X208491248Y-64440089D01*
X208554183Y-64494438D01*
X208622997Y-64562259D01*
X208699596Y-64645516D01*
X208785888Y-64746178D01*
X208803052Y-64766847D01*
X208843833Y-64816409D01*
X208893588Y-64877326D01*
X208950955Y-64947898D01*
X209014569Y-65026424D01*
X209083069Y-65111204D01*
X209155090Y-65200537D01*
X209229270Y-65292722D01*
X209244517Y-65311702D01*
X209304246Y-65386060D01*
X209378653Y-65478848D01*
X209451131Y-65569388D01*
X209520314Y-65655978D01*
X209584841Y-65736918D01*
X209643347Y-65810506D01*
X209694470Y-65875044D01*
X209736847Y-65928829D01*
X209769115Y-65970162D01*
X209789910Y-65997342D01*
X209797869Y-66008668D01*
X209796111Y-66012771D01*
X209783230Y-66033334D01*
X209758885Y-66069561D01*
X209724247Y-66119824D01*
X209680486Y-66182492D01*
X209628775Y-66255936D01*
X209570284Y-66338527D01*
X209506184Y-66428636D01*
X209437646Y-66524631D01*
X209365843Y-66624885D01*
X209291944Y-66727768D01*
X209217121Y-66831650D01*
X209142545Y-66934901D01*
X209069387Y-67035892D01*
X208998819Y-67132994D01*
X208932011Y-67224577D01*
X208870135Y-67309011D01*
X208814361Y-67384667D01*
X208765862Y-67449916D01*
X208725807Y-67503128D01*
X208695369Y-67542673D01*
X208674944Y-67568026D01*
X208628899Y-67622295D01*
X208578612Y-67678775D01*
X208531815Y-67728669D01*
X208440651Y-67822400D01*
X207742445Y-67822400D01*
X207811356Y-67822349D01*
X207909607Y-67822091D01*
X207999030Y-67821637D01*
X208077333Y-67821010D01*
X208142223Y-67820235D01*
X208191411Y-67819335D01*
X208222604Y-67818334D01*
X208233511Y-67817257D01*
X208232322Y-67814037D01*
X208222176Y-67796452D01*
X208205040Y-67770158D01*
X208196540Y-67757691D01*
X208187329Y-67743622D01*
X208179233Y-67729351D01*
X208172185Y-67713479D01*
X208166117Y-67694609D01*
X208160961Y-67671341D01*
X208156651Y-67642278D01*
X208153119Y-67606021D01*
X208150297Y-67561170D01*
X208148118Y-67506328D01*
X208146514Y-67440097D01*
X208145419Y-67361077D01*
X208144765Y-67267871D01*
X208144484Y-67159079D01*
X208144509Y-67033303D01*
X208144772Y-66889145D01*
X208145206Y-66725207D01*
X208145745Y-66540089D01*
X208146279Y-66361232D01*
X208146805Y-66202374D01*
X208147350Y-66063316D01*
X208147945Y-65942665D01*
X208148619Y-65839028D01*
X208149403Y-65751011D01*
X208150326Y-65677223D01*
X208151419Y-65616269D01*
X208152712Y-65566757D01*
X208154235Y-65527293D01*
X208156019Y-65496484D01*
X208158092Y-65472938D01*
X208160486Y-65455260D01*
X208163230Y-65442059D01*
X208166356Y-65431940D01*
X208169892Y-65423511D01*
X208173791Y-65415375D01*
X208193438Y-65378544D01*
X208212225Y-65348391D01*
X208213272Y-65346908D01*
X208227602Y-65324659D01*
X208233511Y-65311702D01*
X208232504Y-65311249D01*
X208215305Y-65309803D01*
X208178656Y-65308480D01*
X208124962Y-65307316D01*
X208056630Y-65306347D01*
X207976064Y-65305611D01*
X207885670Y-65305142D01*
X207787853Y-65304978D01*
X207342195Y-65304978D01*
X207339120Y-66481845D01*
X207336045Y-67658711D01*
X207309407Y-67717622D01*
X207297485Y-67742183D01*
X207280246Y-67772434D01*
X207267074Y-67789560D01*
X207259076Y-67797591D01*
X207251378Y-67812493D01*
X206959942Y-67812493D01*
X206959474Y-67720029D01*
X206959050Y-67604617D01*
X206958706Y-67474160D01*
X206958434Y-67327716D01*
X206958227Y-67164344D01*
X206958076Y-66983101D01*
X206957972Y-66783048D01*
X206957908Y-66563241D01*
X206957876Y-66322739D01*
X206957867Y-66060602D01*
X206957867Y-63869031D01*
X206996249Y-63830649D01*
X207023355Y-63806911D01*
X207050253Y-63795111D01*
X207086560Y-63792267D01*
X207138489Y-63792267D01*
X207138489Y-63880206D01*
X207140427Y-63930102D01*
X207159199Y-64040523D01*
X207196217Y-64141987D01*
X207249369Y-64233152D01*
X207316546Y-64312673D01*
X207395638Y-64379205D01*
X207484534Y-64431406D01*
X207581125Y-64467930D01*
X207683300Y-64487434D01*
X207788950Y-64488573D01*
X207895964Y-64470005D01*
X208002232Y-64430384D01*
X208099219Y-64372516D01*
X208184293Y-64297684D01*
X208253015Y-64209615D01*
X208303918Y-64110616D01*
X208335535Y-64002993D01*
X208346400Y-63889054D01*
X208346400Y-63792267D01*
X209966753Y-63792267D01*
X210177897Y-63792280D01*
X210382020Y-63792330D01*
X210565686Y-63792430D01*
X210729991Y-63792592D01*
X210876029Y-63792829D01*
X211004894Y-63793153D01*
X211117683Y-63793575D01*
X211215488Y-63794109D01*
X211299404Y-63794767D01*
X211370527Y-63795561D01*
X211429950Y-63796504D01*
X211478768Y-63797608D01*
X211518077Y-63798884D01*
X211548969Y-63800347D01*
X211572541Y-63802007D01*
X211589886Y-63803878D01*
X211602099Y-63805972D01*
X211610275Y-63808300D01*
X211615508Y-63810876D01*
X211621504Y-63814445D01*
X211628279Y-63817978D01*
X211634478Y-63821488D01*
X211640126Y-63825918D01*
X211645247Y-63832208D01*
X211649869Y-63841301D01*
X211654015Y-63854139D01*
X211657713Y-63871662D01*
X211660987Y-63894813D01*
X211663863Y-63924534D01*
X211666367Y-63961765D01*
X211668524Y-64007449D01*
X211670360Y-64062527D01*
X211671900Y-64127941D01*
X211673170Y-64204633D01*
X211674195Y-64293544D01*
X211675001Y-64395617D01*
X211675034Y-64401867D01*
X211675614Y-64511792D01*
G37*
D11*
%TO.C,J4*%
X221880000Y-108780000D02*
X220500000Y-108780000D01*
X221880000Y-110160000D02*
X221880000Y-108780000D01*
X221880000Y-111430000D02*
X221880000Y-114080000D01*
X221880000Y-111430000D02*
X219230000Y-111430000D01*
X221880000Y-114080000D02*
X216580000Y-114080000D01*
X219230000Y-108780000D02*
X216580000Y-108780000D01*
X219230000Y-111430000D02*
X219230000Y-108780000D01*
X216580000Y-108780000D02*
X216580000Y-114080000D01*
%TO.C,J3*%
X221980000Y-63780000D02*
X220600000Y-63780000D01*
X221980000Y-65160000D02*
X221980000Y-63780000D01*
X221980000Y-66430000D02*
X221980000Y-69080000D01*
X221980000Y-66430000D02*
X219330000Y-66430000D01*
X221980000Y-69080000D02*
X216680000Y-69080000D01*
X219330000Y-63780000D02*
X216680000Y-63780000D01*
X219330000Y-66430000D02*
X219330000Y-63780000D01*
X216680000Y-63780000D02*
X216680000Y-69080000D01*
%TD*%
M02*
