%TF.GenerationSoftware,KiCad,Pcbnew,9.0.6*%
%TF.CreationDate,2026-01-28T10:40:45+01:00*%
%TF.ProjectId,BreadBoard_Supply,42726561-6442-46f6-9172-645f53757070,rev?*%
%TF.SameCoordinates,Original*%
%TF.FileFunction,Copper,L1,Top*%
%TF.FilePolarity,Positive*%
%FSLAX46Y46*%
G04 Gerber Fmt 4.6, Leading zero omitted, Abs format (unit mm)*
G04 Created by KiCad (PCBNEW 9.0.6) date 2026-01-28 10:40:45*
%MOMM*%
%LPD*%
G01*
G04 APERTURE LIST*
G04 Aperture macros list*
%AMRoundRect*
0 Rectangle with rounded corners*
0 $1 Rounding radius*
0 $2 $3 $4 $5 $6 $7 $8 $9 X,Y pos of 4 corners*
0 Add a 4 corners polygon primitive as box body*
4,1,4,$2,$3,$4,$5,$6,$7,$8,$9,$2,$3,0*
0 Add four circle primitives for the rounded corners*
1,1,$1+$1,$2,$3*
1,1,$1+$1,$4,$5*
1,1,$1+$1,$6,$7*
1,1,$1+$1,$8,$9*
0 Add four rect primitives between the rounded corners*
20,1,$1+$1,$2,$3,$4,$5,0*
20,1,$1+$1,$4,$5,$6,$7,0*
20,1,$1+$1,$6,$7,$8,$9,0*
20,1,$1+$1,$8,$9,$2,$3,0*%
G04 Aperture macros list end*
%TA.AperFunction,SMDPad,CuDef*%
%ADD10RoundRect,0.375000X0.625000X0.375000X-0.625000X0.375000X-0.625000X-0.375000X0.625000X-0.375000X0*%
%TD*%
%TA.AperFunction,SMDPad,CuDef*%
%ADD11RoundRect,0.500000X0.500000X1.400000X-0.500000X1.400000X-0.500000X-1.400000X0.500000X-1.400000X0*%
%TD*%
%TA.AperFunction,SMDPad,CuDef*%
%ADD12RoundRect,0.250001X-0.624999X0.462499X-0.624999X-0.462499X0.624999X-0.462499X0.624999X0.462499X0*%
%TD*%
%TA.AperFunction,SMDPad,CuDef*%
%ADD13RoundRect,0.250001X0.624999X-0.462499X0.624999X0.462499X-0.624999X0.462499X-0.624999X-0.462499X0*%
%TD*%
%TA.AperFunction,ComponentPad*%
%ADD14R,1.700000X1.700000*%
%TD*%
%TA.AperFunction,ComponentPad*%
%ADD15C,1.700000*%
%TD*%
%TA.AperFunction,ComponentPad*%
%ADD16R,3.500000X3.500000*%
%TD*%
%TA.AperFunction,ComponentPad*%
%ADD17RoundRect,0.750000X-0.750000X-1.000000X0.750000X-1.000000X0.750000X1.000000X-0.750000X1.000000X0*%
%TD*%
%TA.AperFunction,ComponentPad*%
%ADD18RoundRect,0.875000X-0.875000X-0.875000X0.875000X-0.875000X0.875000X0.875000X-0.875000X0.875000X0*%
%TD*%
%TA.AperFunction,SMDPad,CuDef*%
%ADD19RoundRect,0.250000X-0.412500X-0.650000X0.412500X-0.650000X0.412500X0.650000X-0.412500X0.650000X0*%
%TD*%
%TA.AperFunction,SMDPad,CuDef*%
%ADD20RoundRect,0.250000X-0.550000X1.250000X-0.550000X-1.250000X0.550000X-1.250000X0.550000X1.250000X0*%
%TD*%
%TA.AperFunction,SMDPad,CuDef*%
%ADD21RoundRect,0.250000X0.650000X-0.412500X0.650000X0.412500X-0.650000X0.412500X-0.650000X-0.412500X0*%
%TD*%
%TA.AperFunction,SMDPad,CuDef*%
%ADD22RoundRect,0.250000X-1.250000X-0.550000X1.250000X-0.550000X1.250000X0.550000X-1.250000X0.550000X0*%
%TD*%
%TA.AperFunction,ViaPad*%
%ADD23C,0.600000*%
%TD*%
%TA.AperFunction,Conductor*%
%ADD24C,1.000000*%
%TD*%
G04 APERTURE END LIST*
D10*
%TO.P,U2,1,GND*%
%TO.N,GND*%
X205600000Y-75200000D03*
%TO.P,U2,2,VO*%
%TO.N,/3.3V*%
X205600000Y-72900000D03*
D11*
X199300000Y-72900000D03*
D10*
%TO.P,U2,3,VI*%
%TO.N,/5V*%
X205600000Y-70600000D03*
%TD*%
%TO.P,U1,1,GND*%
%TO.N,GND*%
X205450000Y-97400000D03*
%TO.P,U1,2,VO*%
%TO.N,/5V*%
X205450000Y-95100000D03*
D11*
X199150000Y-95100000D03*
D10*
%TO.P,U1,3,VI*%
%TO.N,Net-(U1-VI)*%
X205450000Y-92800000D03*
%TD*%
D12*
%TO.P,R3,2*%
%TO.N,Net-(D3-A)*%
X195000000Y-67287500D03*
%TO.P,R3,1*%
%TO.N,/3.3V*%
X195000000Y-64312500D03*
%TD*%
D13*
%TO.P,R2,2*%
%TO.N,Net-(D2-A)*%
X195000000Y-77566500D03*
%TO.P,R2,1*%
%TO.N,/5V*%
X195000000Y-80541500D03*
%TD*%
D12*
%TO.P,R1,2*%
%TO.N,Net-(D1-A)*%
X195000000Y-93795500D03*
%TO.P,R1,1*%
%TO.N,Net-(U1-VI)*%
X195000000Y-90820500D03*
%TD*%
D14*
%TO.P,J4,1,Pin_1*%
%TO.N,GND*%
X220500000Y-110160000D03*
D15*
%TO.P,J4,2,Pin_2*%
X217960000Y-110160000D03*
%TO.P,J4,3,Pin_3*%
%TO.N,/V_OUT*%
X220500000Y-112700000D03*
%TO.P,J4,4,Pin_4*%
X217960000Y-112700000D03*
%TD*%
D14*
%TO.P,J3,1,Pin_1*%
%TO.N,GND*%
X220600000Y-65160000D03*
D15*
%TO.P,J3,2,Pin_2*%
X218060000Y-65160000D03*
%TO.P,J3,3,Pin_3*%
%TO.N,/V_OUT*%
X220600000Y-67700000D03*
%TO.P,J3,4,Pin_4*%
X218060000Y-67700000D03*
%TD*%
D14*
%TO.P,J2,1,Pin_1*%
%TO.N,/3.3V*%
X212000000Y-80000000D03*
D15*
%TO.P,J2,2,Pin_2*%
%TO.N,/V_OUT*%
X212000000Y-82540000D03*
%TO.P,J2,3,Pin_3*%
%TO.N,/5V*%
X212000000Y-85080000D03*
%TD*%
D16*
%TO.P,J1,1*%
%TO.N,Net-(F1-Pad1)*%
X207000000Y-107600000D03*
D17*
%TO.P,J1,2*%
%TO.N,GND*%
X201000000Y-107600000D03*
D18*
%TO.P,J1,3*%
X204000000Y-112300000D03*
%TD*%
D13*
%TO.P,F1,1*%
%TO.N,Net-(F1-Pad1)*%
X211200000Y-104487500D03*
%TO.P,F1,2*%
%TO.N,Net-(U1-VI)*%
X211200000Y-101512500D03*
%TD*%
%TO.P,D3,1,K*%
%TO.N,GND*%
X195000000Y-73892000D03*
%TO.P,D3,2,A*%
%TO.N,Net-(D3-A)*%
X195000000Y-70917000D03*
%TD*%
%TO.P,D2,1,K*%
%TO.N,GND*%
X195000000Y-87146000D03*
%TO.P,D2,2,A*%
%TO.N,Net-(D2-A)*%
X195000000Y-84171000D03*
%TD*%
%TO.P,D1,1,K*%
%TO.N,GND*%
X195000000Y-100400000D03*
%TO.P,D1,2,A*%
%TO.N,Net-(D1-A)*%
X195000000Y-97425000D03*
%TD*%
D19*
%TO.P,C6,1*%
%TO.N,/3.3V*%
X201237500Y-65600000D03*
%TO.P,C6,2*%
%TO.N,GND*%
X204362500Y-65600000D03*
%TD*%
D20*
%TO.P,C5,1*%
%TO.N,/3.3V*%
X211200000Y-71400000D03*
%TO.P,C5,2*%
%TO.N,GND*%
X211200000Y-75800000D03*
%TD*%
D21*
%TO.P,C4,1*%
%TO.N,/5V*%
X200800000Y-88762500D03*
%TO.P,C4,2*%
%TO.N,GND*%
X200800000Y-85637500D03*
%TD*%
D22*
%TO.P,C3,1*%
%TO.N,/5V*%
X199700000Y-81100000D03*
%TO.P,C3,2*%
%TO.N,GND*%
X204100000Y-81100000D03*
%TD*%
D19*
%TO.P,C2,1*%
%TO.N,Net-(U1-VI)*%
X208475000Y-90300000D03*
%TO.P,C2,2*%
%TO.N,GND*%
X211600000Y-90300000D03*
%TD*%
D20*
%TO.P,C1,1*%
%TO.N,Net-(U1-VI)*%
X211300000Y-93700000D03*
%TO.P,C1,2*%
%TO.N,GND*%
X211300000Y-98100000D03*
%TD*%
D23*
%TO.N,GND*%
X204800000Y-86000000D03*
X206800000Y-88800000D03*
X203800000Y-86800000D03*
X205600000Y-89800000D03*
%TO.N,Net-(U1-VI)*%
X203200000Y-91200000D03*
X198600000Y-91000000D03*
%TO.N,Net-(D2-A)*%
X197000000Y-82600000D03*
X197400000Y-78000000D03*
%TO.N,/5V*%
X202800000Y-71000000D03*
X201600000Y-76800000D03*
%TD*%
D24*
%TO.N,Net-(U1-VI)*%
X208600000Y-96400000D02*
X211300000Y-93700000D01*
X208600000Y-98912500D02*
X208600000Y-96400000D01*
X211200000Y-101512500D02*
X208600000Y-98912500D01*
%TO.N,/V_OUT*%
X217960000Y-112700000D02*
X220500000Y-112700000D01*
X218060000Y-67700000D02*
X220600000Y-67700000D01*
%TO.N,/5V*%
X209340000Y-86800000D02*
X211060000Y-85080000D01*
X206000000Y-86800000D02*
X209340000Y-86800000D01*
X204037500Y-88762500D02*
X206000000Y-86800000D01*
X200800000Y-88762500D02*
X204037500Y-88762500D01*
X211060000Y-85080000D02*
X212000000Y-85080000D01*
%TO.N,/V_OUT*%
X214000000Y-108740000D02*
X217960000Y-112700000D01*
X212000000Y-82540000D02*
X214000000Y-84540000D01*
X214000000Y-84540000D02*
X214000000Y-108740000D01*
X213860000Y-82540000D02*
X212000000Y-82540000D01*
X214699000Y-81701000D02*
X213860000Y-82540000D01*
X214699000Y-69485372D02*
X214699000Y-81701000D01*
X218060000Y-67700000D02*
X216484372Y-67700000D01*
X216484372Y-67700000D02*
X214699000Y-69485372D01*
%TO.N,/3.3V*%
X206600000Y-72900000D02*
X205600000Y-72900000D01*
X208400000Y-74700000D02*
X206600000Y-72900000D01*
X210540000Y-80000000D02*
X208400000Y-77860000D01*
X208400000Y-77860000D02*
X208400000Y-74700000D01*
X212000000Y-80000000D02*
X210540000Y-80000000D01*
%TO.N,Net-(U1-VI)*%
X203850000Y-91200000D02*
X205450000Y-92800000D01*
X203200000Y-91200000D02*
X203850000Y-91200000D01*
X198420500Y-90820500D02*
X198600000Y-91000000D01*
X195000000Y-90820500D02*
X198420500Y-90820500D01*
%TO.N,Net-(D2-A)*%
X195433500Y-78000000D02*
X195000000Y-77566500D01*
X197400000Y-78000000D02*
X195433500Y-78000000D01*
X195429000Y-84171000D02*
X197000000Y-82600000D01*
X195000000Y-84171000D02*
X195429000Y-84171000D01*
%TO.N,/5V*%
X205200000Y-71000000D02*
X205600000Y-70600000D01*
X202800000Y-71000000D02*
X205200000Y-71000000D01*
X199700000Y-78700000D02*
X201600000Y-76800000D01*
X199700000Y-81100000D02*
X199700000Y-78700000D01*
%TO.N,Net-(F1-Pad1)*%
X208087500Y-107600000D02*
X211200000Y-104487500D01*
X207000000Y-107600000D02*
X208087500Y-107600000D01*
%TO.N,Net-(U1-VI)*%
X211300000Y-93125000D02*
X208475000Y-90300000D01*
X211300000Y-93700000D02*
X211300000Y-93125000D01*
X205975000Y-92800000D02*
X208475000Y-90300000D01*
X205450000Y-92800000D02*
X205975000Y-92800000D01*
%TO.N,Net-(D1-A)*%
X195000000Y-93795500D02*
X195000000Y-97425000D01*
%TO.N,/5V*%
X205450000Y-95100000D02*
X199150000Y-95100000D01*
X200800000Y-93450000D02*
X199150000Y-95100000D01*
X200800000Y-88762500D02*
X200800000Y-93450000D01*
X198900000Y-86862500D02*
X200800000Y-88762500D01*
X199700000Y-81100000D02*
X198900000Y-81900000D01*
X198900000Y-81900000D02*
X198900000Y-86862500D01*
X199141500Y-80541500D02*
X199700000Y-81100000D01*
X195000000Y-80541500D02*
X199141500Y-80541500D01*
%TO.N,/3.3V*%
X199300000Y-72900000D02*
X205600000Y-72900000D01*
X209700000Y-72900000D02*
X205600000Y-72900000D01*
X211200000Y-71400000D02*
X209700000Y-72900000D01*
X199300000Y-67537500D02*
X201237500Y-65600000D01*
X199300000Y-72900000D02*
X199300000Y-67537500D01*
%TO.N,Net-(D3-A)*%
X195000000Y-67287500D02*
X195000000Y-70917000D01*
%TO.N,/3.3V*%
X199950000Y-64312500D02*
X201237500Y-65600000D01*
X195000000Y-64312500D02*
X199950000Y-64312500D01*
%TD*%
%TA.AperFunction,Conductor*%
%TO.N,GND*%
G36*
X193628638Y-63420185D02*
G01*
X193674393Y-63472989D01*
X193684337Y-63542147D01*
X193679306Y-63563499D01*
X193635001Y-63697203D01*
X193635001Y-63697204D01*
X193635000Y-63697204D01*
X193624500Y-63799984D01*
X193624500Y-64825015D01*
X193635000Y-64927795D01*
X193635001Y-64927796D01*
X193690186Y-65094335D01*
X193690187Y-65094337D01*
X193782286Y-65243651D01*
X193782289Y-65243655D01*
X193906344Y-65367710D01*
X193906348Y-65367713D01*
X194055662Y-65459812D01*
X194055664Y-65459813D01*
X194055666Y-65459814D01*
X194222203Y-65514999D01*
X194324992Y-65525500D01*
X194324997Y-65525500D01*
X195675003Y-65525500D01*
X195675008Y-65525500D01*
X195777797Y-65514999D01*
X195944334Y-65459814D01*
X196093655Y-65367711D01*
X196112047Y-65349319D01*
X196173370Y-65315834D01*
X196199728Y-65313000D01*
X199484218Y-65313000D01*
X199513658Y-65321644D01*
X199543645Y-65328168D01*
X199548660Y-65331922D01*
X199551257Y-65332685D01*
X199571899Y-65349319D01*
X199734898Y-65512318D01*
X199768383Y-65573641D01*
X199763399Y-65643333D01*
X199734897Y-65687680D01*
X198662220Y-66760359D01*
X198662218Y-66760361D01*
X198609213Y-66813366D01*
X198522859Y-66899719D01*
X198413371Y-67063579D01*
X198413364Y-67063592D01*
X198337950Y-67245660D01*
X198337947Y-67245670D01*
X198299500Y-67438956D01*
X198299500Y-70558648D01*
X198279815Y-70625687D01*
X198250590Y-70655252D01*
X198251467Y-70656328D01*
X198088890Y-70788890D01*
X197960304Y-70946590D01*
X197866089Y-71126954D01*
X197822672Y-71278693D01*
X197816217Y-71301255D01*
X197810114Y-71322583D01*
X197810113Y-71322586D01*
X197802607Y-71407016D01*
X197800608Y-71429508D01*
X197799500Y-71441966D01*
X197799500Y-74358028D01*
X197799501Y-74358034D01*
X197810113Y-74477415D01*
X197866089Y-74673045D01*
X197866090Y-74673048D01*
X197866091Y-74673049D01*
X197960302Y-74853407D01*
X197960304Y-74853409D01*
X198088890Y-75011109D01*
X198122922Y-75038858D01*
X198246593Y-75139698D01*
X198426951Y-75233909D01*
X198622582Y-75289886D01*
X198741963Y-75300500D01*
X199858036Y-75300499D01*
X199977418Y-75289886D01*
X200173049Y-75233909D01*
X200353407Y-75139698D01*
X200511109Y-75011109D01*
X200639698Y-74853407D01*
X200733909Y-74673049D01*
X200789886Y-74477418D01*
X200800500Y-74358037D01*
X200800500Y-74024500D01*
X200820185Y-73957461D01*
X200872989Y-73911706D01*
X200924500Y-73900500D01*
X204312076Y-73900500D01*
X204335308Y-73907321D01*
X204359389Y-73909881D01*
X204374527Y-73918837D01*
X204379115Y-73920185D01*
X204389751Y-73927844D01*
X204421885Y-73953674D01*
X204461803Y-74011017D01*
X204464383Y-74080839D01*
X204428804Y-74140972D01*
X204421885Y-74146967D01*
X204352631Y-74202635D01*
X204233392Y-74350974D01*
X204233390Y-74350977D01*
X204148831Y-74521476D01*
X204102897Y-74706175D01*
X204100000Y-74748903D01*
X204100000Y-74950000D01*
X207116744Y-74950000D01*
X207141182Y-74936656D01*
X207210874Y-74941640D01*
X207255221Y-74970141D01*
X207363181Y-75078101D01*
X207396666Y-75139424D01*
X207399500Y-75165782D01*
X207399500Y-77958544D01*
X207437947Y-78151828D01*
X207437950Y-78151840D01*
X207453651Y-78189744D01*
X207513366Y-78333911D01*
X207513371Y-78333920D01*
X207622860Y-78497781D01*
X207622863Y-78497785D01*
X207766537Y-78641459D01*
X207766559Y-78641479D01*
X209759735Y-80634655D01*
X209759764Y-80634686D01*
X209902214Y-80777136D01*
X209902218Y-80777139D01*
X210066079Y-80886628D01*
X210066083Y-80886630D01*
X210066086Y-80886632D01*
X210189977Y-80937949D01*
X210248164Y-80962051D01*
X210344812Y-80981275D01*
X210417628Y-80995759D01*
X210441458Y-81000500D01*
X210441459Y-81000500D01*
X210441460Y-81000500D01*
X210585859Y-81000500D01*
X210652898Y-81020185D01*
X210698653Y-81072989D01*
X210702030Y-81081140D01*
X210706204Y-81092331D01*
X210706205Y-81092332D01*
X210706206Y-81092335D01*
X210792452Y-81207544D01*
X210792455Y-81207547D01*
X210907664Y-81293793D01*
X210907671Y-81293797D01*
X211039082Y-81342810D01*
X211095016Y-81384681D01*
X211119433Y-81450145D01*
X211104582Y-81518418D01*
X211083431Y-81546673D01*
X210969889Y-81660215D01*
X210844951Y-81832179D01*
X210748444Y-82021585D01*
X210682753Y-82223760D01*
X210649500Y-82433713D01*
X210649500Y-82646286D01*
X210672834Y-82793615D01*
X210682754Y-82856243D01*
X210714896Y-82955166D01*
X210748444Y-83058414D01*
X210844951Y-83247820D01*
X210969890Y-83419786D01*
X211120213Y-83570109D01*
X211292182Y-83695050D01*
X211300946Y-83699516D01*
X211351742Y-83747491D01*
X211368536Y-83815312D01*
X211345998Y-83881447D01*
X211300946Y-83920484D01*
X211292182Y-83924949D01*
X211116266Y-84052759D01*
X211115635Y-84051891D01*
X211056581Y-84078359D01*
X211039800Y-84079500D01*
X210961456Y-84079500D01*
X210768171Y-84117946D01*
X210768167Y-84117948D01*
X210768165Y-84117948D01*
X210768164Y-84117949D01*
X210692745Y-84149188D01*
X210692743Y-84149189D01*
X210586089Y-84193366D01*
X210586079Y-84193371D01*
X210472085Y-84269541D01*
X210472084Y-84269542D01*
X210422215Y-84302862D01*
X210422214Y-84302863D01*
X208961899Y-85763181D01*
X208900576Y-85796666D01*
X208874218Y-85799500D01*
X205901455Y-85799500D01*
X205809111Y-85817868D01*
X205809099Y-85817871D01*
X205804812Y-85818724D01*
X205708164Y-85837949D01*
X205661836Y-85857139D01*
X205654631Y-85860123D01*
X205654625Y-85860125D01*
X205526092Y-85913364D01*
X205526079Y-85913371D01*
X205362219Y-86022859D01*
X205293895Y-86091184D01*
X205222861Y-86162218D01*
X205222858Y-86162221D01*
X204424037Y-86961043D01*
X203659399Y-87725681D01*
X203598076Y-87759166D01*
X203571718Y-87762000D01*
X201961461Y-87762000D01*
X201896366Y-87743539D01*
X201769334Y-87665186D01*
X201602797Y-87610001D01*
X201602795Y-87610000D01*
X201500016Y-87599500D01*
X201500009Y-87599500D01*
X201103283Y-87599500D01*
X201036244Y-87579815D01*
X201015602Y-87563181D01*
X200464101Y-87011680D01*
X200430616Y-86950357D01*
X200435600Y-86880665D01*
X200477472Y-86824732D01*
X200542936Y-86800315D01*
X200549933Y-86800065D01*
X200550000Y-86799999D01*
X201050000Y-86799999D01*
X201499972Y-86799999D01*
X201499986Y-86799998D01*
X201602697Y-86789505D01*
X201769119Y-86734358D01*
X201769124Y-86734356D01*
X201918345Y-86642315D01*
X202042315Y-86518345D01*
X202134356Y-86369124D01*
X202134358Y-86369119D01*
X202189505Y-86202697D01*
X202189506Y-86202690D01*
X202199999Y-86099986D01*
X202200000Y-86099973D01*
X202200000Y-85887500D01*
X201050000Y-85887500D01*
X201050000Y-86799999D01*
X200550000Y-86799999D01*
X200550000Y-85387500D01*
X201050000Y-85387500D01*
X202199999Y-85387500D01*
X202199999Y-85175028D01*
X202199998Y-85175013D01*
X202189505Y-85072302D01*
X202134358Y-84905880D01*
X202134356Y-84905875D01*
X202042315Y-84756654D01*
X201918345Y-84632684D01*
X201769124Y-84540643D01*
X201769119Y-84540641D01*
X201602697Y-84485494D01*
X201602690Y-84485493D01*
X201499986Y-84475000D01*
X201050000Y-84475000D01*
X201050000Y-85387500D01*
X200550000Y-85387500D01*
X200550000Y-84475000D01*
X200100028Y-84475000D01*
X200100010Y-84475001D01*
X200037101Y-84481428D01*
X199968408Y-84468658D01*
X199917524Y-84420777D01*
X199900500Y-84358070D01*
X199900500Y-82524499D01*
X199920185Y-82457460D01*
X199972989Y-82411705D01*
X200024500Y-82400499D01*
X201000002Y-82400499D01*
X201000008Y-82400499D01*
X201102797Y-82389999D01*
X201269334Y-82334814D01*
X201418656Y-82242712D01*
X201542712Y-82118656D01*
X201634814Y-81969334D01*
X201689999Y-81802797D01*
X201700500Y-81700009D01*
X201700500Y-81699986D01*
X202100001Y-81699986D01*
X202110494Y-81802697D01*
X202165641Y-81969119D01*
X202165643Y-81969124D01*
X202257684Y-82118345D01*
X202381654Y-82242315D01*
X202530875Y-82334356D01*
X202530880Y-82334358D01*
X202697302Y-82389505D01*
X202697309Y-82389506D01*
X202800019Y-82399999D01*
X203849999Y-82399999D01*
X204350000Y-82399999D01*
X205399972Y-82399999D01*
X205399986Y-82399998D01*
X205502697Y-82389505D01*
X205669119Y-82334358D01*
X205669124Y-82334356D01*
X205818345Y-82242315D01*
X205942315Y-82118345D01*
X206034356Y-81969124D01*
X206034358Y-81969119D01*
X206089505Y-81802697D01*
X206089506Y-81802690D01*
X206099999Y-81699986D01*
X206100000Y-81699973D01*
X206100000Y-81350000D01*
X204350000Y-81350000D01*
X204350000Y-82399999D01*
X203849999Y-82399999D01*
X203850000Y-82399998D01*
X203850000Y-81350000D01*
X202100001Y-81350000D01*
X202100001Y-81699986D01*
X201700500Y-81699986D01*
X201700499Y-81092335D01*
X201700499Y-80500013D01*
X202100000Y-80500013D01*
X202100000Y-80850000D01*
X203850000Y-80850000D01*
X204350000Y-80850000D01*
X206099999Y-80850000D01*
X206099999Y-80500028D01*
X206099998Y-80500013D01*
X206089505Y-80397302D01*
X206034358Y-80230880D01*
X206034356Y-80230875D01*
X205942315Y-80081654D01*
X205818345Y-79957684D01*
X205669124Y-79865643D01*
X205669119Y-79865641D01*
X205502697Y-79810494D01*
X205502690Y-79810493D01*
X205399986Y-79800000D01*
X204350000Y-79800000D01*
X204350000Y-80850000D01*
X203850000Y-80850000D01*
X203850000Y-79800000D01*
X202800028Y-79800000D01*
X202800012Y-79800001D01*
X202697302Y-79810494D01*
X202530880Y-79865641D01*
X202530875Y-79865643D01*
X202381654Y-79957684D01*
X202257684Y-80081654D01*
X202165643Y-80230875D01*
X202165641Y-80230880D01*
X202110494Y-80397302D01*
X202110493Y-80397309D01*
X202100000Y-80500013D01*
X201700499Y-80500013D01*
X201700499Y-80499998D01*
X201700498Y-80499981D01*
X201689999Y-80397203D01*
X201689998Y-80397200D01*
X201634814Y-80230666D01*
X201542712Y-80081344D01*
X201418656Y-79957288D01*
X201269334Y-79865186D01*
X201102797Y-79810001D01*
X201102795Y-79810000D01*
X201000016Y-79799500D01*
X201000009Y-79799500D01*
X200824500Y-79799500D01*
X200757461Y-79779815D01*
X200711706Y-79727011D01*
X200700500Y-79675500D01*
X200700500Y-79165782D01*
X200720185Y-79098743D01*
X200736819Y-79078101D01*
X202377135Y-77437786D01*
X202377136Y-77437785D01*
X202377136Y-77437784D01*
X202377140Y-77437781D01*
X202486631Y-77273914D01*
X202562051Y-77091836D01*
X202600500Y-76898540D01*
X202600500Y-76701460D01*
X202600500Y-76701457D01*
X202600499Y-76701455D01*
X202587349Y-76635344D01*
X202562051Y-76508164D01*
X202502336Y-76364000D01*
X202486632Y-76326087D01*
X202449967Y-76271214D01*
X202377140Y-76162219D01*
X202377138Y-76162217D01*
X202377136Y-76162214D01*
X202237785Y-76022863D01*
X202073912Y-75913367D01*
X201891836Y-75837949D01*
X201891828Y-75837947D01*
X201698543Y-75799500D01*
X201698540Y-75799500D01*
X201501460Y-75799500D01*
X201501457Y-75799500D01*
X201308171Y-75837947D01*
X201308163Y-75837949D01*
X201126087Y-75913367D01*
X200962214Y-76022863D01*
X200962213Y-76022864D01*
X199503180Y-77481899D01*
X199062220Y-77922859D01*
X199062218Y-77922861D01*
X199026539Y-77958540D01*
X198922859Y-78062219D01*
X198813371Y-78226080D01*
X198813364Y-78226093D01*
X198787835Y-78287726D01*
X198787829Y-78287742D01*
X198786134Y-78291836D01*
X198737949Y-78408164D01*
X198724870Y-78473915D01*
X198723358Y-78481515D01*
X198723356Y-78481522D01*
X198699500Y-78601457D01*
X198699500Y-79417000D01*
X198679815Y-79484039D01*
X198627011Y-79529794D01*
X198575500Y-79541000D01*
X196199728Y-79541000D01*
X196132689Y-79521315D01*
X196112047Y-79504681D01*
X196093655Y-79486289D01*
X196093651Y-79486286D01*
X195944337Y-79394187D01*
X195944335Y-79394186D01*
X195861065Y-79366593D01*
X195777797Y-79339001D01*
X195777795Y-79339000D01*
X195675015Y-79328500D01*
X195675008Y-79328500D01*
X194324992Y-79328500D01*
X194324984Y-79328500D01*
X194222204Y-79339000D01*
X194222203Y-79339001D01*
X194055664Y-79394186D01*
X194055662Y-79394187D01*
X193906348Y-79486286D01*
X193906344Y-79486289D01*
X193782289Y-79610344D01*
X193782286Y-79610348D01*
X193690187Y-79759662D01*
X193690186Y-79759664D01*
X193635001Y-79926203D01*
X193635000Y-79926204D01*
X193624500Y-80028984D01*
X193624500Y-81054015D01*
X193635000Y-81156795D01*
X193635001Y-81156796D01*
X193690186Y-81323335D01*
X193690187Y-81323337D01*
X193782286Y-81472651D01*
X193782289Y-81472655D01*
X193906344Y-81596710D01*
X193906348Y-81596713D01*
X194055662Y-81688812D01*
X194055664Y-81688813D01*
X194055666Y-81688814D01*
X194222203Y-81743999D01*
X194324992Y-81754500D01*
X194324997Y-81754500D01*
X195675003Y-81754500D01*
X195675008Y-81754500D01*
X195777797Y-81743999D01*
X195944334Y-81688814D01*
X196093655Y-81596711D01*
X196112047Y-81578319D01*
X196138974Y-81563615D01*
X196164793Y-81547023D01*
X196170993Y-81546131D01*
X196173370Y-81544834D01*
X196199728Y-81542000D01*
X196373782Y-81542000D01*
X196440821Y-81561685D01*
X196486576Y-81614489D01*
X196496520Y-81683647D01*
X196467495Y-81747203D01*
X196442673Y-81769102D01*
X196362219Y-81822859D01*
X196362215Y-81822862D01*
X195263399Y-82921681D01*
X195202076Y-82955166D01*
X195175718Y-82958000D01*
X194324984Y-82958000D01*
X194222204Y-82968500D01*
X194222203Y-82968501D01*
X194055664Y-83023686D01*
X194055662Y-83023687D01*
X193906348Y-83115786D01*
X193906344Y-83115789D01*
X193782289Y-83239844D01*
X193782286Y-83239848D01*
X193690187Y-83389162D01*
X193690186Y-83389164D01*
X193635001Y-83555703D01*
X193635000Y-83555704D01*
X193624500Y-83658484D01*
X193624500Y-84683515D01*
X193635000Y-84786295D01*
X193635001Y-84786296D01*
X193690186Y-84952835D01*
X193690187Y-84952837D01*
X193782286Y-85102151D01*
X193782289Y-85102155D01*
X193906344Y-85226210D01*
X193906348Y-85226213D01*
X194055662Y-85318312D01*
X194055664Y-85318313D01*
X194055666Y-85318314D01*
X194222203Y-85373499D01*
X194324992Y-85384000D01*
X194324997Y-85384000D01*
X195675003Y-85384000D01*
X195675008Y-85384000D01*
X195777797Y-85373499D01*
X195944334Y-85318314D01*
X196093655Y-85226211D01*
X196217711Y-85102155D01*
X196309814Y-84952834D01*
X196364999Y-84786297D01*
X196375500Y-84683508D01*
X196375821Y-84680367D01*
X196376918Y-84680479D01*
X196398500Y-84618755D01*
X196411592Y-84603327D01*
X197687819Y-83327102D01*
X197749142Y-83293617D01*
X197818834Y-83298601D01*
X197874767Y-83340473D01*
X197899184Y-83405937D01*
X197899500Y-83414783D01*
X197899500Y-86961041D01*
X197899500Y-86961043D01*
X197899499Y-86961043D01*
X197937947Y-87154329D01*
X197937950Y-87154339D01*
X198013364Y-87336407D01*
X198013371Y-87336420D01*
X198122859Y-87500280D01*
X198122860Y-87500281D01*
X198122861Y-87500282D01*
X198262218Y-87639639D01*
X198262219Y-87639639D01*
X198269286Y-87646706D01*
X198269285Y-87646706D01*
X198269289Y-87646709D01*
X199363181Y-88740602D01*
X199396666Y-88801925D01*
X199399500Y-88828283D01*
X199399500Y-89225001D01*
X199399501Y-89225019D01*
X199410000Y-89327796D01*
X199410001Y-89327799D01*
X199465185Y-89494331D01*
X199465187Y-89494336D01*
X199467021Y-89497309D01*
X199557288Y-89643656D01*
X199681344Y-89767712D01*
X199740596Y-89804258D01*
X199787321Y-89856204D01*
X199799500Y-89909797D01*
X199799500Y-90658026D01*
X199779815Y-90725065D01*
X199727011Y-90770820D01*
X199657853Y-90780764D01*
X199594297Y-90751739D01*
X199560939Y-90705479D01*
X199504527Y-90569289D01*
X199486631Y-90526085D01*
X199486629Y-90526082D01*
X199486627Y-90526078D01*
X199377139Y-90362218D01*
X199377136Y-90362214D01*
X199197640Y-90182719D01*
X199197639Y-90182718D01*
X199058282Y-90043361D01*
X199058281Y-90043360D01*
X199058280Y-90043359D01*
X198894420Y-89933871D01*
X198894411Y-89933866D01*
X198812662Y-89900005D01*
X198765665Y-89880538D01*
X198712336Y-89858449D01*
X198712332Y-89858448D01*
X198712328Y-89858446D01*
X198615688Y-89839224D01*
X198519044Y-89820000D01*
X198519041Y-89820000D01*
X196199728Y-89820000D01*
X196132689Y-89800315D01*
X196112047Y-89783681D01*
X196093655Y-89765289D01*
X196093651Y-89765286D01*
X195944337Y-89673187D01*
X195944335Y-89673186D01*
X195861065Y-89645593D01*
X195777797Y-89618001D01*
X195777795Y-89618000D01*
X195675015Y-89607500D01*
X195675008Y-89607500D01*
X194324992Y-89607500D01*
X194324984Y-89607500D01*
X194222204Y-89618000D01*
X194222203Y-89618001D01*
X194055664Y-89673186D01*
X194055662Y-89673187D01*
X193906348Y-89765286D01*
X193906344Y-89765289D01*
X193782289Y-89889344D01*
X193782286Y-89889348D01*
X193690187Y-90038662D01*
X193690186Y-90038664D01*
X193635001Y-90205203D01*
X193635000Y-90205204D01*
X193624500Y-90307984D01*
X193624500Y-91333015D01*
X193635000Y-91435795D01*
X193635001Y-91435796D01*
X193690186Y-91602335D01*
X193690187Y-91602337D01*
X193782286Y-91751651D01*
X193782289Y-91751655D01*
X193906344Y-91875710D01*
X193906348Y-91875713D01*
X194055662Y-91967812D01*
X194055664Y-91967813D01*
X194055666Y-91967814D01*
X194222203Y-92022999D01*
X194324992Y-92033500D01*
X194324997Y-92033500D01*
X195675003Y-92033500D01*
X195675008Y-92033500D01*
X195777797Y-92022999D01*
X195944334Y-91967814D01*
X196093655Y-91875711D01*
X196112047Y-91857319D01*
X196173370Y-91823834D01*
X196199728Y-91821000D01*
X197990246Y-91821000D01*
X198057285Y-91840685D01*
X198059137Y-91841898D01*
X198126078Y-91886627D01*
X198126084Y-91886630D01*
X198126085Y-91886631D01*
X198308164Y-91962051D01*
X198501454Y-92000499D01*
X198501457Y-92000500D01*
X198501459Y-92000500D01*
X198698542Y-92000500D01*
X198698543Y-92000499D01*
X198891835Y-91962051D01*
X199073914Y-91886631D01*
X199237781Y-91777139D01*
X199377139Y-91637781D01*
X199486631Y-91473914D01*
X199560939Y-91294518D01*
X199604780Y-91240116D01*
X199671074Y-91218051D01*
X199738773Y-91235330D01*
X199786384Y-91286467D01*
X199799500Y-91341972D01*
X199799500Y-92575500D01*
X199779815Y-92642539D01*
X199727011Y-92688294D01*
X199675500Y-92699500D01*
X198591971Y-92699500D01*
X198591965Y-92699500D01*
X198591964Y-92699501D01*
X198580316Y-92700536D01*
X198472584Y-92710113D01*
X198276954Y-92766089D01*
X198186772Y-92813196D01*
X198096593Y-92860302D01*
X198096591Y-92860303D01*
X198096590Y-92860304D01*
X197938890Y-92988890D01*
X197810304Y-93146590D01*
X197810302Y-93146593D01*
X197766719Y-93230029D01*
X197716089Y-93326954D01*
X197660114Y-93522583D01*
X197660113Y-93522586D01*
X197649500Y-93641966D01*
X197649500Y-96558028D01*
X197649501Y-96558034D01*
X197660113Y-96677415D01*
X197716089Y-96873045D01*
X197716090Y-96873048D01*
X197716091Y-96873049D01*
X197810302Y-97053407D01*
X197810304Y-97053409D01*
X197938890Y-97211109D01*
X198032803Y-97287684D01*
X198096593Y-97339698D01*
X198276951Y-97433909D01*
X198472582Y-97489886D01*
X198591963Y-97500500D01*
X199708036Y-97500499D01*
X199827418Y-97489886D01*
X200023049Y-97433909D01*
X200203407Y-97339698D01*
X200361109Y-97211109D01*
X200489698Y-97053407D01*
X200583909Y-96873049D01*
X200639886Y-96677418D01*
X200650500Y-96558037D01*
X200650500Y-96224500D01*
X200670185Y-96157461D01*
X200722989Y-96111706D01*
X200774500Y-96100500D01*
X204162076Y-96100500D01*
X204185308Y-96107321D01*
X204209389Y-96109881D01*
X204224527Y-96118837D01*
X204229115Y-96120185D01*
X204239751Y-96127844D01*
X204271885Y-96153674D01*
X204311803Y-96211017D01*
X204314383Y-96280839D01*
X204278804Y-96340972D01*
X204271885Y-96346967D01*
X204202631Y-96402635D01*
X204083392Y-96550974D01*
X204083390Y-96550977D01*
X203998831Y-96721476D01*
X203952897Y-96906175D01*
X203950000Y-96948903D01*
X203950000Y-97150000D01*
X206950000Y-97150000D01*
X206950000Y-96948903D01*
X206947102Y-96906175D01*
X206901168Y-96721476D01*
X206816609Y-96550977D01*
X206816607Y-96550974D01*
X206697367Y-96402633D01*
X206697366Y-96402632D01*
X206628115Y-96346967D01*
X206588196Y-96289624D01*
X206585616Y-96219802D01*
X206621194Y-96159669D01*
X206628089Y-96153694D01*
X206697722Y-96097722D01*
X206817030Y-95949296D01*
X206901641Y-95778693D01*
X206947600Y-95593889D01*
X206950500Y-95551123D01*
X206950499Y-94648878D01*
X206947600Y-94606111D01*
X206901641Y-94421307D01*
X206845447Y-94308002D01*
X206817032Y-94250707D01*
X206817030Y-94250704D01*
X206697722Y-94102278D01*
X206697721Y-94102277D01*
X206628514Y-94046647D01*
X206588595Y-93989304D01*
X206586015Y-93919482D01*
X206621594Y-93859349D01*
X206628514Y-93853353D01*
X206637909Y-93845800D01*
X206697722Y-93797722D01*
X206817030Y-93649296D01*
X206901641Y-93478693D01*
X206947600Y-93293889D01*
X206948204Y-93284969D01*
X206972378Y-93219418D01*
X206984232Y-93205686D01*
X208387318Y-91802601D01*
X208448641Y-91769116D01*
X208518333Y-91774100D01*
X208562680Y-91802601D01*
X209963181Y-93203102D01*
X209977884Y-93230029D01*
X209994477Y-93255848D01*
X209995368Y-93262048D01*
X209996666Y-93264425D01*
X209999500Y-93290783D01*
X209999500Y-93534216D01*
X209979815Y-93601255D01*
X209963181Y-93621897D01*
X208936205Y-94648874D01*
X207962220Y-95622859D01*
X207962218Y-95622861D01*
X207895081Y-95689998D01*
X207822859Y-95762219D01*
X207713371Y-95926079D01*
X207713366Y-95926089D01*
X207660038Y-96054831D01*
X207660039Y-96054832D01*
X207642278Y-96097715D01*
X207642277Y-96097717D01*
X207637948Y-96108167D01*
X207637946Y-96108173D01*
X207599500Y-96301454D01*
X207599500Y-96301459D01*
X207599500Y-99011041D01*
X207599500Y-99011043D01*
X207599499Y-99011043D01*
X207637947Y-99204329D01*
X207637950Y-99204339D01*
X207713364Y-99386407D01*
X207713371Y-99386420D01*
X207822859Y-99550280D01*
X207822860Y-99550281D01*
X207822861Y-99550282D01*
X207962218Y-99689639D01*
X207962219Y-99689639D01*
X207969286Y-99696706D01*
X207969285Y-99696706D01*
X207969289Y-99696709D01*
X209788181Y-101515601D01*
X209821666Y-101576924D01*
X209824500Y-101603282D01*
X209824500Y-102025015D01*
X209835000Y-102127795D01*
X209835001Y-102127796D01*
X209890186Y-102294335D01*
X209890187Y-102294337D01*
X209982286Y-102443651D01*
X209982289Y-102443655D01*
X210106344Y-102567710D01*
X210106348Y-102567713D01*
X210255662Y-102659812D01*
X210255664Y-102659813D01*
X210255666Y-102659814D01*
X210422203Y-102714999D01*
X210524992Y-102725500D01*
X210524997Y-102725500D01*
X211875003Y-102725500D01*
X211875008Y-102725500D01*
X211977797Y-102714999D01*
X212144334Y-102659814D01*
X212293655Y-102567711D01*
X212417711Y-102443655D01*
X212509814Y-102294334D01*
X212564999Y-102127797D01*
X212575500Y-102025008D01*
X212575500Y-100999992D01*
X212564999Y-100897203D01*
X212509814Y-100730666D01*
X212460058Y-100650000D01*
X212417713Y-100581348D01*
X212417710Y-100581344D01*
X212293655Y-100457289D01*
X212293651Y-100457286D01*
X212144337Y-100365187D01*
X212144335Y-100365186D01*
X212082666Y-100344751D01*
X212012752Y-100321584D01*
X211955309Y-100281813D01*
X211928486Y-100217297D01*
X211940801Y-100148521D01*
X211988344Y-100097321D01*
X212012754Y-100086173D01*
X212169119Y-100034358D01*
X212169124Y-100034356D01*
X212318345Y-99942315D01*
X212442315Y-99818345D01*
X212534356Y-99669124D01*
X212534358Y-99669119D01*
X212589505Y-99502697D01*
X212589506Y-99502690D01*
X212599999Y-99399986D01*
X212600000Y-99399973D01*
X212600000Y-98350000D01*
X210000000Y-98350000D01*
X210000000Y-98598217D01*
X209993761Y-98619462D01*
X209992182Y-98641551D01*
X209984109Y-98652334D01*
X209980315Y-98665257D01*
X209963579Y-98679758D01*
X209950310Y-98697484D01*
X209937691Y-98702190D01*
X209927511Y-98711012D01*
X209905590Y-98714163D01*
X209884846Y-98721901D01*
X209871685Y-98719038D01*
X209858353Y-98720955D01*
X209838209Y-98711755D01*
X209816573Y-98707049D01*
X209798847Y-98693780D01*
X209794797Y-98691930D01*
X209788319Y-98685898D01*
X209636819Y-98534398D01*
X209603334Y-98473075D01*
X209600500Y-98446717D01*
X209600500Y-96865781D01*
X209620185Y-96798742D01*
X209636814Y-96778104D01*
X209797357Y-96617562D01*
X209858679Y-96584078D01*
X209928371Y-96589062D01*
X209984304Y-96630934D01*
X210008721Y-96696398D01*
X210008395Y-96717847D01*
X210000000Y-96800013D01*
X210000000Y-97850000D01*
X211050000Y-97850000D01*
X211550000Y-97850000D01*
X212599999Y-97850000D01*
X212599999Y-96800028D01*
X212599998Y-96800013D01*
X212589505Y-96697302D01*
X212534358Y-96530880D01*
X212534356Y-96530875D01*
X212442315Y-96381654D01*
X212318345Y-96257684D01*
X212169124Y-96165643D01*
X212169119Y-96165641D01*
X212002697Y-96110494D01*
X212002690Y-96110493D01*
X211899986Y-96100000D01*
X211550000Y-96100000D01*
X211550000Y-97850000D01*
X211050000Y-97850000D01*
X211050000Y-96100000D01*
X210700028Y-96100000D01*
X210700010Y-96100001D01*
X210617844Y-96108395D01*
X210590079Y-96103233D01*
X210561909Y-96101219D01*
X210556182Y-96096932D01*
X210549151Y-96095625D01*
X210528582Y-96076270D01*
X210505976Y-96059347D01*
X210503476Y-96052646D01*
X210498267Y-96047744D01*
X210491427Y-96020340D01*
X210481559Y-95993883D01*
X210483079Y-95986894D01*
X210481347Y-95979954D01*
X210490408Y-95953202D01*
X210496411Y-95925610D01*
X210502519Y-95917450D01*
X210503763Y-95913778D01*
X210517550Y-95897368D01*
X210678103Y-95736815D01*
X210739424Y-95703333D01*
X210765782Y-95700499D01*
X211900002Y-95700499D01*
X211900008Y-95700499D01*
X212002797Y-95689999D01*
X212169334Y-95634814D01*
X212318656Y-95542712D01*
X212442712Y-95418656D01*
X212534814Y-95269334D01*
X212589999Y-95102797D01*
X212600500Y-95000009D01*
X212600499Y-92399992D01*
X212589999Y-92297203D01*
X212534814Y-92130666D01*
X212442712Y-91981344D01*
X212318656Y-91857288D01*
X212318655Y-91857287D01*
X212314149Y-91854508D01*
X212267424Y-91802560D01*
X212256201Y-91733598D01*
X212284044Y-91669515D01*
X212326847Y-91636584D01*
X212331620Y-91634358D01*
X212480845Y-91542315D01*
X212604815Y-91418345D01*
X212696856Y-91269124D01*
X212696858Y-91269119D01*
X212752005Y-91102697D01*
X212752006Y-91102689D01*
X212752142Y-91101366D01*
X212752453Y-91100601D01*
X212753424Y-91096071D01*
X212754231Y-91096243D01*
X212778538Y-91036674D01*
X212835718Y-90996523D01*
X212905529Y-90993659D01*
X212965806Y-91028993D01*
X212997411Y-91091305D01*
X212999500Y-91113968D01*
X212999500Y-108838544D01*
X213037947Y-109031833D01*
X213037949Y-109031837D01*
X213060038Y-109085164D01*
X213113366Y-109213911D01*
X213113371Y-109213920D01*
X213222859Y-109377780D01*
X213222860Y-109377781D01*
X213222861Y-109377782D01*
X213362218Y-109517139D01*
X213362219Y-109517139D01*
X213369286Y-109524206D01*
X213369285Y-109524206D01*
X213369289Y-109524209D01*
X216573576Y-112728496D01*
X216607061Y-112789819D01*
X216609350Y-112805344D01*
X216642753Y-113016239D01*
X216708444Y-113218414D01*
X216804951Y-113407820D01*
X216929890Y-113579786D01*
X217080213Y-113730109D01*
X217252179Y-113855048D01*
X217252181Y-113855049D01*
X217252184Y-113855051D01*
X217441588Y-113951557D01*
X217643757Y-114017246D01*
X217853713Y-114050500D01*
X217853714Y-114050500D01*
X218066286Y-114050500D01*
X218066287Y-114050500D01*
X218276243Y-114017246D01*
X218478412Y-113951557D01*
X218667816Y-113855051D01*
X218682769Y-113844186D01*
X218843734Y-113727241D01*
X218844364Y-113728108D01*
X218903419Y-113701641D01*
X218920200Y-113700500D01*
X219539800Y-113700500D01*
X219606839Y-113720185D01*
X219619365Y-113729493D01*
X219792179Y-113855048D01*
X219792181Y-113855049D01*
X219792184Y-113855051D01*
X219981588Y-113951557D01*
X220183757Y-114017246D01*
X220393713Y-114050500D01*
X220393714Y-114050500D01*
X220606286Y-114050500D01*
X220606287Y-114050500D01*
X220816243Y-114017246D01*
X221018412Y-113951557D01*
X221207816Y-113855051D01*
X221324914Y-113769975D01*
X221379786Y-113730109D01*
X221379788Y-113730106D01*
X221379792Y-113730104D01*
X221530104Y-113579792D01*
X221530106Y-113579788D01*
X221530109Y-113579786D01*
X221655048Y-113407820D01*
X221655047Y-113407820D01*
X221655051Y-113407816D01*
X221751557Y-113218412D01*
X221817246Y-113016243D01*
X221850500Y-112806287D01*
X221850500Y-112593713D01*
X221817246Y-112383757D01*
X221751557Y-112181588D01*
X221655051Y-111992184D01*
X221655049Y-111992181D01*
X221655048Y-111992179D01*
X221530109Y-111820213D01*
X221416181Y-111706285D01*
X221382696Y-111644962D01*
X221387680Y-111575270D01*
X221429552Y-111519337D01*
X221460529Y-111502422D01*
X221592086Y-111453354D01*
X221592093Y-111453350D01*
X221707187Y-111367190D01*
X221707190Y-111367187D01*
X221793350Y-111252093D01*
X221793354Y-111252086D01*
X221843596Y-111117379D01*
X221843598Y-111117372D01*
X221849999Y-111057844D01*
X221850000Y-111057827D01*
X221850000Y-110410000D01*
X220933012Y-110410000D01*
X220965925Y-110352993D01*
X221000000Y-110225826D01*
X221000000Y-110094174D01*
X220965925Y-109967007D01*
X220933012Y-109910000D01*
X221850000Y-109910000D01*
X221850000Y-109262172D01*
X221849999Y-109262155D01*
X221843598Y-109202627D01*
X221843596Y-109202620D01*
X221793354Y-109067913D01*
X221793350Y-109067906D01*
X221707190Y-108952812D01*
X221707187Y-108952809D01*
X221592093Y-108866649D01*
X221592086Y-108866645D01*
X221457379Y-108816403D01*
X221457372Y-108816401D01*
X221397844Y-108810000D01*
X220750000Y-108810000D01*
X220750000Y-109726988D01*
X220692993Y-109694075D01*
X220565826Y-109660000D01*
X220434174Y-109660000D01*
X220307007Y-109694075D01*
X220250000Y-109726988D01*
X220250000Y-108810000D01*
X219602155Y-108810000D01*
X219542627Y-108816401D01*
X219542620Y-108816403D01*
X219407913Y-108866645D01*
X219407906Y-108866649D01*
X219292812Y-108952809D01*
X219292809Y-108952812D01*
X219206649Y-109067906D01*
X219206645Y-109067913D01*
X219156403Y-109202619D01*
X219156401Y-109202626D01*
X219147497Y-109285444D01*
X219144434Y-109285114D01*
X219145336Y-109302094D01*
X219112356Y-109361195D01*
X218442962Y-110030590D01*
X218425925Y-109967007D01*
X218360099Y-109852993D01*
X218267007Y-109759901D01*
X218152993Y-109694075D01*
X218089409Y-109677037D01*
X218721716Y-109044728D01*
X218667550Y-109005375D01*
X218478217Y-108908904D01*
X218276129Y-108843242D01*
X218066246Y-108810000D01*
X217853754Y-108810000D01*
X217643872Y-108843242D01*
X217643869Y-108843242D01*
X217441782Y-108908904D01*
X217252439Y-109005380D01*
X217198282Y-109044727D01*
X217198282Y-109044728D01*
X217830591Y-109677037D01*
X217767007Y-109694075D01*
X217652993Y-109759901D01*
X217559901Y-109852993D01*
X217494075Y-109967007D01*
X217477037Y-110030591D01*
X216844728Y-109398282D01*
X216844727Y-109398282D01*
X216805380Y-109452439D01*
X216708905Y-109641781D01*
X216675251Y-109745356D01*
X216635813Y-109803031D01*
X216571454Y-109830229D01*
X216502608Y-109818314D01*
X216469639Y-109794718D01*
X215036819Y-108361898D01*
X215003334Y-108300575D01*
X215000500Y-108274217D01*
X215000500Y-108152206D01*
X215020185Y-108085167D01*
X215072989Y-108039412D01*
X215142147Y-108029468D01*
X215205703Y-108058493D01*
X215231887Y-108090206D01*
X215299497Y-108207310D01*
X215299499Y-108207312D01*
X215299500Y-108207314D01*
X215392686Y-108300500D01*
X215506814Y-108366392D01*
X215634108Y-108400500D01*
X215765892Y-108400500D01*
X222075500Y-108400500D01*
X222142539Y-108420185D01*
X222188294Y-108472989D01*
X222199500Y-108524500D01*
X222199500Y-114275500D01*
X222179815Y-114342539D01*
X222127011Y-114388294D01*
X222075500Y-114399500D01*
X205895240Y-114399500D01*
X205828201Y-114379815D01*
X205782446Y-114327011D01*
X205772502Y-114257853D01*
X205801527Y-114194297D01*
X205815310Y-114180699D01*
X205850789Y-114150784D01*
X206001655Y-113971848D01*
X206001660Y-113971841D01*
X206120120Y-113769975D01*
X206202762Y-113550987D01*
X206247205Y-113321191D01*
X206247205Y-113321190D01*
X206249998Y-113268617D01*
X206250000Y-113268578D01*
X206250000Y-112550000D01*
X205433012Y-112550000D01*
X205465925Y-112492993D01*
X205500000Y-112365826D01*
X205500000Y-112234174D01*
X205465925Y-112107007D01*
X205433012Y-112050000D01*
X206249999Y-112050000D01*
X206249999Y-111331423D01*
X206249998Y-111331411D01*
X206247205Y-111278808D01*
X206202762Y-111049012D01*
X206120120Y-110830024D01*
X206001660Y-110628158D01*
X206001655Y-110628151D01*
X205850788Y-110449213D01*
X205850786Y-110449211D01*
X205671848Y-110298344D01*
X205671841Y-110298339D01*
X205469975Y-110179879D01*
X205250984Y-110097236D01*
X205245840Y-110096241D01*
X205183760Y-110064180D01*
X205148869Y-110003646D01*
X205152244Y-109933858D01*
X205192814Y-109876973D01*
X205257697Y-109851052D01*
X205269374Y-109850499D01*
X208797872Y-109850499D01*
X208857483Y-109844091D01*
X208992331Y-109793796D01*
X209107546Y-109707546D01*
X209193796Y-109592331D01*
X209244091Y-109457483D01*
X209250500Y-109397873D01*
X209250499Y-107903281D01*
X209270184Y-107836243D01*
X209286818Y-107815601D01*
X211365602Y-105736819D01*
X211426925Y-105703334D01*
X211453283Y-105700500D01*
X211875003Y-105700500D01*
X211875008Y-105700500D01*
X211977797Y-105689999D01*
X212144334Y-105634814D01*
X212293655Y-105542711D01*
X212417711Y-105418655D01*
X212509814Y-105269334D01*
X212564999Y-105102797D01*
X212575500Y-105000008D01*
X212575500Y-103974992D01*
X212564999Y-103872203D01*
X212509814Y-103705666D01*
X212417711Y-103556345D01*
X212293655Y-103432289D01*
X212293651Y-103432286D01*
X212144337Y-103340187D01*
X212144335Y-103340186D01*
X212061065Y-103312593D01*
X211977797Y-103285001D01*
X211977795Y-103285000D01*
X211875015Y-103274500D01*
X211875008Y-103274500D01*
X210524992Y-103274500D01*
X210524984Y-103274500D01*
X210422204Y-103285000D01*
X210422203Y-103285001D01*
X210255664Y-103340186D01*
X210255662Y-103340187D01*
X210106348Y-103432286D01*
X210106344Y-103432289D01*
X209982289Y-103556344D01*
X209982286Y-103556348D01*
X209890187Y-103705662D01*
X209890186Y-103705664D01*
X209835001Y-103872203D01*
X209835000Y-103872204D01*
X209824500Y-103974984D01*
X209824500Y-104396716D01*
X209804815Y-104463755D01*
X209788181Y-104484397D01*
X208952873Y-105319704D01*
X208891550Y-105353189D01*
X208851939Y-105355312D01*
X208797873Y-105349500D01*
X208797865Y-105349500D01*
X205202129Y-105349500D01*
X205202123Y-105349501D01*
X205142516Y-105355908D01*
X205007671Y-105406202D01*
X205007664Y-105406206D01*
X204892455Y-105492452D01*
X204892452Y-105492455D01*
X204806206Y-105607664D01*
X204806202Y-105607671D01*
X204755908Y-105742517D01*
X204749501Y-105802116D01*
X204749500Y-105802135D01*
X204749500Y-109397870D01*
X204749501Y-109397876D01*
X204755908Y-109457483D01*
X204806202Y-109592328D01*
X204806206Y-109592335D01*
X204892452Y-109707544D01*
X204892455Y-109707547D01*
X205007664Y-109793793D01*
X205007673Y-109793798D01*
X205056506Y-109812011D01*
X205112440Y-109853881D01*
X205136858Y-109919345D01*
X205122007Y-109987618D01*
X205072603Y-110037024D01*
X205006598Y-110052018D01*
X204968625Y-110050001D01*
X204968579Y-110050000D01*
X204250000Y-110050000D01*
X204250000Y-111800000D01*
X203750000Y-111800000D01*
X203750000Y-110050000D01*
X203031423Y-110050000D01*
X203031411Y-110050001D01*
X202978808Y-110052794D01*
X202749012Y-110097237D01*
X202530024Y-110179879D01*
X202328158Y-110298339D01*
X202328151Y-110298344D01*
X202149213Y-110449211D01*
X202149211Y-110449213D01*
X201998344Y-110628151D01*
X201998339Y-110628158D01*
X201879879Y-110830024D01*
X201797237Y-111049012D01*
X201752794Y-111278808D01*
X201752794Y-111278809D01*
X201750001Y-111331382D01*
X201750000Y-111331421D01*
X201750000Y-112050000D01*
X202566988Y-112050000D01*
X202534075Y-112107007D01*
X202500000Y-112234174D01*
X202500000Y-112365826D01*
X202534075Y-112492993D01*
X202566988Y-112550000D01*
X201750001Y-112550000D01*
X201750001Y-113268588D01*
X201752794Y-113321191D01*
X201797237Y-113550987D01*
X201879879Y-113769975D01*
X201998339Y-113971841D01*
X201998344Y-113971848D01*
X202149210Y-114150784D01*
X202184690Y-114180699D01*
X202223254Y-114238961D01*
X202224198Y-114308825D01*
X202187221Y-114368108D01*
X202124063Y-114397988D01*
X202104760Y-114399500D01*
X193324500Y-114399500D01*
X193257461Y-114379815D01*
X193211706Y-114327011D01*
X193200500Y-114275500D01*
X193200500Y-106535803D01*
X199000000Y-106535803D01*
X199000000Y-107350000D01*
X200500000Y-107350000D01*
X200500000Y-107850000D01*
X199000001Y-107850000D01*
X199000001Y-108664197D01*
X199010400Y-108796332D01*
X199065377Y-109014519D01*
X199158428Y-109219374D01*
X199158431Y-109219380D01*
X199286559Y-109404323D01*
X199286569Y-109404335D01*
X199445664Y-109563430D01*
X199445676Y-109563440D01*
X199630619Y-109691568D01*
X199630625Y-109691571D01*
X199835480Y-109784622D01*
X200053667Y-109839599D01*
X200185810Y-109849999D01*
X200749999Y-109849999D01*
X200750000Y-109849998D01*
X200750000Y-109033012D01*
X200807007Y-109065925D01*
X200934174Y-109100000D01*
X201065826Y-109100000D01*
X201192993Y-109065925D01*
X201250000Y-109033012D01*
X201250000Y-109849999D01*
X201814182Y-109849999D01*
X201814197Y-109849998D01*
X201946332Y-109839599D01*
X202164519Y-109784622D01*
X202369374Y-109691571D01*
X202369380Y-109691568D01*
X202554323Y-109563440D01*
X202554335Y-109563430D01*
X202713430Y-109404335D01*
X202713440Y-109404323D01*
X202841568Y-109219380D01*
X202841571Y-109219374D01*
X202934622Y-109014519D01*
X202989599Y-108796332D01*
X202999999Y-108664196D01*
X203000000Y-108664184D01*
X203000000Y-107850000D01*
X201500000Y-107850000D01*
X201500000Y-107350000D01*
X202999999Y-107350000D01*
X202999999Y-106535817D01*
X202999998Y-106535802D01*
X202989599Y-106403667D01*
X202934622Y-106185480D01*
X202841571Y-105980625D01*
X202841568Y-105980619D01*
X202713440Y-105795676D01*
X202713430Y-105795664D01*
X202554335Y-105636569D01*
X202554323Y-105636559D01*
X202369380Y-105508431D01*
X202369374Y-105508428D01*
X202164519Y-105415377D01*
X201946332Y-105360400D01*
X201814196Y-105350000D01*
X201250000Y-105350000D01*
X201250000Y-106166988D01*
X201192993Y-106134075D01*
X201065826Y-106100000D01*
X200934174Y-106100000D01*
X200807007Y-106134075D01*
X200750000Y-106166988D01*
X200750000Y-105350000D01*
X200185817Y-105350000D01*
X200185802Y-105350001D01*
X200053667Y-105360400D01*
X199835480Y-105415377D01*
X199630625Y-105508428D01*
X199630619Y-105508431D01*
X199445676Y-105636559D01*
X199445664Y-105636569D01*
X199286569Y-105795664D01*
X199286559Y-105795676D01*
X199158431Y-105980619D01*
X199158428Y-105980625D01*
X199065377Y-106185480D01*
X199010400Y-106403667D01*
X199000000Y-106535803D01*
X193200500Y-106535803D01*
X193200500Y-100912485D01*
X193625000Y-100912485D01*
X193635493Y-101015189D01*
X193635494Y-101015196D01*
X193690641Y-101181618D01*
X193690643Y-101181623D01*
X193782684Y-101330844D01*
X193906655Y-101454815D01*
X194055876Y-101546856D01*
X194055881Y-101546858D01*
X194222303Y-101602005D01*
X194222310Y-101602006D01*
X194325014Y-101612499D01*
X194325027Y-101612500D01*
X194750000Y-101612500D01*
X195250000Y-101612500D01*
X195674973Y-101612500D01*
X195674985Y-101612499D01*
X195777689Y-101602006D01*
X195777696Y-101602005D01*
X195944118Y-101546858D01*
X195944123Y-101546856D01*
X196093344Y-101454815D01*
X196217315Y-101330844D01*
X196309356Y-101181623D01*
X196309358Y-101181618D01*
X196364505Y-101015196D01*
X196364506Y-101015189D01*
X196374999Y-100912485D01*
X196375000Y-100912472D01*
X196375000Y-100650000D01*
X195250000Y-100650000D01*
X195250000Y-101612500D01*
X194750000Y-101612500D01*
X194750000Y-100650000D01*
X193625000Y-100650000D01*
X193625000Y-100912485D01*
X193200500Y-100912485D01*
X193200500Y-99887514D01*
X193625000Y-99887514D01*
X193625000Y-100150000D01*
X194750000Y-100150000D01*
X195250000Y-100150000D01*
X196375000Y-100150000D01*
X196375000Y-99887527D01*
X196374999Y-99887514D01*
X196364506Y-99784810D01*
X196364505Y-99784803D01*
X196309358Y-99618381D01*
X196309356Y-99618376D01*
X196217315Y-99469155D01*
X196093344Y-99345184D01*
X195944123Y-99253143D01*
X195944118Y-99253141D01*
X195777696Y-99197994D01*
X195777689Y-99197993D01*
X195674985Y-99187500D01*
X195250000Y-99187500D01*
X195250000Y-100150000D01*
X194750000Y-100150000D01*
X194750000Y-99187500D01*
X194325014Y-99187500D01*
X194222310Y-99197993D01*
X194222303Y-99197994D01*
X194055881Y-99253141D01*
X194055876Y-99253143D01*
X193906655Y-99345184D01*
X193782684Y-99469155D01*
X193690643Y-99618376D01*
X193690641Y-99618381D01*
X193635494Y-99784803D01*
X193635493Y-99784810D01*
X193625000Y-99887514D01*
X193200500Y-99887514D01*
X193200500Y-93282984D01*
X193624500Y-93282984D01*
X193624500Y-94308015D01*
X193635000Y-94410795D01*
X193635001Y-94410797D01*
X193638484Y-94421307D01*
X193690186Y-94577335D01*
X193690187Y-94577337D01*
X193782286Y-94726651D01*
X193782289Y-94726655D01*
X193906345Y-94850711D01*
X193940596Y-94871837D01*
X193987321Y-94923785D01*
X193999500Y-94977376D01*
X193999500Y-96243122D01*
X193979815Y-96310161D01*
X193940599Y-96348659D01*
X193906347Y-96369786D01*
X193782286Y-96493848D01*
X193690187Y-96643162D01*
X193690186Y-96643164D01*
X193635001Y-96809703D01*
X193635000Y-96809704D01*
X193624500Y-96912484D01*
X193624500Y-97937515D01*
X193635000Y-98040295D01*
X193635001Y-98040296D01*
X193690186Y-98206835D01*
X193690187Y-98206837D01*
X193782286Y-98356151D01*
X193782289Y-98356155D01*
X193906344Y-98480210D01*
X193906348Y-98480213D01*
X194055662Y-98572312D01*
X194055664Y-98572313D01*
X194055666Y-98572314D01*
X194222203Y-98627499D01*
X194324992Y-98638000D01*
X194324997Y-98638000D01*
X195675003Y-98638000D01*
X195675008Y-98638000D01*
X195777797Y-98627499D01*
X195944334Y-98572314D01*
X196093655Y-98480211D01*
X196217711Y-98356155D01*
X196309814Y-98206834D01*
X196364999Y-98040297D01*
X196375500Y-97937508D01*
X196375500Y-97851096D01*
X203950000Y-97851096D01*
X203952897Y-97893824D01*
X203998831Y-98078523D01*
X204083390Y-98249022D01*
X204083392Y-98249025D01*
X204202632Y-98397366D01*
X204202633Y-98397367D01*
X204350974Y-98516607D01*
X204350977Y-98516609D01*
X204521476Y-98601168D01*
X204706175Y-98647102D01*
X204748903Y-98650000D01*
X205200000Y-98650000D01*
X205700000Y-98650000D01*
X206151097Y-98650000D01*
X206193824Y-98647102D01*
X206378523Y-98601168D01*
X206549022Y-98516609D01*
X206549025Y-98516607D01*
X206697366Y-98397367D01*
X206697367Y-98397366D01*
X206816607Y-98249025D01*
X206816609Y-98249022D01*
X206901168Y-98078523D01*
X206947102Y-97893824D01*
X206950000Y-97851096D01*
X206950000Y-97650000D01*
X205700000Y-97650000D01*
X205700000Y-98650000D01*
X205200000Y-98650000D01*
X205200000Y-97650000D01*
X203950000Y-97650000D01*
X203950000Y-97851096D01*
X196375500Y-97851096D01*
X196375500Y-96912492D01*
X196364999Y-96809703D01*
X196309814Y-96643166D01*
X196302269Y-96630934D01*
X196217713Y-96493848D01*
X196217712Y-96493847D01*
X196217711Y-96493845D01*
X196093655Y-96369789D01*
X196093654Y-96369788D01*
X196093652Y-96369786D01*
X196059401Y-96348659D01*
X196012678Y-96296711D01*
X196000500Y-96243122D01*
X196000500Y-94977376D01*
X196020185Y-94910337D01*
X196059402Y-94871838D01*
X196093655Y-94850711D01*
X196217711Y-94726655D01*
X196309814Y-94577334D01*
X196364999Y-94410797D01*
X196375500Y-94308008D01*
X196375500Y-93282992D01*
X196364999Y-93180203D01*
X196309814Y-93013666D01*
X196294532Y-92988891D01*
X196217713Y-92864348D01*
X196217710Y-92864344D01*
X196093655Y-92740289D01*
X196093651Y-92740286D01*
X195944337Y-92648187D01*
X195944335Y-92648186D01*
X195861065Y-92620593D01*
X195777797Y-92593001D01*
X195777795Y-92593000D01*
X195675015Y-92582500D01*
X195675008Y-92582500D01*
X194324992Y-92582500D01*
X194324984Y-92582500D01*
X194222204Y-92593000D01*
X194222203Y-92593001D01*
X194055664Y-92648186D01*
X194055662Y-92648187D01*
X193906348Y-92740286D01*
X193906344Y-92740289D01*
X193782289Y-92864344D01*
X193782286Y-92864348D01*
X193690187Y-93013662D01*
X193690186Y-93013664D01*
X193635001Y-93180203D01*
X193635000Y-93180204D01*
X193624500Y-93282984D01*
X193200500Y-93282984D01*
X193200500Y-87658485D01*
X193625000Y-87658485D01*
X193635493Y-87761189D01*
X193635494Y-87761196D01*
X193690641Y-87927618D01*
X193690643Y-87927623D01*
X193782684Y-88076844D01*
X193906655Y-88200815D01*
X194055876Y-88292856D01*
X194055881Y-88292858D01*
X194222303Y-88348005D01*
X194222310Y-88348006D01*
X194325014Y-88358499D01*
X194325027Y-88358500D01*
X194750000Y-88358500D01*
X195250000Y-88358500D01*
X195674973Y-88358500D01*
X195674985Y-88358499D01*
X195777689Y-88348006D01*
X195777696Y-88348005D01*
X195944118Y-88292858D01*
X195944123Y-88292856D01*
X196093344Y-88200815D01*
X196217315Y-88076844D01*
X196309356Y-87927623D01*
X196309358Y-87927618D01*
X196364505Y-87761196D01*
X196364506Y-87761189D01*
X196374999Y-87658485D01*
X196375000Y-87658472D01*
X196375000Y-87396000D01*
X195250000Y-87396000D01*
X195250000Y-88358500D01*
X194750000Y-88358500D01*
X194750000Y-87396000D01*
X193625000Y-87396000D01*
X193625000Y-87658485D01*
X193200500Y-87658485D01*
X193200500Y-86633514D01*
X193625000Y-86633514D01*
X193625000Y-86896000D01*
X194750000Y-86896000D01*
X195250000Y-86896000D01*
X196375000Y-86896000D01*
X196375000Y-86633527D01*
X196374999Y-86633514D01*
X196364506Y-86530810D01*
X196364505Y-86530803D01*
X196309358Y-86364381D01*
X196309356Y-86364376D01*
X196217315Y-86215155D01*
X196093344Y-86091184D01*
X195944123Y-85999143D01*
X195944118Y-85999141D01*
X195777696Y-85943994D01*
X195777689Y-85943993D01*
X195674985Y-85933500D01*
X195250000Y-85933500D01*
X195250000Y-86896000D01*
X194750000Y-86896000D01*
X194750000Y-85933500D01*
X194325014Y-85933500D01*
X194222310Y-85943993D01*
X194222303Y-85943994D01*
X194055881Y-85999141D01*
X194055876Y-85999143D01*
X193906655Y-86091184D01*
X193782684Y-86215155D01*
X193690643Y-86364376D01*
X193690641Y-86364381D01*
X193635494Y-86530803D01*
X193635493Y-86530810D01*
X193625000Y-86633514D01*
X193200500Y-86633514D01*
X193200500Y-77053984D01*
X193624500Y-77053984D01*
X193624500Y-78079015D01*
X193635000Y-78181795D01*
X193635001Y-78181797D01*
X193649675Y-78226080D01*
X193690186Y-78348335D01*
X193690187Y-78348337D01*
X193782286Y-78497651D01*
X193782289Y-78497655D01*
X193906344Y-78621710D01*
X193906348Y-78621713D01*
X194055662Y-78713812D01*
X194055664Y-78713813D01*
X194055666Y-78713814D01*
X194222203Y-78768999D01*
X194324992Y-78779500D01*
X194761636Y-78779500D01*
X194828675Y-78799185D01*
X194830527Y-78800398D01*
X194959579Y-78886628D01*
X194959585Y-78886631D01*
X194959586Y-78886632D01*
X195141665Y-78962052D01*
X195334955Y-79000500D01*
X195334958Y-79000501D01*
X195334960Y-79000501D01*
X195538155Y-79000501D01*
X195538175Y-79000500D01*
X197498543Y-79000500D01*
X197628582Y-78974632D01*
X197691835Y-78962051D01*
X197873914Y-78886632D01*
X198037782Y-78777139D01*
X198177139Y-78637782D01*
X198270769Y-78497655D01*
X198286631Y-78473916D01*
X198286635Y-78473907D01*
X198338648Y-78348335D01*
X198362051Y-78291835D01*
X198375131Y-78226080D01*
X198400500Y-78098543D01*
X198400500Y-77901456D01*
X198362052Y-77708170D01*
X198362051Y-77708169D01*
X198362051Y-77708165D01*
X198334775Y-77642315D01*
X198286635Y-77526092D01*
X198286628Y-77526079D01*
X198177139Y-77362218D01*
X198177136Y-77362214D01*
X198037785Y-77222863D01*
X198037781Y-77222860D01*
X197873920Y-77113371D01*
X197873907Y-77113364D01*
X197691839Y-77037950D01*
X197691829Y-77037947D01*
X197498543Y-76999500D01*
X197498541Y-76999500D01*
X196470544Y-76999500D01*
X196403505Y-76979815D01*
X196357750Y-76927011D01*
X196352838Y-76914504D01*
X196309814Y-76784666D01*
X196258488Y-76701455D01*
X196217713Y-76635348D01*
X196217710Y-76635344D01*
X196093655Y-76511289D01*
X196093651Y-76511286D01*
X195944337Y-76419187D01*
X195944335Y-76419186D01*
X195861065Y-76391593D01*
X195777797Y-76364001D01*
X195777795Y-76364000D01*
X195675015Y-76353500D01*
X195675008Y-76353500D01*
X194324992Y-76353500D01*
X194324984Y-76353500D01*
X194222204Y-76364000D01*
X194222203Y-76364001D01*
X194055664Y-76419186D01*
X194055662Y-76419187D01*
X193906348Y-76511286D01*
X193906344Y-76511289D01*
X193782289Y-76635344D01*
X193782286Y-76635348D01*
X193690187Y-76784662D01*
X193690186Y-76784664D01*
X193635001Y-76951203D01*
X193635000Y-76951204D01*
X193624500Y-77053984D01*
X193200500Y-77053984D01*
X193200500Y-75651096D01*
X204100000Y-75651096D01*
X204102897Y-75693824D01*
X204148831Y-75878523D01*
X204233390Y-76049022D01*
X204233392Y-76049025D01*
X204352632Y-76197366D01*
X204352633Y-76197367D01*
X204500974Y-76316607D01*
X204500977Y-76316609D01*
X204671476Y-76401168D01*
X204856175Y-76447102D01*
X204898903Y-76450000D01*
X205350000Y-76450000D01*
X205850000Y-76450000D01*
X206301097Y-76450000D01*
X206343824Y-76447102D01*
X206528523Y-76401168D01*
X206699022Y-76316609D01*
X206699025Y-76316607D01*
X206847366Y-76197367D01*
X206847367Y-76197366D01*
X206966607Y-76049025D01*
X206966609Y-76049022D01*
X207051168Y-75878523D01*
X207097102Y-75693824D01*
X207100000Y-75651096D01*
X207100000Y-75450000D01*
X205850000Y-75450000D01*
X205850000Y-76450000D01*
X205350000Y-76450000D01*
X205350000Y-75450000D01*
X204100000Y-75450000D01*
X204100000Y-75651096D01*
X193200500Y-75651096D01*
X193200500Y-74404485D01*
X193625000Y-74404485D01*
X193635493Y-74507189D01*
X193635494Y-74507196D01*
X193690641Y-74673618D01*
X193690643Y-74673623D01*
X193782684Y-74822844D01*
X193906655Y-74946815D01*
X194055876Y-75038856D01*
X194055881Y-75038858D01*
X194222303Y-75094005D01*
X194222310Y-75094006D01*
X194325014Y-75104499D01*
X194325027Y-75104500D01*
X194750000Y-75104500D01*
X195250000Y-75104500D01*
X195674973Y-75104500D01*
X195674985Y-75104499D01*
X195777689Y-75094006D01*
X195777696Y-75094005D01*
X195944118Y-75038858D01*
X195944123Y-75038856D01*
X196093344Y-74946815D01*
X196217315Y-74822844D01*
X196309356Y-74673623D01*
X196309358Y-74673618D01*
X196364505Y-74507196D01*
X196364506Y-74507189D01*
X196374999Y-74404485D01*
X196375000Y-74404472D01*
X196375000Y-74142000D01*
X195250000Y-74142000D01*
X195250000Y-75104500D01*
X194750000Y-75104500D01*
X194750000Y-74142000D01*
X193625000Y-74142000D01*
X193625000Y-74404485D01*
X193200500Y-74404485D01*
X193200500Y-73379514D01*
X193625000Y-73379514D01*
X193625000Y-73642000D01*
X194750000Y-73642000D01*
X195250000Y-73642000D01*
X196375000Y-73642000D01*
X196375000Y-73379527D01*
X196374999Y-73379514D01*
X196364506Y-73276810D01*
X196364505Y-73276803D01*
X196309358Y-73110381D01*
X196309356Y-73110376D01*
X196217315Y-72961155D01*
X196093344Y-72837184D01*
X195944123Y-72745143D01*
X195944118Y-72745141D01*
X195777696Y-72689994D01*
X195777689Y-72689993D01*
X195674985Y-72679500D01*
X195250000Y-72679500D01*
X195250000Y-73642000D01*
X194750000Y-73642000D01*
X194750000Y-72679500D01*
X194325014Y-72679500D01*
X194222310Y-72689993D01*
X194222303Y-72689994D01*
X194055881Y-72745141D01*
X194055876Y-72745143D01*
X193906655Y-72837184D01*
X193782684Y-72961155D01*
X193690643Y-73110376D01*
X193690641Y-73110381D01*
X193635494Y-73276803D01*
X193635493Y-73276810D01*
X193625000Y-73379514D01*
X193200500Y-73379514D01*
X193200500Y-66774984D01*
X193624500Y-66774984D01*
X193624500Y-67800015D01*
X193635000Y-67902795D01*
X193635001Y-67902796D01*
X193690186Y-68069335D01*
X193690187Y-68069337D01*
X193782286Y-68218651D01*
X193782289Y-68218655D01*
X193906345Y-68342711D01*
X193940596Y-68363837D01*
X193987321Y-68415785D01*
X193999500Y-68469376D01*
X193999500Y-69735122D01*
X193979815Y-69802161D01*
X193940599Y-69840659D01*
X193906347Y-69861786D01*
X193782286Y-69985848D01*
X193690187Y-70135162D01*
X193690186Y-70135164D01*
X193635001Y-70301703D01*
X193635000Y-70301704D01*
X193624500Y-70404484D01*
X193624500Y-71429515D01*
X193635000Y-71532295D01*
X193635001Y-71532296D01*
X193690186Y-71698835D01*
X193690187Y-71698837D01*
X193782286Y-71848151D01*
X193782289Y-71848155D01*
X193906344Y-71972210D01*
X193906348Y-71972213D01*
X194055662Y-72064312D01*
X194055664Y-72064313D01*
X194055666Y-72064314D01*
X194222203Y-72119499D01*
X194324992Y-72130000D01*
X194324997Y-72130000D01*
X195675003Y-72130000D01*
X195675008Y-72130000D01*
X195777797Y-72119499D01*
X195944334Y-72064314D01*
X196093655Y-71972211D01*
X196217711Y-71848155D01*
X196309814Y-71698834D01*
X196364999Y-71532297D01*
X196375500Y-71429508D01*
X196375500Y-70404492D01*
X196364999Y-70301703D01*
X196309814Y-70135166D01*
X196296366Y-70113364D01*
X196217713Y-69985848D01*
X196217712Y-69985847D01*
X196217711Y-69985845D01*
X196093655Y-69861789D01*
X196093654Y-69861788D01*
X196093652Y-69861786D01*
X196059401Y-69840659D01*
X196012678Y-69788711D01*
X196000500Y-69735122D01*
X196000500Y-68469376D01*
X196020185Y-68402337D01*
X196059402Y-68363838D01*
X196093655Y-68342711D01*
X196217711Y-68218655D01*
X196309814Y-68069334D01*
X196364999Y-67902797D01*
X196375500Y-67800008D01*
X196375500Y-66774992D01*
X196364999Y-66672203D01*
X196309814Y-66505666D01*
X196307813Y-66502422D01*
X196217713Y-66356348D01*
X196217710Y-66356344D01*
X196093655Y-66232289D01*
X196093651Y-66232286D01*
X195944337Y-66140187D01*
X195944335Y-66140186D01*
X195861065Y-66112593D01*
X195777797Y-66085001D01*
X195777795Y-66085000D01*
X195675015Y-66074500D01*
X195675008Y-66074500D01*
X194324992Y-66074500D01*
X194324984Y-66074500D01*
X194222204Y-66085000D01*
X194222203Y-66085001D01*
X194055664Y-66140186D01*
X194055662Y-66140187D01*
X193906348Y-66232286D01*
X193906344Y-66232289D01*
X193782289Y-66356344D01*
X193782286Y-66356348D01*
X193690187Y-66505662D01*
X193690186Y-66505664D01*
X193635001Y-66672203D01*
X193635000Y-66672204D01*
X193624500Y-66774984D01*
X193200500Y-66774984D01*
X193200500Y-63524500D01*
X193220185Y-63457461D01*
X193272989Y-63411706D01*
X193324500Y-63400500D01*
X193561599Y-63400500D01*
X193628638Y-63420185D01*
G37*
%TD.AperFunction*%
%TA.AperFunction,Conductor*%
G36*
X219112356Y-110958803D02*
G01*
X219145841Y-111020126D01*
X219144926Y-111034831D01*
X219147497Y-111034555D01*
X219156401Y-111117373D01*
X219156403Y-111117380D01*
X219206645Y-111252086D01*
X219206649Y-111252093D01*
X219292809Y-111367187D01*
X219292812Y-111367190D01*
X219407906Y-111453350D01*
X219407913Y-111453354D01*
X219423903Y-111459318D01*
X219479837Y-111501189D01*
X219504254Y-111566653D01*
X219489403Y-111634926D01*
X219439998Y-111684332D01*
X219380570Y-111699500D01*
X218920200Y-111699500D01*
X218853161Y-111679815D01*
X218840634Y-111670506D01*
X218667817Y-111544949D01*
X218658504Y-111540204D01*
X218607707Y-111492230D01*
X218590912Y-111424409D01*
X218613449Y-111358274D01*
X218658507Y-111319232D01*
X218667555Y-111314622D01*
X218721716Y-111275270D01*
X218721717Y-111275270D01*
X218089408Y-110642962D01*
X218152993Y-110625925D01*
X218267007Y-110560099D01*
X218360099Y-110467007D01*
X218425925Y-110352993D01*
X218442962Y-110289408D01*
X219112356Y-110958803D01*
G37*
%TD.AperFunction*%
%TA.AperFunction,Conductor*%
G36*
X212936475Y-86158521D02*
G01*
X212985170Y-86208627D01*
X212999500Y-86266494D01*
X212999500Y-89486033D01*
X212979815Y-89553072D01*
X212927011Y-89598827D01*
X212857853Y-89608771D01*
X212794297Y-89579746D01*
X212756523Y-89520968D01*
X212752142Y-89498635D01*
X212752005Y-89497302D01*
X212696858Y-89330880D01*
X212696856Y-89330875D01*
X212604815Y-89181654D01*
X212480845Y-89057684D01*
X212331624Y-88965643D01*
X212331619Y-88965641D01*
X212165197Y-88910494D01*
X212165190Y-88910493D01*
X212062486Y-88900000D01*
X211850000Y-88900000D01*
X211850000Y-90176000D01*
X211830315Y-90243039D01*
X211777511Y-90288794D01*
X211726000Y-90300000D01*
X211600000Y-90300000D01*
X211600000Y-90426000D01*
X211580315Y-90493039D01*
X211527511Y-90538794D01*
X211476000Y-90550000D01*
X210437502Y-90550000D01*
X210436759Y-90550741D01*
X210417814Y-90615260D01*
X210365009Y-90661013D01*
X210295850Y-90670956D01*
X210232295Y-90641929D01*
X210225819Y-90635899D01*
X209674318Y-90084398D01*
X209640833Y-90023075D01*
X209637999Y-89996717D01*
X209637999Y-89600013D01*
X210437500Y-89600013D01*
X210437500Y-90050000D01*
X211350000Y-90050000D01*
X211350000Y-88900000D01*
X211137529Y-88900000D01*
X211137512Y-88900001D01*
X211034802Y-88910494D01*
X210868380Y-88965641D01*
X210868375Y-88965643D01*
X210719154Y-89057684D01*
X210595184Y-89181654D01*
X210503143Y-89330875D01*
X210503141Y-89330880D01*
X210447994Y-89497302D01*
X210447993Y-89497309D01*
X210437500Y-89600013D01*
X209637999Y-89600013D01*
X209637999Y-89599998D01*
X209637998Y-89599981D01*
X209627499Y-89497203D01*
X209627498Y-89497200D01*
X209623798Y-89486033D01*
X209572314Y-89330666D01*
X209480212Y-89181344D01*
X209356156Y-89057288D01*
X209206834Y-88965186D01*
X209040297Y-88910001D01*
X209040295Y-88910000D01*
X208937510Y-88899500D01*
X208012498Y-88899500D01*
X208012480Y-88899501D01*
X207909703Y-88910000D01*
X207909700Y-88910001D01*
X207743168Y-88965185D01*
X207743163Y-88965187D01*
X207593842Y-89057289D01*
X207469789Y-89181342D01*
X207377687Y-89330663D01*
X207377685Y-89330668D01*
X207377615Y-89330880D01*
X207322501Y-89497203D01*
X207322501Y-89497204D01*
X207322500Y-89497204D01*
X207312000Y-89599983D01*
X207312000Y-89996717D01*
X207292315Y-90063756D01*
X207275681Y-90084398D01*
X205846898Y-91513181D01*
X205819970Y-91527884D01*
X205794152Y-91544477D01*
X205787951Y-91545368D01*
X205785575Y-91546666D01*
X205759217Y-91549500D01*
X205665783Y-91549500D01*
X205598744Y-91529815D01*
X205578102Y-91513181D01*
X204634209Y-90569289D01*
X204634206Y-90569285D01*
X204634206Y-90569286D01*
X204627139Y-90562219D01*
X204627139Y-90562218D01*
X204487782Y-90422861D01*
X204487781Y-90422860D01*
X204487780Y-90422859D01*
X204323920Y-90313371D01*
X204323911Y-90313366D01*
X204251315Y-90283296D01*
X204195165Y-90260038D01*
X204141836Y-90237949D01*
X204141832Y-90237948D01*
X204141828Y-90237946D01*
X204045188Y-90218724D01*
X203948544Y-90199500D01*
X203948541Y-90199500D01*
X203101459Y-90199500D01*
X203101457Y-90199500D01*
X202908170Y-90237947D01*
X202908160Y-90237950D01*
X202726092Y-90313364D01*
X202726079Y-90313371D01*
X202562218Y-90422860D01*
X202562214Y-90422863D01*
X202422863Y-90562214D01*
X202422860Y-90562218D01*
X202313371Y-90726079D01*
X202313364Y-90726092D01*
X202237950Y-90908160D01*
X202237947Y-90908170D01*
X202199500Y-91101456D01*
X202199500Y-91101459D01*
X202199500Y-91298541D01*
X202199500Y-91298543D01*
X202199499Y-91298543D01*
X202237947Y-91491829D01*
X202237950Y-91491839D01*
X202313364Y-91673907D01*
X202313371Y-91673920D01*
X202422860Y-91837781D01*
X202422863Y-91837785D01*
X202562214Y-91977136D01*
X202562218Y-91977139D01*
X202726079Y-92086628D01*
X202726092Y-92086635D01*
X202832394Y-92130666D01*
X202908165Y-92162051D01*
X202908169Y-92162051D01*
X202908170Y-92162052D01*
X203101456Y-92200500D01*
X203101459Y-92200500D01*
X203384218Y-92200500D01*
X203451257Y-92220185D01*
X203471899Y-92236819D01*
X203913181Y-92678101D01*
X203946666Y-92739424D01*
X203949500Y-92765782D01*
X203949500Y-93251121D01*
X203949501Y-93251125D01*
X203952399Y-93293886D01*
X203952399Y-93293887D01*
X203998360Y-93478696D01*
X204082967Y-93649292D01*
X204082969Y-93649295D01*
X204202277Y-93797721D01*
X204202278Y-93797722D01*
X204271486Y-93853353D01*
X204284221Y-93871646D01*
X204300518Y-93886857D01*
X204303795Y-93899765D01*
X204311405Y-93910696D01*
X204312228Y-93932973D01*
X204317714Y-93954578D01*
X204313493Y-93967208D01*
X204313985Y-93980518D01*
X204302634Y-93999701D01*
X204295569Y-94020845D01*
X204280696Y-94036779D01*
X204278406Y-94040651D01*
X204271497Y-94046637D01*
X204239761Y-94072148D01*
X204175180Y-94098806D01*
X204162076Y-94099500D01*
X201799481Y-94099500D01*
X201732442Y-94079815D01*
X201686687Y-94027011D01*
X201676743Y-93957853D01*
X201684920Y-93928048D01*
X201710531Y-93866214D01*
X201753677Y-93762052D01*
X201762051Y-93741836D01*
X201800500Y-93548541D01*
X201800500Y-93351460D01*
X201800500Y-89909797D01*
X201803375Y-89900005D01*
X201802110Y-89889878D01*
X201813053Y-89867046D01*
X201820185Y-89842758D01*
X201828701Y-89834397D01*
X201832309Y-89826871D01*
X201859406Y-89804257D01*
X201896368Y-89781460D01*
X201961462Y-89763000D01*
X204136042Y-89763000D01*
X204167066Y-89756828D01*
X204232688Y-89743775D01*
X204329336Y-89724551D01*
X204382665Y-89702461D01*
X204511414Y-89649132D01*
X204675282Y-89539639D01*
X204814639Y-89400282D01*
X204814640Y-89400279D01*
X204821706Y-89393214D01*
X204821708Y-89393210D01*
X206378101Y-87836819D01*
X206439424Y-87803334D01*
X206465782Y-87800500D01*
X209438542Y-87800500D01*
X209469566Y-87794328D01*
X209535188Y-87781275D01*
X209631836Y-87762051D01*
X209685165Y-87739961D01*
X209813914Y-87686632D01*
X209977782Y-87577139D01*
X210117139Y-87437782D01*
X210117139Y-87437780D01*
X210127347Y-87427573D01*
X210127348Y-87427570D01*
X211246821Y-86308098D01*
X211308142Y-86274615D01*
X211377834Y-86279599D01*
X211390796Y-86285296D01*
X211481588Y-86331557D01*
X211683757Y-86397246D01*
X211893713Y-86430500D01*
X211893714Y-86430500D01*
X212106286Y-86430500D01*
X212106287Y-86430500D01*
X212316243Y-86397246D01*
X212518412Y-86331557D01*
X212707816Y-86235051D01*
X212802615Y-86166176D01*
X212868421Y-86142696D01*
X212936475Y-86158521D01*
G37*
%TD.AperFunction*%
%TA.AperFunction,Conductor*%
G36*
X222142539Y-63420185D02*
G01*
X222188294Y-63472989D01*
X222199500Y-63524500D01*
X222199500Y-69275500D01*
X222179815Y-69342539D01*
X222127011Y-69388294D01*
X222075500Y-69399500D01*
X216499154Y-69399500D01*
X216432115Y-69379815D01*
X216386360Y-69327011D01*
X216376416Y-69257853D01*
X216405441Y-69194297D01*
X216411473Y-69187819D01*
X216582047Y-69017246D01*
X216862474Y-68736819D01*
X216889401Y-68722115D01*
X216915220Y-68705523D01*
X216921420Y-68704631D01*
X216923797Y-68703334D01*
X216950155Y-68700500D01*
X217099800Y-68700500D01*
X217166839Y-68720185D01*
X217179365Y-68729493D01*
X217352179Y-68855048D01*
X217352181Y-68855049D01*
X217352184Y-68855051D01*
X217541588Y-68951557D01*
X217743757Y-69017246D01*
X217953713Y-69050500D01*
X217953714Y-69050500D01*
X218166286Y-69050500D01*
X218166287Y-69050500D01*
X218376243Y-69017246D01*
X218578412Y-68951557D01*
X218767816Y-68855051D01*
X218782769Y-68844186D01*
X218943734Y-68727241D01*
X218944364Y-68728108D01*
X219003419Y-68701641D01*
X219020200Y-68700500D01*
X219639800Y-68700500D01*
X219706839Y-68720185D01*
X219719365Y-68729493D01*
X219892179Y-68855048D01*
X219892181Y-68855049D01*
X219892184Y-68855051D01*
X220081588Y-68951557D01*
X220283757Y-69017246D01*
X220493713Y-69050500D01*
X220493714Y-69050500D01*
X220706286Y-69050500D01*
X220706287Y-69050500D01*
X220916243Y-69017246D01*
X221118412Y-68951557D01*
X221307816Y-68855051D01*
X221470550Y-68736819D01*
X221479786Y-68730109D01*
X221479788Y-68730106D01*
X221479792Y-68730104D01*
X221630104Y-68579792D01*
X221630106Y-68579788D01*
X221630109Y-68579786D01*
X221755048Y-68407820D01*
X221755047Y-68407820D01*
X221755051Y-68407816D01*
X221851557Y-68218412D01*
X221917246Y-68016243D01*
X221950500Y-67806287D01*
X221950500Y-67593713D01*
X221917246Y-67383757D01*
X221851557Y-67181588D01*
X221755051Y-66992184D01*
X221755049Y-66992181D01*
X221755048Y-66992179D01*
X221630109Y-66820213D01*
X221516181Y-66706285D01*
X221482696Y-66644962D01*
X221487680Y-66575270D01*
X221529552Y-66519337D01*
X221560529Y-66502422D01*
X221692086Y-66453354D01*
X221692093Y-66453350D01*
X221807187Y-66367190D01*
X221807190Y-66367187D01*
X221893350Y-66252093D01*
X221893354Y-66252086D01*
X221943596Y-66117379D01*
X221943598Y-66117372D01*
X221949999Y-66057844D01*
X221950000Y-66057827D01*
X221950000Y-65410000D01*
X221033012Y-65410000D01*
X221065925Y-65352993D01*
X221100000Y-65225826D01*
X221100000Y-65094174D01*
X221065925Y-64967007D01*
X221033012Y-64910000D01*
X221950000Y-64910000D01*
X221950000Y-64262172D01*
X221949999Y-64262155D01*
X221943598Y-64202627D01*
X221943596Y-64202620D01*
X221893354Y-64067913D01*
X221893350Y-64067906D01*
X221807190Y-63952812D01*
X221807187Y-63952809D01*
X221692093Y-63866649D01*
X221692086Y-63866645D01*
X221557379Y-63816403D01*
X221557372Y-63816401D01*
X221497844Y-63810000D01*
X220850000Y-63810000D01*
X220850000Y-64726988D01*
X220792993Y-64694075D01*
X220665826Y-64660000D01*
X220534174Y-64660000D01*
X220407007Y-64694075D01*
X220350000Y-64726988D01*
X220350000Y-63810000D01*
X219702155Y-63810000D01*
X219642627Y-63816401D01*
X219642620Y-63816403D01*
X219507913Y-63866645D01*
X219507906Y-63866649D01*
X219392812Y-63952809D01*
X219392809Y-63952812D01*
X219306649Y-64067906D01*
X219306645Y-64067913D01*
X219256403Y-64202619D01*
X219256401Y-64202626D01*
X219247497Y-64285444D01*
X219244434Y-64285114D01*
X219245336Y-64302094D01*
X219212356Y-64361195D01*
X218542962Y-65030590D01*
X218525925Y-64967007D01*
X218460099Y-64852993D01*
X218367007Y-64759901D01*
X218252993Y-64694075D01*
X218189409Y-64677037D01*
X218821716Y-64044728D01*
X218767550Y-64005375D01*
X218578217Y-63908904D01*
X218376129Y-63843242D01*
X218166246Y-63810000D01*
X217953754Y-63810000D01*
X217743872Y-63843242D01*
X217743869Y-63843242D01*
X217541782Y-63908904D01*
X217352439Y-64005380D01*
X217298282Y-64044727D01*
X217298282Y-64044728D01*
X217930591Y-64677037D01*
X217867007Y-64694075D01*
X217752993Y-64759901D01*
X217659901Y-64852993D01*
X217594075Y-64967007D01*
X217577037Y-65030591D01*
X216944728Y-64398282D01*
X216944727Y-64398282D01*
X216905380Y-64452439D01*
X216808904Y-64641782D01*
X216743242Y-64843869D01*
X216743242Y-64843872D01*
X216710000Y-65053753D01*
X216710000Y-65266246D01*
X216743242Y-65476127D01*
X216743242Y-65476130D01*
X216808904Y-65678217D01*
X216905375Y-65867550D01*
X216944728Y-65921716D01*
X217577037Y-65289408D01*
X217594075Y-65352993D01*
X217659901Y-65467007D01*
X217752993Y-65560099D01*
X217867007Y-65625925D01*
X217930590Y-65642962D01*
X217298282Y-66275269D01*
X217298282Y-66275270D01*
X217352452Y-66314626D01*
X217352451Y-66314626D01*
X217361495Y-66319234D01*
X217412292Y-66367208D01*
X217429087Y-66435029D01*
X217406550Y-66501164D01*
X217361499Y-66540202D01*
X217352182Y-66544949D01*
X217176266Y-66672759D01*
X217175635Y-66671891D01*
X217116581Y-66698359D01*
X217099800Y-66699500D01*
X216385829Y-66699500D01*
X216321629Y-66712270D01*
X216289528Y-66718656D01*
X216192539Y-66737947D01*
X216192531Y-66737950D01*
X216139206Y-66760037D01*
X216139206Y-66760038D01*
X216093687Y-66778892D01*
X216010461Y-66813366D01*
X216010451Y-66813371D01*
X215846590Y-66922860D01*
X215846586Y-66922863D01*
X214426740Y-68342711D01*
X214061220Y-68708231D01*
X214061218Y-68708233D01*
X213991538Y-68777912D01*
X213921859Y-68847591D01*
X213812371Y-69011451D01*
X213812364Y-69011464D01*
X213736950Y-69193532D01*
X213736947Y-69193542D01*
X213698500Y-69386828D01*
X213698500Y-81235218D01*
X213678815Y-81302257D01*
X213662181Y-81322899D01*
X213481899Y-81503181D01*
X213420576Y-81536666D01*
X213394218Y-81539500D01*
X213120860Y-81539500D01*
X213053821Y-81519815D01*
X213008066Y-81467011D01*
X212998122Y-81397853D01*
X213027147Y-81334297D01*
X213077527Y-81299318D01*
X213092328Y-81293797D01*
X213092327Y-81293797D01*
X213092331Y-81293796D01*
X213207546Y-81207546D01*
X213293796Y-81092331D01*
X213344091Y-80957483D01*
X213350500Y-80897873D01*
X213350499Y-79102128D01*
X213344091Y-79042517D01*
X213314078Y-78962049D01*
X213293797Y-78907671D01*
X213293793Y-78907664D01*
X213207547Y-78792455D01*
X213207544Y-78792452D01*
X213092335Y-78706206D01*
X213092328Y-78706202D01*
X212957482Y-78655908D01*
X212957483Y-78655908D01*
X212897883Y-78649501D01*
X212897881Y-78649500D01*
X212897873Y-78649500D01*
X212897864Y-78649500D01*
X211102129Y-78649500D01*
X211102123Y-78649501D01*
X211042516Y-78655908D01*
X210907671Y-78706202D01*
X210907664Y-78706206D01*
X210852687Y-78747362D01*
X210787223Y-78771779D01*
X210718950Y-78756927D01*
X210690696Y-78735776D01*
X209436819Y-77481899D01*
X209403334Y-77420576D01*
X209400500Y-77394218D01*
X209400500Y-77099986D01*
X209900001Y-77099986D01*
X209910494Y-77202697D01*
X209965641Y-77369119D01*
X209965643Y-77369124D01*
X210057684Y-77518345D01*
X210181654Y-77642315D01*
X210330875Y-77734356D01*
X210330880Y-77734358D01*
X210497302Y-77789505D01*
X210497309Y-77789506D01*
X210600019Y-77799999D01*
X210949999Y-77799999D01*
X211450000Y-77799999D01*
X211799972Y-77799999D01*
X211799986Y-77799998D01*
X211902697Y-77789505D01*
X212069119Y-77734358D01*
X212069124Y-77734356D01*
X212218345Y-77642315D01*
X212342315Y-77518345D01*
X212434356Y-77369124D01*
X212434358Y-77369119D01*
X212489505Y-77202697D01*
X212489506Y-77202690D01*
X212499999Y-77099986D01*
X212500000Y-77099973D01*
X212500000Y-76050000D01*
X211450000Y-76050000D01*
X211450000Y-77799999D01*
X210949999Y-77799999D01*
X210950000Y-77799998D01*
X210950000Y-76050000D01*
X209900001Y-76050000D01*
X209900001Y-77099986D01*
X209400500Y-77099986D01*
X209400500Y-74601456D01*
X209400499Y-74601454D01*
X209380321Y-74500013D01*
X209362051Y-74408164D01*
X209330811Y-74332745D01*
X209286632Y-74226086D01*
X209197967Y-74093390D01*
X209177090Y-74026713D01*
X209195575Y-73959333D01*
X209247553Y-73912643D01*
X209301070Y-73900500D01*
X209798542Y-73900500D01*
X209814721Y-73897281D01*
X209895188Y-73881275D01*
X209947255Y-73870918D01*
X210016842Y-73877147D01*
X210072018Y-73920010D01*
X210095262Y-73985900D01*
X210079193Y-74053897D01*
X210059128Y-74080211D01*
X210057683Y-74081655D01*
X209965643Y-74230875D01*
X209965641Y-74230880D01*
X209910494Y-74397302D01*
X209910493Y-74397309D01*
X209900000Y-74500013D01*
X209900000Y-75550000D01*
X210950000Y-75550000D01*
X211450000Y-75550000D01*
X212499999Y-75550000D01*
X212499999Y-74500028D01*
X212499998Y-74500013D01*
X212489505Y-74397302D01*
X212434358Y-74230880D01*
X212434356Y-74230875D01*
X212342315Y-74081654D01*
X212218345Y-73957684D01*
X212069124Y-73865643D01*
X212069119Y-73865641D01*
X211902697Y-73810494D01*
X211902690Y-73810493D01*
X211799986Y-73800000D01*
X211450000Y-73800000D01*
X211450000Y-75550000D01*
X210950000Y-75550000D01*
X210950000Y-73800000D01*
X210600028Y-73800000D01*
X210600010Y-73800001D01*
X210517847Y-73808395D01*
X210490085Y-73803234D01*
X210461915Y-73801220D01*
X210456187Y-73796932D01*
X210449154Y-73795625D01*
X210428590Y-73776274D01*
X210405980Y-73759350D01*
X210403479Y-73752645D01*
X210398270Y-73747744D01*
X210391431Y-73720346D01*
X210381562Y-73693886D01*
X210383082Y-73686895D01*
X210381350Y-73679954D01*
X210390411Y-73653203D01*
X210396413Y-73625612D01*
X210402521Y-73617451D01*
X210403766Y-73613778D01*
X210417563Y-73597358D01*
X210477139Y-73537782D01*
X210477140Y-73537779D01*
X210578103Y-73436815D01*
X210639425Y-73403333D01*
X210665782Y-73400499D01*
X211800002Y-73400499D01*
X211800008Y-73400499D01*
X211902797Y-73389999D01*
X212069334Y-73334814D01*
X212218656Y-73242712D01*
X212342712Y-73118656D01*
X212434814Y-72969334D01*
X212489999Y-72802797D01*
X212500500Y-72700009D01*
X212500499Y-70099992D01*
X212489999Y-69997203D01*
X212434814Y-69830666D01*
X212342712Y-69681344D01*
X212218656Y-69557288D01*
X212069334Y-69465186D01*
X211902797Y-69410001D01*
X211902795Y-69410000D01*
X211800010Y-69399500D01*
X210599998Y-69399500D01*
X210599981Y-69399501D01*
X210497203Y-69410000D01*
X210497200Y-69410001D01*
X210330668Y-69465185D01*
X210330663Y-69465187D01*
X210181342Y-69557289D01*
X210057289Y-69681342D01*
X209965187Y-69830663D01*
X209965185Y-69830668D01*
X209954874Y-69861786D01*
X209910001Y-69997203D01*
X209910001Y-69997204D01*
X209910000Y-69997204D01*
X209899500Y-70099983D01*
X209899500Y-71234216D01*
X209879815Y-71301255D01*
X209863181Y-71321897D01*
X209321899Y-71863181D01*
X209260576Y-71896666D01*
X209234218Y-71899500D01*
X206887924Y-71899500D01*
X206864691Y-71892678D01*
X206840612Y-71890119D01*
X206825473Y-71881162D01*
X206820885Y-71879815D01*
X206810248Y-71872155D01*
X206778511Y-71846645D01*
X206738595Y-71789303D01*
X206736015Y-71719481D01*
X206771594Y-71659349D01*
X206778514Y-71653353D01*
X206797886Y-71637781D01*
X206847722Y-71597722D01*
X206967030Y-71449296D01*
X207051641Y-71278693D01*
X207097600Y-71093889D01*
X207100500Y-71051123D01*
X207100499Y-70148878D01*
X207097600Y-70106111D01*
X207051641Y-69921307D01*
X207022123Y-69861789D01*
X206967032Y-69750707D01*
X206967030Y-69750704D01*
X206847722Y-69602278D01*
X206847721Y-69602277D01*
X206699295Y-69482969D01*
X206699292Y-69482967D01*
X206528697Y-69398360D01*
X206343892Y-69352400D01*
X206322506Y-69350950D01*
X206301123Y-69349500D01*
X206301120Y-69349500D01*
X204898877Y-69349500D01*
X204898874Y-69349501D01*
X204856113Y-69352399D01*
X204856112Y-69352399D01*
X204671303Y-69398360D01*
X204500707Y-69482967D01*
X204500704Y-69482969D01*
X204352278Y-69602277D01*
X204352277Y-69602278D01*
X204232969Y-69750704D01*
X204232967Y-69750707D01*
X204145372Y-69927329D01*
X204143464Y-69926382D01*
X204107869Y-69974410D01*
X204042522Y-69999140D01*
X204033084Y-69999500D01*
X202701457Y-69999500D01*
X202508170Y-70037947D01*
X202508160Y-70037950D01*
X202326092Y-70113364D01*
X202326079Y-70113371D01*
X202162218Y-70222860D01*
X202162214Y-70222863D01*
X202022863Y-70362214D01*
X202022860Y-70362218D01*
X201913371Y-70526079D01*
X201913364Y-70526092D01*
X201837950Y-70708160D01*
X201837947Y-70708170D01*
X201799500Y-70901456D01*
X201799500Y-70901459D01*
X201799500Y-71098541D01*
X201799500Y-71098543D01*
X201799499Y-71098543D01*
X201837947Y-71291829D01*
X201837950Y-71291839D01*
X201913364Y-71473907D01*
X201913371Y-71473920D01*
X202022860Y-71637781D01*
X202022863Y-71637785D01*
X202072897Y-71687819D01*
X202106382Y-71749142D01*
X202101398Y-71818834D01*
X202059526Y-71874767D01*
X201994062Y-71899184D01*
X201985216Y-71899500D01*
X200924499Y-71899500D01*
X200857460Y-71879815D01*
X200811705Y-71827011D01*
X200800499Y-71775500D01*
X200800499Y-71441971D01*
X200800499Y-71441964D01*
X200789886Y-71322582D01*
X200733909Y-71126951D01*
X200639698Y-70946593D01*
X200587684Y-70882803D01*
X200511109Y-70788890D01*
X200348533Y-70656328D01*
X200349892Y-70654660D01*
X200311117Y-70608850D01*
X200300500Y-70558648D01*
X200300500Y-68003282D01*
X200320185Y-67936243D01*
X200336819Y-67915601D01*
X201215602Y-67036818D01*
X201276925Y-67003333D01*
X201303283Y-67000499D01*
X201700002Y-67000499D01*
X201700008Y-67000499D01*
X201802797Y-66989999D01*
X201969334Y-66934814D01*
X202118656Y-66842712D01*
X202242712Y-66718656D01*
X202334814Y-66569334D01*
X202389999Y-66402797D01*
X202400500Y-66300009D01*
X202400500Y-66299986D01*
X203200001Y-66299986D01*
X203210494Y-66402697D01*
X203265641Y-66569119D01*
X203265643Y-66569124D01*
X203357684Y-66718345D01*
X203481654Y-66842315D01*
X203630875Y-66934356D01*
X203630880Y-66934358D01*
X203797302Y-66989505D01*
X203797309Y-66989506D01*
X203900019Y-66999999D01*
X204112499Y-66999999D01*
X204612500Y-66999999D01*
X204824972Y-66999999D01*
X204824986Y-66999998D01*
X204927697Y-66989505D01*
X205094119Y-66934358D01*
X205094124Y-66934356D01*
X205243345Y-66842315D01*
X205367315Y-66718345D01*
X205459356Y-66569124D01*
X205459358Y-66569119D01*
X205514505Y-66402697D01*
X205514506Y-66402690D01*
X205524999Y-66299986D01*
X205525000Y-66299973D01*
X205525000Y-65850000D01*
X204612500Y-65850000D01*
X204612500Y-66999999D01*
X204112499Y-66999999D01*
X204112500Y-66999998D01*
X204112500Y-65850000D01*
X203200001Y-65850000D01*
X203200001Y-66299986D01*
X202400500Y-66299986D01*
X202400499Y-65599999D01*
X202400499Y-64900013D01*
X203200000Y-64900013D01*
X203200000Y-65350000D01*
X204112500Y-65350000D01*
X204612500Y-65350000D01*
X205524999Y-65350000D01*
X205524999Y-64900028D01*
X205524998Y-64900013D01*
X205514505Y-64797302D01*
X205459358Y-64630880D01*
X205459356Y-64630875D01*
X205367315Y-64481654D01*
X205243345Y-64357684D01*
X205094124Y-64265643D01*
X205094119Y-64265641D01*
X204927698Y-64210495D01*
X204927690Y-64210493D01*
X204824986Y-64200000D01*
X204612500Y-64200000D01*
X204612500Y-65350000D01*
X204112500Y-65350000D01*
X204112500Y-64200000D01*
X203900029Y-64200000D01*
X203900012Y-64200001D01*
X203797302Y-64210494D01*
X203630880Y-64265641D01*
X203630875Y-64265643D01*
X203481654Y-64357684D01*
X203357684Y-64481654D01*
X203265643Y-64630875D01*
X203265641Y-64630880D01*
X203210494Y-64797302D01*
X203210493Y-64797309D01*
X203200000Y-64900013D01*
X202400499Y-64900013D01*
X202400499Y-64899998D01*
X202400498Y-64899981D01*
X202389999Y-64797203D01*
X202389998Y-64797200D01*
X202377638Y-64759901D01*
X202334814Y-64630666D01*
X202242712Y-64481344D01*
X202118656Y-64357288D01*
X201969334Y-64265186D01*
X201802797Y-64210001D01*
X201802795Y-64210000D01*
X201700016Y-64199500D01*
X201700009Y-64199500D01*
X201303282Y-64199500D01*
X201236243Y-64179815D01*
X201215601Y-64163181D01*
X200731479Y-63679059D01*
X200727141Y-63674721D01*
X200727139Y-63674718D01*
X200664601Y-63612180D01*
X200631117Y-63550856D01*
X200634491Y-63503698D01*
X200636102Y-63481166D01*
X200677974Y-63425233D01*
X200677974Y-63425232D01*
X200677975Y-63425232D01*
X200714241Y-63411706D01*
X200743438Y-63400816D01*
X200752284Y-63400500D01*
X222075500Y-63400500D01*
X222142539Y-63420185D01*
G37*
%TD.AperFunction*%
%TA.AperFunction,Conductor*%
G36*
X219212356Y-65958803D02*
G01*
X219245841Y-66020126D01*
X219244926Y-66034831D01*
X219247497Y-66034555D01*
X219256401Y-66117373D01*
X219256403Y-66117380D01*
X219306645Y-66252086D01*
X219306649Y-66252093D01*
X219392809Y-66367187D01*
X219392812Y-66367190D01*
X219507906Y-66453350D01*
X219507913Y-66453354D01*
X219523903Y-66459318D01*
X219579837Y-66501189D01*
X219604254Y-66566653D01*
X219589403Y-66634926D01*
X219539998Y-66684332D01*
X219480570Y-66699500D01*
X219020200Y-66699500D01*
X218953161Y-66679815D01*
X218940634Y-66670506D01*
X218767817Y-66544949D01*
X218758504Y-66540204D01*
X218707707Y-66492230D01*
X218690912Y-66424409D01*
X218713449Y-66358274D01*
X218758507Y-66319232D01*
X218767555Y-66314622D01*
X218821716Y-66275270D01*
X218821717Y-66275270D01*
X218189408Y-65642962D01*
X218252993Y-65625925D01*
X218367007Y-65560099D01*
X218460099Y-65467007D01*
X218525925Y-65352993D01*
X218542962Y-65289408D01*
X219212356Y-65958803D01*
G37*
%TD.AperFunction*%
%TD*%
M02*
